<?xml version="1.0" encoding="UTF-8" standalone="no"?>
<!-- Created with Inkscape (http://www.inkscape.org/) -->

<svg
   xmlns:dc="http://purl.org/dc/elements/1.1/"
   xmlns:cc="http://creativecommons.org/ns#"
   xmlns:rdf="http://www.w3.org/1999/02/22-rdf-syntax-ns#"
   xmlns:svg="http://www.w3.org/2000/svg"
   xmlns="http://www.w3.org/2000/svg"
   version="1.0"
   width="399.99979"
   height="200.00037"
   id="svg576">
  <metadata
     id="metadata61">
    <rdf:RDF>
      <cc:Work
         rdf:about="">
        <dc:format>image/svg+xml</dc:format>
        <dc:type
           rdf:resource="http://purl.org/dc/dcmitype/StillImage" />
        <dc:title></dc:title>
        <dc:creator>
          <cc:Agent>
            <dc:title>Devin Cook</dc:title>
          </cc:Agent>
        </dc:creator>
        <dc:publisher>
          <cc:Agent>
            <dc:title>Devin Cook</dc:title>
          </cc:Agent>
        </dc:publisher>
        <dc:rights>
          <cc:Agent>
            <dc:title>Public Domain</dc:title>
          </cc:Agent>
        </dc:rights>
        <dc:description>This is Flag of the California Republic. This version is designed specifically to match the description of the flag as described in California Law 54-J-03. The bear was rendered directly using the official drawing found in the law. This also includes the grass plot.</dc:description>
        <dc:contributor>
          <cc:Agent>
            <dc:title>Devin Cook
flags@devincook.com
www.devincook.com</dc:title>
          </cc:Agent>
        </dc:contributor>
        <dc:source>California Law 54-J-03</dc:source>
        <cc:license
           rdf:resource="http://devincook.com" />
      </cc:Work>
      <cc:License
         rdf:about="http://web.resource.org/cc/PublicDomain">
        <cc:permits
           rdf:resource="http://web.resource.org/cc/Reproduction" />
        <cc:permits
           rdf:resource="http://web.resource.org/cc/Distribution" />
        <cc:permits
           rdf:resource="http://web.resource.org/cc/DerivativeWorks" />
      </cc:License>
    </rdf:RDF>
  </metadata>
  <defs
     id="defs578" />
  <path
     d="m 74.90143,199.94475 c -0.54587,-0.20634 -0.97137,-0.15317 -1.55884,-0.29912 -0.6432,-0.0188 -1.18845,-0.0378 -1.79826,-0.0447 -0.24973,-0.0791 -0.63642,-0.15023 -0.85932,-0.15811 -0.53305,-0.18616 -0.96638,-0.57952 -1.48679,-0.89374 -0.34174,-0.25888 -0.72912,-0.43169 -1.0959,-0.62486 -0.629,0.15583 -1.23061,0.0437 -1.87506,0.0698 -1.21812,0.0417 -2.37986,0.38915 -3.62312,0.45249 -0.24331,0.32804 -0.64457,0.61335 -0.98045,0.89812 -0.21001,0.0359 -0.40089,0.0199 -0.46557,-0.039 -0.15692,-0.14293 -0.1196,-0.62537 0.0672,-0.86824 0.0844,-0.29258 0.30888,-0.47979 0.46467,-0.72179 0.1762,-0.44074 0.47866,-0.60624 0.75562,-0.98232 0.0387,-0.14061 0.15888,-0.36878 0.26696,-0.50704 0.37081,-0.47434 0.16643,-1.00735 -0.33218,-0.86627 -0.12845,0.0363 -0.35495,0.14392 -0.50332,0.23907 -1.05643,0.11046 -1.81357,0.46288 -2.91303,0.69029 -0.58083,0.0783 -1.18011,0.30359 -1.70953,0.4547 -1.11157,0.74279 -2.463,1.08964 -3.76423,1.44514 -0.44949,-0.10949 -0.40937,-0.33454 0.109,-0.61124 0.25224,-0.13465 0.48692,-0.32599 0.52149,-0.4252 0.0346,-0.0992 0.23548,-0.2606 0.44647,-0.35864 0.68797,-0.90629 1.5523,-1.61221 2.34563,-2.41062 0.70877,-0.59999 0.82043,-0.78938 0.58946,-0.99976 -1.5175,0.24203 -2.94674,0.92552 -4.48924,1.27748 -0.44237,0.34722 -0.93716,0.57886 -1.42623,0.86403 -0.66184,0.28103 -1.23651,0.64924 -1.82091,1.05431 -0.26654,0.30331 -0.57718,0.2797 -0.57633,-0.0438 8.2e-4,-0.31403 0.22499,-0.62499 0.78697,-1.09167 0.21296,-0.22904 0.43828,-0.44092 0.64219,-0.64606 0.33078,-0.0942 0.13105,-0.49792 0.19438,-0.73853 0.0103,-0.0509 0.0197,-0.43672 0.0208,-0.85734 l 0.002,-0.76475 0.52301,-0.39639 c 0.28765,-0.21802 0.69844,-0.4779 0.91285,-0.57751 0.31861,-0.21535 0.63192,-0.41585 0.95171,-0.6263 0.0946,-0.1411 1.3425,-0.52683 1.70432,-0.52683 0.36978,0 0.71012,-0.49141 0.92265,-1.33222 0.12996,-0.5142 0.23554,-0.74263 0.35651,-0.77145 0.0945,-0.0225 0.27048,-0.16243 0.391,-0.31091 0.76873,-0.15716 1.2438,-0.73212 1.78342,-1.25287 0.0825,-0.10783 0.28981,-0.22151 0.46063,-0.25263 0.49463,-0.32967 1.2101,-0.89117 1.50624,-1.15234 0.82076,-0.18473 1.45443,-0.82521 2.10273,-1.31536 0.22292,-0.0378 0.50965,-0.45178 0.98445,-0.70828 0.4748,-0.2565 1.33557,-0.66812 1.95355,-1.05017 0.77804,-0.50353 1.38042,-0.5548 2.22788,-0.61184 0.23337,-0.0387 0.63797,-0.0608 0.89908,-0.049 0.89306,-0.13011 1.74875,-0.39593 2.64145,-0.54894 0.35427,-0.0987 0.89565,-0.17867 1.20308,-0.17768 0.30744,0.001 1.58798,-0.0301 2.84566,-0.0691 1.05889,0.0884 2.08529,-0.14942 3.07938,-0.34497 0.99724,-0.29751 1.86396,-0.86017 2.71356,-1.44031 1.03219,-0.5986 1.62134,-1.66376 2.43913,-2.51052 0.16415,-0.50806 0.46147,-0.95218 0.70942,-1.42025 0.2676,-0.57376 0.65505,-1.10163 0.99121,-1.62163 0.12316,0 0.89074,-1.68064 0.85619,-1.87463 0.36501,-0.33813 0.55493,-0.83854 0.8152,-1.29607 0.28867,-0.46433 0.41823,-0.95205 0.6752,-1.45784 0.37583,-0.55959 0.80364,-1.09879 1.25107,-1.5737 0.19474,-0.24521 0.51447,-0.51126 0.74807,-0.77382 0.15237,-0.58998 0.61332,-1.05383 0.94074,-1.51067 0.2288,-0.0733 1.03802,-0.87248 1.04011,-1.02721 0.43127,-0.36649 0.7961,-0.85141 1.16327,-1.30809 0.90135,-1.4442 2.23531,-2.53423 3.31148,-3.80495 0.11646,-0.2534 0.22841,-0.42001 0.35195,-0.64719 0.0826,0 0.2312,-0.11392 0.3303,-0.25317 0.0991,-0.13923 0.32883,-0.37266 0.5105,-0.51873 0.12673,-0.26186 0.40537,-0.37746 0.55897,-0.52048 0.64117,-0.0828 1.01836,-0.95575 1.54441,-1.46911 0.0346,-0.0994 0.15372,-0.2024 0.2646,-0.22881 0.49513,-0.32899 0.49189,-0.86168 0.65137,-1.35322 0.14208,-0.73438 0.40277,-0.77329 0.96075,-1.2064 0.19196,-0.22305 0.39048,-0.44162 0.58074,-0.65679 0.13266,-0.0459 0.2412,-0.14873 0.2412,-0.22842 0.54027,-0.92994 1.09578,-1.24858 1.57453,-2.07738 0.0623,-0.33595 0.0991,-0.37578 0.32665,-0.35331 1.14743,-1.08549 0.95394,-1.63513 1.23412,-2.24268 0.91281,-0.40553 0.75496,-1.44522 0.82359,-2.40491 0.55667,-0.622 0.83069,-1.37201 1.07182,-2.13105 0.16686,-0.206 0.25408,-0.43541 0.25408,-0.66827 0.46456,-0.49681 0.48012,-1.07449 0.64916,-1.646 0.17775,0 0.89631,-1.62022 1.14953,-2.59198 0.42136,-0.40938 0.52248,-1.027 0.53138,-1.53557 0.009,-0.50857 0.21987,-1.21985 0.37528,-1.85261 0.26199,-0.63505 0.32012,-1.27009 0.3803,-1.95614 0.24267,-0.59049 0.39464,-1.21187 0.57918,-1.79148 0.45267,-0.70843 0.51373,-1.4939 0.57901,-2.31857 0.11237,-0.82536 0.36749,-1.39361 0.29059,-2.00609 0.17655,-0.0229 0.22598,-0.11129 0.27553,-0.49243 0.0332,-0.25545 0.0363,-0.57611 0.007,-0.71259 -0.0472,-0.21916 0.14507,-0.72734 0.46177,-1.22014 0.2838,-0.74322 0.50555,-1.53 0.716,-2.28633 0.6348,-0.98752 0.85003,-2.11255 1.20899,-3.4263 0.18885,-0.16365 0.33512,-0.9247 0.32727,-1.70273 0.0785,-0.40258 0.39976,-0.71244 0.66944,-1.05073 0.0969,0.0574 0.17925,-0.13638 0.26888,-0.20457 -0.21655,-0.0717 -0.73509,-0.58539 -0.74115,-0.73421 -0.002,-0.0558 0.15594,-0.25164 0.35158,-0.43512 0.51699,-0.4425 0.10942,-0.45536 0.20149,-0.83851 0.0457,-0.73945 0.34261,-0.86819 0.5677,-1.41383 0.12638,-0.21509 0.12025,-0.25495 -0.0602,-0.39152 -0.069,-0.41299 -0.42264,-0.57163 -0.63288,-0.85597 -0.5341,-0.28644 -1.16404,-0.39545 -1.75248,-0.54551 -0.12292,-0.0599 -0.27544,-0.0193 -0.53801,0.14319 -0.41732,0.2583 -0.7578,0.28795 -1.04382,0.0909 -0.2804,-0.19318 -0.62901,-0.1732 -0.75624,0.0433 -0.31637,0.26449 -0.65871,0.53079 -0.99781,0.78685 -0.15234,0.30452 -0.37202,0.29375 -0.51714,-0.0254 -0.15801,-0.34749 -1.01158,-0.82001 -1.22586,-0.67862 -0.45967,0.12466 -0.59992,0.54493 -0.8873,0.86598 -0.0883,0.18008 -0.17906,0.20829 -0.67045,0.20829 -0.50354,0 -0.6072,0.0343 -0.90916,0.30085 -0.21368,0.18862 -0.44328,0.30086 -0.61547,0.30086 -0.2126,-0.27272 -0.61876,-0.48701 -0.88187,-0.74057 -0.60963,0.25532 -1.02039,0.75194 -1.42538,1.24971 -0.26909,0.26089 -0.62229,0.29939 -0.84934,0.0926 -0.20358,-0.18543 -0.56404,-0.17645 -0.64514,0.0161 -0.1711,0.40612 -0.41005,0.50069 -1.10199,0.43612 -0.56241,-0.0525 -0.65212,-0.0852 -0.60486,-0.22087 0.11443,-0.3284 -0.70008,-0.79092 -1.01841,-0.5783 -0.17132,0.11443 -0.35354,0.56773 -0.35519,0.88362 -8.6e-4,0.16307 -0.0366,0.34668 -0.0794,0.40803 -0.0855,0.12249 -0.68034,0.0873 -0.86996,-0.0514 -0.0639,-0.0468 -0.26167,-0.11335 -0.43945,-0.14795 -0.38935,0.15049 -0.75506,0.14321 -1.18435,0.25753 -0.60446,-0.0514 -0.6606,-0.0389 -0.98945,0.21966 -0.19174,0.1508 -0.50099,0.35399 -0.68721,0.45155 -0.31163,0.16324 -0.33383,0.2048 -0.27875,0.52192 0.0515,0.29632 0.0245,0.36565 -0.19253,0.4952 -0.13883,0.0829 -0.42301,0.15691 -0.63153,0.16458 -0.3554,0.0901 -0.53726,0.29786 -0.83407,0.46242 -0.41365,-0.30555 -0.37207,-0.24278 -0.7401,-0.48293 -0.13013,0.0653 -0.31634,0.10756 -0.41378,0.094 -0.51954,0.53079 -1.19122,0.86525 -1.81428,1.18665 -0.65007,0.004 -0.78064,0.0941 -1.0902,0.75191 -0.24912,0.52943 -0.67015,0.73038 -1.17906,0.56276 -0.53805,-0.17722 -0.77,-0.1416 -0.77,0.11823 0.20645,0.40444 0.15872,0.83359 0.19934,1.29541 0.10812,0.42519 -0.0101,0.70032 -0.30097,0.70032 -0.26315,0 -0.40652,-0.27128 -0.40652,-0.7692 0,-0.22609 -0.0286,-0.54126 -0.0635,-0.70036 -0.0562,-0.25593 -0.10336,-0.28928 -0.40904,-0.28928 -0.26126,0 -0.36962,0.0508 -0.44439,0.20828 -0.0544,0.11456 -0.15336,0.27751 -0.21997,0.36211 0.0654,0.62971 -0.067,1.20193 -0.13268,1.81581 -0.0252,0.51688 -0.13556,0.66455 -0.49857,0.66722 -0.17951,10e-4 -0.18882,-0.056 -0.1341,-0.82522 l 0.0588,-0.82662 c -1.28713,-0.28576 -1.32888,0.0803 -1.15506,1.24414 0.13951,0.25047 0.25385,0.56996 0.25408,0.70997 3.7e-4,0.22056 -0.0398,0.25457 -0.30089,0.25457 -0.1973,0 -0.33886,-0.0639 -0.4101,-0.18514 -0.0598,-0.10183 -0.19344,-0.18514 -0.29692,-0.18514 -0.14494,0 -0.20382,0.0952 -0.25637,0.41441 -0.0851,0.51709 -0.20108,0.58562 -0.57019,0.33706 -0.35723,-0.24058 -0.77425,-0.25737 -0.84542,-0.034 -0.0284,0.0891 -0.0823,0.40027 -0.11982,0.69151 -0.0749,0.58206 -0.14587,0.66766 -0.62103,0.74952 -0.39492,0.0681 -0.58692,-0.0923 -0.39569,-0.33055 0.0715,-0.089 0.10804,-0.26618 0.0813,-0.3937 -0.0268,-0.12751 0.002,-0.28748 0.064,-0.35548 0.062,-0.068 0.13269,-0.44494 0.15718,-0.83764 l 0.0445,-0.71402 -0.27226,0.019 c -0.53293,0.19522 -0.64585,-0.29458 -1.0416,-0.47509 -0.37625,-0.17484 -0.46395,-0.18195 -0.97013,-0.0788 -0.63214,0.12885 -0.76265,0.24019 -0.4925,0.42012 0.52533,-0.0563 0.63746,0.0321 1.09995,0.0554 0.0417,0.14389 -0.001,0.25122 -0.13919,0.34714 -0.17951,0.12485 -0.18748,0.1762 -0.079,0.50914 0.0664,0.20366 0.2186,0.51608 0.33828,0.69428 0.27885,0.41516 0.42692,1.62005 0.20846,1.6964 -0.28995,0.10136 -0.45449,-0.15523 -0.50205,-0.78292 -0.0256,-0.33767 -0.0997,-0.70451 -0.16479,-0.81521 -0.12761,-0.2172 -0.48576,-0.37817 -0.68658,-0.30859 -0.23141,0.0802 -0.24938,0.60862 -0.0413,1.21524 0.22437,0.6542 0.20395,0.80312 -0.12092,0.88222 -0.29351,0.0715 -0.47572,-0.15992 -0.47572,-0.60412 0,-0.28571 -0.0607,-0.39009 -0.33989,-0.58402 -0.19069,-0.13248 -0.47441,-0.23614 -0.64634,-0.23614 -0.29142,0 -0.30504,-0.017 -0.27797,-0.34714 0.0157,-0.19093 0.0576,-0.41467 0.0932,-0.49721 -0.0525,-0.50249 -0.58158,-0.57901 -0.84579,-0.77463 -0.0668,0.0608 -0.19824,0.96431 -0.21052,1.44707 -0.01,0.38363 0.18676,0.51351 0.50395,0.33308 0.30732,-0.17482 0.55063,0.0165 0.57366,0.45104 0.0105,0.19788 0.0635,0.54665 0.11777,0.77505 0.0543,0.2284 0.0613,0.47903 0.0155,0.55695 -0.0497,0.0846 -0.027,0.23429 0.0565,0.37157 0.15239,0.25076 0.20022,1.20191 0.0605,1.20191 -0.0476,0 -0.22629,-0.0444 -0.39718,-0.0987 -0.35741,-0.11349 -0.46452,-0.37219 -0.37209,-0.89873 0.0913,-0.51994 -0.10986,-1.08624 -0.46841,-1.31879 -0.30211,-0.35054 -0.39628,0.11322 -0.67151,0.19186 -0.36425,0.12614 -0.32144,0.61966 0.1155,1.33133 0.29907,0.48713 0.3557,0.67004 0.3557,1.14903 0,0.53812 -0.0134,0.56967 -0.24163,0.56967 -0.3349,0 -0.50771,-0.22067 -0.43438,-0.55463 -0.18553,-0.38411 -0.70836,-1.24698 -0.84845,-1.42905 0,-0.14653 -0.44753,-0.79344 -0.54889,-0.79344 -0.30371,0 -0.41081,0.26792 -0.28219,0.70595 0.0861,0.29332 0.0905,0.46664 0.0152,0.59493 -0.13392,0.22795 0.0219,0.80014 0.30812,1.13162 l 0.87027,1.21193 -0.19186,0.35319 c -0.10551,0.19426 -0.23021,0.35321 -0.27709,0.35321 -0.12213,0 -0.40167,-0.38543 -0.40167,-0.55383 0,-0.20936 -0.48491,-0.64959 -0.71553,-0.64959 -0.17176,0 -0.19914,0.065 -0.19914,0.47264 0.0888,0.65515 0.18374,1.31553 0.28484,1.96639 l -0.0308,0.38437 -0.40911,-0.0291 c -0.40739,-0.0289 -0.40963,-0.0273 -0.53316,0.39342 -0.0682,0.23237 -0.1688,0.4225 -0.22348,0.4225 -0.0547,0 -0.17498,-0.13311 -0.26734,-0.29579 -0.14135,-0.24898 -0.1498,-0.36731 -0.0534,-0.74763 0.2496,-0.98496 0.11041,-1.37044 -0.42758,-1.18412 -0.55801,0.19323 -0.67909,0.75418 -0.30626,1.41873 0.22059,0.39316 0.30257,1.66346 0.11644,1.80416 -0.11714,0.0885 -0.18801,0.0861 -0.33447,-0.0114 -0.14353,-0.0956 -0.18888,-0.25856 -0.19921,-0.71585 -0.0112,-0.49439 -0.11579,-1.05811 -0.32115,-1.7305 -0.0259,-0.0847 -0.1415,-0.10222 -0.39207,-0.0594 -0.30469,-0.34876 -1.02085,-0.18098 -1.02593,-0.18188 0.0377,0.13684 0.0152,0.29623 -0.0523,0.37028 -0.0136,0.10958 0.33916,0.27334 0.53965,0.43491 -0.22979,0.2681 -0.21662,0.55868 0.0378,0.83409 0.18912,0.20471 0.24639,0.36088 0.22356,0.60953 -0.0267,0.29033 -0.0641,0.33312 -0.28478,0.3253 -0.13974,-0.005 -0.33411,-0.0407 -0.43193,-0.0793 -0.16957,0.082 -0.33792,0.88444 -0.37917,1.06033 -0.24721,0 -0.37083,0.36611 -0.21384,0.63329 0.12483,0.21247 0.15085,1.18436 0.0335,1.25043 -0.0422,0.0238 -0.19968,0.0218 -0.34988,-0.004 -0.26391,-0.046 -0.27139,-0.0642 -0.22277,-0.54365 l 0.0503,-0.4961 -0.37343,-0.14211 c -0.6817,-0.25944 -1.01155,-0.11568 -0.7512,0.32742 0.16181,0.2754 0.25742,1.9373 0.11145,1.9373 -0.0595,0 -0.15718,-0.0833 -0.21701,-0.18515 -0.25014,-0.4257 -0.6327,-0.10714 -0.70989,0.59113 -0.0438,0.39584 -0.0857,0.47344 -0.2556,0.47344 -0.22879,-0.25249 -0.34443,-1.10141 -0.40653,-1.4117 -0.11179,-0.0127 -0.30611,0.0499 -0.43181,0.13918 -0.0669,0.54963 -0.32228,1.27634 -0.45762,1.67236 -0.20757,-0.0268 -0.23126,-0.0868 -0.25855,-0.65441 -0.022,-0.45791 -0.0677,-0.62485 -0.17101,-0.62485 -0.1553,0 -0.2067,0.12151 -0.31261,0.73905 -0.0755,0.44042 -0.48343,1.01979 -0.71796,1.01979 -0.21292,0 -0.1743,-0.55462 0.0743,-1.06642 0.18223,-0.46972 0.19496,-0.99646 0.24184,-1.49168 0.20175,-0.43979 0.0988,-0.6647 -0.34063,-0.74443 -0.29484,-0.0109 -0.57886,-0.0792 -0.86664,-0.11863 -0.38847,-0.20368 -0.31848,-0.685 -0.40976,-1.07574 0.17357,-0.45389 -0.45246,-0.29245 -0.70582,-0.45621 -0.40253,-0.54605 -0.8097,0.20493 -0.91667,0.232 -0.0506,0.28798 -0.10992,0.37028 -0.26707,0.37028 -0.1802,0 -0.20206,-0.0629 -0.20206,-0.58111 0,-0.64311 -0.16151,-0.94752 -0.57956,-1.09229 -0.14861,-0.0515 -0.23266,-0.13901 -0.2024,-0.21084 0.09,-0.21374 -0.10276,-0.39597 -0.30747,-0.29057 -0.0995,0.0512 -0.38675,0.0919 -0.63829,0.0903 -0.4538,-0.003 -0.45708,-0.005 -0.42426,-0.30145 0.0278,-0.25074 -9.7e-4,-0.29861 -0.17924,-0.29861 -0.42258,0.25762 -0.69051,0.0324 -1.0879,0.0496 -0.37483,0.0964 -0.90228,0.0732 -1.15696,-0.051 -0.50347,-0.34807 -0.48193,0.35235 -0.66564,0.48667 -0.0674,0.0614 -0.65124,-0.22215 -0.65221,-0.31674 -0.001,-0.13112 -0.32826,-0.35375 -0.51947,-0.35375 -0.10969,0 -0.33355,0.12497 -0.49747,0.27771 -0.34999,0.32612 -0.80355,0.37704 -0.88333,0.0992 -0.0353,-0.12287 -0.17665,-0.19782 -0.4535,-0.24043 -0.33425,-0.0514 -0.46662,-0.0213 -0.78314,0.17854 -0.45574,0.13659 -0.96562,0.35664 -1.36475,0.47931 -0.12152,0.21125 -0.20708,0.24134 -0.74007,0.26029 -0.91426,0.0325 -1.30047,0.30299 -1.76414,1.23558 -0.0974,0.19584 -0.14468,0.20412 -0.85376,0.14953 -0.89461,-0.0914 -1.29513,0.66212 -2.15978,0.98542 -0.50981,0.0459 -0.78273,0.44328 -1.05895,0.68558 0,0.29152 -0.0349,0.32613 -0.46311,0.45903 -0.64084,0.19889 -1.35807,0.62898 -1.36253,0.81706 -0.005,0.21816 -0.0519,0.23379 -1.07571,0.35994 -0.65055,0.007 -1.19168,0.3101 -1.74642,0.54808 -0.18481,0.19661 -0.81934,0.259 -0.99781,0.0981 -0.0603,-0.0544 -0.3624,-0.0197 -0.80576,0.0926 -0.88028,0.22294 -1.23231,0.22748 -1.36457,0.0176 -0.39718,0.0521 -0.98794,-0.0354 -1.44369,-0.0638 -0.1805,-0.13835 -0.48145,-0.24691 -0.7769,-0.28024 -0.26524,-0.0299 -0.81073,-0.0975 -1.21219,-0.15018 -0.40146,-0.0527 -0.92588,-0.0982 -1.16539,-0.10123 -1.04868,-0.0259 -1.82269,-0.32095 -2.67965,-0.90881 -0.89364,-0.0368 -0.63252,-0.40075 -0.99119,-0.96045 l -0.58248,-0.35025 0,-0.67444 c 0,-0.49626 -0.047,-0.73294 -0.17786,-0.89586 -0.36885,-0.45922 -0.43193,-0.65251 -0.43193,-1.32356 0,-0.68325 0.002,-0.68965 0.27949,-0.71868 0.25873,-0.0271 0.28593,-0.0705 0.36644,-0.58472 0.10155,-0.64868 0.10221,-0.74035 0.008,-1.11085 -0.37966,-0.46946 -0.76311,-0.96012 -1.17482,-1.40103 -0.26998,-0.26175 -0.18592,-0.49667 0.17773,-0.49667 0.18499,0 0.39059,0.11422 0.63838,0.35465 0.20102,0.19506 0.44553,0.38121 0.54335,0.41366 0.16913,0.48881 0.69228,0.33948 0.98804,0.48454 0.17348,-0.70869 0.11446,-1.48584 0.0636,-2.20303 0.22537,-0.2053 0.95825,0.71355 1.2346,1.54789 0.16733,0.50518 1.34761,0.97975 2.04191,0.82103 0.20267,-0.0463 0.23107,-0.0984 0.18723,-0.34325 -0.0284,-0.15875 -0.11251,-0.44485 -0.18687,-0.63578 -0.11899,-0.30555 -0.17512,-0.34714 -0.46854,-0.34714 -0.27009,0 -0.35351,-0.0483 -0.43955,-0.2544 -0.23098,-0.23422 -0.26053,-0.58924 -0.37301,-0.84365 -0.15879,-0.0904 -0.176,-0.93188 -0.0291,-1.42475 0.11597,-0.39738 0.46623,-0.61141 0.69662,-0.91353 0.0192,-0.15024 0.12575,-0.28067 0.28242,-0.34569 0.57646,-0.6139 1.16542,-1.13192 1.70739,-1.67498 0.39789,-0.15535 0.46974,-0.21666 0.37534,-0.32027 -0.15534,-0.0503 -0.43613,-0.13769 -0.49526,-0.15636 1.0308,-0.85859 1.65195,-1.76656 1.87521,-3.04573 0.0343,-0.43438 0.007,-0.65176 -0.0987,-0.78171 -0.36806,-0.2034 -0.97934,0.11116 -1.4279,0.21942 -0.81672,0.36393 -1.36378,0.95434 -2.19847,1.35115 -0.33486,0.25115 -0.71638,0.52073 -1.07054,0.75082 -0.65221,0.66831 -1.50725,1.09029 -2.24312,1.64645 -0.32951,0.14857 -0.70819,0.34644 -0.8415,0.43971 -0.86585,0.29065 -1.72559,0.5575 -2.61545,0.76679 -0.31951,0.0832 -0.56565,0.45478 -0.70896,0.57 0.0333,0.12174 0.0887,0.33589 0.12313,0.4759 0.17259,0.27089 0.26187,0.56819 0.39482,0.85665 0.0422,0.22757 0.13918,0.57495 0.21549,0.77198 0.0763,0.19701 0.11351,0.39543 0.0826,0.44093 -0.0924,0.13621 -0.4525,0.0935 -0.51777,-0.0615 -0.60603,-0.22042 -1.10517,-0.66544 -1.60426,-1.11845 -0.16048,-0.29568 -0.51961,-0.41837 -0.76775,-0.61816 0,-0.15175 -0.55305,-0.61346 -1.01631,-0.84845 -0.19564,-0.0992 -0.58437,-0.21023 -0.86386,-0.24664 -0.27948,-0.0364 -0.6398,-0.0958 -0.80069,-0.13193 -0.1609,-0.0362 -0.67822,-0.0111 -1.14959,0.0557 -0.82994,0.1176 -0.88174,0.11392 -1.63843,-0.11632 -0.42978,-0.13076 -1.0558,-0.29023 -1.39118,-0.35436 -0.58061,-0.24381 -1.12868,-0.39634 -1.73152,-0.56828 -1.39207,-0.24732 -2.55339,-0.7736 -3.67309,-1.61162 -0.2336,-0.21809 -0.60391,-0.47979 -0.82293,-0.58156 -0.21902,-0.10178 -0.4678,-0.28178 -0.55285,-0.40002 -0.19949,-0.27732 -0.37898,-1.0427 -0.27905,-1.18997 0.13899,-0.20485 0.40264,-0.0169 0.40264,0.28697 0,0.24438 0.0338,0.28265 0.22763,0.25747 0.34499,-0.0448 0.35358,-0.35498 0.0166,-0.59973 l -0.28682,-0.20832 0.24872,-0.0838 c 0.15649,-0.0527 0.31014,-0.0489 0.41436,0.0104 0.2364,0.13448 0.48048,0.02 0.55813,-0.26181 0.10205,-0.37036 -0.0638,-0.44985 -0.63303,-0.30342 -0.34768,0.0894 -0.50385,0.18066 -0.52926,0.30913 -0.0617,0.31189 -0.20595,0.36581 -0.31024,0.11595 -0.0885,-0.21192 -0.16308,-0.23906 -0.75115,-0.27317 -0.62707,-0.0289 -1.15611,-0.36042 -1.70068,-0.64393 -0.4059,-0.29371 -0.81835,-0.60949 -1.18792,-0.96672 C 0.37806,115.35971 0,114.65274 0,114.0698 c 0,-0.33441 0.063,-0.46402 0.37693,-0.77498 0.32859,-0.26738 0.6464,-0.51974 0.98267,-0.77929 0.3756,-0.12138 0.68079,-0.4461 0.9779,-0.64078 0,-0.0722 0.40238,-0.27057 0.94816,-0.46734 1.05466,-0.38022 1.45886,-0.72052 1.34529,-1.13267 0.27521,-0.60235 0.84669,-1.04183 1.30752,-1.48063 0.56902,-0.54427 1.06597,-1.18919 1.53137,-1.85682 0.44371,-0.1625 0.71564,-0.89925 1.06712,-1.38308 0.91041,-0.66801 1.33663,-1.45778 2.14798,-2.24254 0.25549,-0.41025 0.60775,-0.73393 0.90094,-1.09468 0.22549,-0.49775 0.59381,-0.9479 0.9124,-1.38486 0.004,-0.16171 0.35493,-0.40778 0.5822,-0.40778 0.2637,0 0.41743,-0.16828 0.50088,-0.54834 0.33366,-0.47709 0.82457,-0.94642 1.17575,-1.39564 0.13565,0 0.24674,-0.11089 0.34927,-0.34862 0.56801,-0.63662 0.98095,-1.41371 1.52302,-2.03129 0.41544,-0.47331 0.81737,-0.92597 1.20675,-1.41549 0.41256,-0.47384 0.67727,-0.89109 1.01509,-1.38857 0.0815,-0.12728 0.21865,-0.36681 0.30475,-0.53228 0.4335,-0.36587 0.56977,-0.84723 0.82627,-1.33983 0.41089,-0.7891 0.57383,-1.2586 0.55746,-1.80399 0.19226,-0.35758 0.18633,-0.76743 0.24742,-1.01905 -0.14704,-0.075 -0.49317,-1.66177 -0.39435,-1.80794 0.19555,-0.12866 0.27591,0.18721 0.44339,0.30085 0.4873,-0.19 -0.19586,-0.71521 -0.2535,-0.9257 -0.22374,0 -0.19111,-0.12193 0.0991,-0.37029 0.30071,-0.25731 0.31512,-0.37697 0.0762,-0.63278 -0.11909,-0.12752 -0.32898,-0.20059 -0.63519,-0.22117 -0.52416,-0.0445 -0.7223,-0.53395 -1.01965,-0.91412 -0.31109,-0.34409 -0.55165,-0.85542 -0.76612,-1.16371 0.0387,-0.14405 0.0973,-0.38685 0.13028,-0.53957 0.0264,-0.602 0.34889,-1.08955 0.54676,-1.57641 0.38144,-0.37824 0.65333,-0.9237 0.90547,-1.41924 0,-0.0721 0.25153,-0.47186 0.55896,-0.8884 0.35141,-0.38926 0.5249,-0.87061 0.77324,-1.31618 0.0617,-0.54051 0.35576,-0.85986 0.54683,-1.35147 0.20728,-0.63577 0.41367,-0.9003 0.70244,-0.9003 0.77388,-1.64549 1.70513,-3.20133 2.49839,-4.86089 0.53285,-0.99532 0.91163,-1.34591 1.31021,-1.94944 0.39858,-0.60353 0.651,-0.83846 0.92732,-1.50048 0.11089,-0.32247 0.35712,-0.58087 0.53522,-0.87057 0.4001,-0.11127 0.66988,-0.44123 1.01714,-0.64857 0.15358,-0.0203 0.23824,-0.11662 0.28448,-0.32383 0.56372,-1.07024 1.64245,-1.78879 2.30668,-2.72346 0.287,-0.27423 0.60842,-0.63238 0.90774,-0.92433 0.16639,-0.96803 -0.15533,-1.89849 -0.43562,-2.81376 -0.13147,-0.18275 -0.15378,-0.34413 -0.0996,-0.72003 0.0384,-0.26648 0.0854,-0.62452 0.1045,-0.79567 0.0191,-0.17113 0.11753,-0.45131 0.21881,-0.62262 -0.003,-0.72914 0.135,-1.33196 0.24353,-1.88732 0.17183,-0.58884 0.39204,-1.16882 0.63873,-1.7755 0.0906,-0.0825 0.17336,-0.44513 0.21948,-0.96161 0.0574,-0.64236 0.12061,-0.87502 0.28071,-1.03273 0.18985,-0.33396 0.32921,-0.69942 0.48583,-1.0684 0.49335,-0.73132 1.27284,-1.45697 1.79339,-2.35143 0.26271,-0.36139 0.63597,-0.58176 0.95541,-0.8744 0.41061,-0.25392 0.92227,-0.55226 1.49049,-0.53686 0.56822,0.0154 1.37547,0.32245 2.01534,0.42718 0.25272,0.25695 0.65045,0.79566 0.71918,0.97408 0.52097,0.21831 1.08993,0.48497 1.60414,0.76105 0.675,0.42567 1.24841,0.97222 1.76295,1.47133 1.13306,0.66021 1.66088,0.95427 2.66656,1.25516 0.5333,0.11047 0.89637,-0.21497 1.33176,-0.45585 0.12795,0 0.61315,-0.11286 1.0782,-0.25081 0.49459,-0.18199 1.24082,-0.15011 1.55331,-0.16204 0.65946,-0.18163 0.93175,-0.71328 1.26708,-1.03079 0.0735,-0.23962 0.30445,-0.27946 0.45785,-0.42026 0.2806,-0.0891 0.29915,-0.12446 0.27948,-0.53289 -0.0131,-0.47329 0.31277,-0.8538 0.53854,-1.24371 0.13332,-0.47865 0.35365,-0.94216 0.5457,-1.40461 0.13704,-0.46395 0.46776,-0.71705 0.73598,-1.04367 0.37562,-0.60273 0.77178,-1.15027 1.07935,-1.78224 0.18097,-0.17682 0.37571,-0.40301 0.43274,-0.50263 0.69797,-0.55582 1.10485,-1.03485 2.02408,-1.46506 0.68542,-0.27001 1.22602,-0.75468 1.77864,-1.22039 0.72287,-0.071 1.58187,0.23395 2.40895,0.31788 0.19306,0.1544 0.43507,0.28072 0.53782,0.28072 0.79461,0.32759 1.47598,0.81799 1.97296,1.23763 l 0.46887,-0.0585 c 3.1e-4,0.72095 0.43527,0.71811 0.87934,1.12233 0.16306,0.0687 0.25347,0.26392 0.3913,0.84494 0.15816,0.66676 0.21688,0.77703 0.49935,0.93774 0.49474,0.28147 1.5624,0.0761 2.14018,-0.4116 0.25533,-0.21554 0.83494,-0.44808 1.4067,-0.56435 0.3097,-0.20223 0.38221,-0.61004 0.58438,-0.93273 0.49368,-0.33087 0.77028,-0.61642 1.0984,-1.13074 0.25574,-0.29035 0.35949,-0.37613 0.59669,-0.62432 -0.40152,-0.0797 -0.29393,-0.2434 0.30469,-0.46363 0.47245,-0.48532 0.86034,-0.13269 1.30318,-0.17533 0.15227,-0.0532 0.1546,-0.19785 0.013,-0.80956 0.36954,-0.64649 0.99903,-0.73446 1.56674,-0.98703 0.51653,0 0.91021,-0.19133 0.91021,-0.44237 0,-0.063 0.0693,-0.13882 0.15397,-0.16843 0.85641,-0.69271 1.71127,-1.39216 2.5434,-2.12376 0.0536,-0.11093 0.16607,-0.2099 0.24991,-0.21992 0.0838,-0.01 0.50688,-0.0451 0.94008,-0.0779 0.78642,-0.0596 0.94234,-0.15183 0.61967,-0.36674 -0.24166,-0.16096 -0.0908,-0.3097 0.43673,-0.4307 0.25966,-0.0596 0.48152,-0.17039 0.50946,-0.25452 0.68936,-0.6985 1.59202,-1.13617 2.39982,-1.67798 1.22317,-0.57003 2.33442,-0.71796 3.36355,-1.58327 0.47686,-0.1922 1.01022,-0.53781 1.38352,-0.77635 0.27013,0.0781 0.93726,0.0828 1.1945,0.008 0.42183,-0.28066 0.73656,-0.7129 1.06813,-1.09649 0.097,-0.40196 0.49057,-0.5057 0.69504,-0.71648 0.0698,0.44654 0.66181,0.34189 0.89003,0.45979 0.0423,-0.11382 0.21534,-0.26597 0.56404,-0.49591 0.22308,-0.255 0.44784,-0.48658 0.67265,-0.73085 0.0203,-0.31798 0.492,-0.17363 0.54888,-0.1937 0.0296,0.0701 0.18811,0.12753 0.35235,0.12753 0.23251,0 0.38971,-0.0991 0.7101,-0.44766 l 0.41149,-0.44768 0.55484,0.0419 c 0.52168,0.0394 0.55688,0.0288 0.58887,-0.17718 0.0221,-0.14226 0.11186,-0.22919 0.25599,-0.24788 0.1515,-0.0196 0.24286,-0.11548 0.28781,-0.30193 0.13621,-0.56485 1.16834,-1.00109 1.29821,-0.54871 0.0292,0.10183 0.12789,0.18514 0.21924,0.18514 0.16294,0 0.71629,-0.31427 0.91891,-0.52189 0.12712,-0.13026 0.92983,-0.23442 1.69161,-0.2195 0.50784,0.01 0.59682,-0.0169 0.78764,-0.23789 0.11832,-0.13701 0.21512,-0.32893 0.21512,-0.42649 0.59105,-0.5049 1.51365,-0.74969 2.2774,-1.03259 0.34572,-0.17009 0.74979,-0.33695 0.89791,-0.37082 0.94814,-0.56986 1.76392,-1.34967 2.59189,-2.0519 0.054,-0.088 0.43066,-0.19639 1.01354,-0.29178 0.73285,-0.11995 0.93786,-0.18772 0.97666,-0.32288 0.0279,-0.097 0.14037,-0.17107 0.25995,-0.17107 0.13964,0 0.23219,-0.0775 0.27406,-0.2294 0.0815,-0.29566 0.53463,-0.5107 0.82636,-0.39212 0.2978,0.12103 1.03278,-0.18031 1.10831,-0.45441 0.0715,-0.25928 1.03669,-0.71935 1.21942,-0.58122 0.60136,0.03 0.91985,-0.86654 1.05505,-1.13409 0.1352,-0.26755 0.0879,-0.32209 0.43012,-0.55176 0.3422,-0.22967 0.78445,-0.33586 1.36118,-0.43224 0.91187,-0.0434 0.93993,-0.0517 1.36126,-0.40254 0.2366,-0.197 0.48743,-0.35819 0.55739,-0.35819 0.44088,0 1.26994,-0.51553 1.26994,-0.78968 0,-0.0624 0.0686,-0.16521 0.15245,-0.2286 0.0838,-0.0634 0.15245,-0.19345 0.15245,-0.28904 0,-0.10645 0.0718,-0.17381 0.18521,-0.17381 0.17098,0 0.72946,-0.64421 0.72946,-0.84144 0,-0.0463 0.0879,-0.0843 0.19537,-0.0843 0.13318,0 0.23276,-0.10315 0.31278,-0.324 0.12498,-0.34493 0.15803,-0.36026 0.71328,-0.33108 0.51855,0.0273 0.87413,-0.12691 1.13786,-0.49337 1.50978,-1.2281 3.00721,-2.01055 4.65321,-2.76544 0.25154,-0.25196 0.63415,-0.56106 0.85026,-0.68689 0.52054,-0.59456 1.23847,-0.82942 1.91077,-1.10774 0.5727,-0.10882 1.13638,-0.34602 1.68662,-0.54943 0.44253,-0.2285 0.869,-0.52089 1.2855,-0.81121 0.1733,-0.1204 0.54349,-0.26454 0.82263,-0.32032 0.7188,-0.14361 1.58457,-0.43643 1.67219,-0.56557 0.0409,-0.0603 0.28162,-0.12496 0.53494,-0.14376 0.6966,-0.0517 1.20024,-0.20356 1.69675,-0.51162 0.39305,-0.24386 0.50778,-0.27151 0.91991,-0.22172 0.40409,0.0488 0.51334,0.0245 0.77051,-0.17136 0.60692,-0.47254 1.29482,-0.53836 2.02589,-0.65634 0.11723,0.14602 0.48648,0.21771 1.27187,0.2469 0.46389,0.15039 0.46476,-0.30118 0.75624,-0.49006 0.28981,-0.10036 1.45397,-0.14887 1.54666,-0.0644 0.1356,0.1235 0.30892,0.0582 0.41651,-0.15682 0.12955,-0.25897 0.5367,-0.35374 0.93355,-0.2173 0.68581,-0.0515 1.39164,-0.49009 2.06832,-0.74969 0.36166,-0.21801 0.41944,-0.22715 0.7153,-0.11316 0.46427,0.17886 1.56026,0.0885 2.08444,-0.17183 0.36997,-0.28868 0.96568,-0.0979 1.03225,-0.10464 0,0.55509 0.27696,0.59539 0.80968,0.11782 0.28645,-0.20845 0.5263,-0.47508 0.78511,-0.70869 0.0452,-0.0731 0.20788,-0.16151 0.36159,-0.19654 0.2584,-0.0589 0.27949,-0.0427 0.27949,0.21447 0,0.20251 0.0977,0.35628 0.35924,0.56546 0.83331,0.44293 1.79943,-0.10145 2.77605,-0.0598 1.08539,0.12893 2.14408,0.14338 3.22632,0.38687 0.75983,0.26659 0.99822,-0.17452 1.58457,-0.47944 0.68613,0.10362 0.42102,-0.11941 1.0608,-0.30086 0.54755,0.21186 0.93663,0.23282 1.43555,0.40051 0.84162,-0.27229 0.92678,0.16778 1.53533,0.44354 0.29694,0.0893 0.39944,0.0748 0.75322,-0.10631 0.59552,-0.19917 1.2415,-0.11917 1.89117,-0.19667 0.23023,0.0628 0.49875,0.19015 0.59668,0.28292 0.26389,0.24998 1.26349,0.32007 1.72233,0.12076 l 0.35585,-0.15456 c 0.2668,0.46622 0.69564,0.56636 1.10018,0.84828 0.68844,0.37623 0.6708,-0.11887 1.16057,-0.24991 0.43866,0 0.50476,0.099 0.47372,0.70945 0.002,0.78468 0.34087,0.58293 1.03657,0.75978 1.1358,-0.0953 2.167,0.2543 3.2889,0.14627 0.21789,0.0498 0.24395,0.10244 0.22405,0.45247 -0.17011,0.45595 0.051,0.71805 0.0663,0.93276 0.16526,0.0378 0.48847,-0.0262 0.91148,-0.18029 0.46154,-0.16819 0.79916,-0.23045 1.14135,-0.2105 l 0.57839,0.46415 c 0.11056,0.52116 0.38181,0.65109 1.17956,0.56503 0.45741,-0.0494 0.53227,-0.0306 0.75632,0.18961 0.26242,0.25792 0.80381,0.3318 1.15978,0.15828 0.21075,-0.10274 0.2964,-0.0545 0.59762,0.33693 0.29963,0.44953 0.0214,0.2917 0.0508,0.69249 0.0763,0.0874 0.37071,0.16972 0.73682,0.20601 0.84434,0.0566 1.60032,0.51491 2.28756,0.84149 0.35648,0.67759 1.10132,0.86706 1.76077,1.10879 0.15615,0.42074 0.5472,0.0716 0.71922,0.0941 0.0807,-0.29301 0.24338,-0.2928 0.59098,7.8e-4 0.24417,0.20622 0.29587,0.50836 0.087,0.50836 -0.0394,0 -0.16787,0.0817 -0.28554,0.18155 -0.52263,0.40193 0.23044,0.56773 0.3353,0.82607 -0.16967,0.25006 1.13892,0.49757 1.55592,0.29429 0.32389,-0.15789 0.65272,-0.0394 0.58592,0.2111 -0.0923,0.34631 0.24544,0.59808 0.93888,0.6998 0.80532,0.0834 1.15511,0.70219 1.81517,1.16519 1.091,0.31172 1.98878,0.69687 3.0432,0.92055 0.88246,0.0649 1.77155,0.39492 2.50665,0.61048 0.11346,0.20314 0.18379,0.22573 0.6303,0.20247 0.27644,-0.0144 0.73997,-0.0922 1.0301,-0.17293 0.50503,-0.1405 0.54614,-0.13843 0.96549,0.0484 0.62457,0.43288 1.2125,0.49087 1.94031,0.56664 0.57911,4e-4 1.02521,0.0514 1.27038,0.14531 1.61787,0.0832 3.22534,0.25312 4.85428,0.26855 0.46667,0.14432 0.52557,0.1409 1.64037,-0.0952 0.92729,-0.22682 1.84996,-0.1463 2.76898,-0.0437 0.14286,0.0696 0.47715,0.0453 1.22703,-0.0893 0.81837,-0.14027 1.64633,-0.2041 2.47082,-0.29009 0.46337,-0.0848 0.84762,-0.0743 1.98909,0.0543 1.04585,0.11777 1.46854,0.13309 1.621,0.0588 0.11343,-0.0553 0.33502,-0.10201 0.49241,-0.10381 0.55909,-0.11649 1.1086,-0.29565 1.6586,-0.43324 0.46646,-0.13126 0.95361,-0.24633 1.43443,-0.34834 0.63378,-0.23532 1.42302,-0.33827 2.49223,-0.32507 0.62911,-0.0788 1.25931,-0.33766 1.84888,-0.55635 0.22599,0 0.71615,-0.0645 1.08926,-0.1433 0.37311,-0.0788 0.9904,-0.1442 1.37174,-0.1453 0.54969,-0.003 1.05267,-0.19326 1.57546,-0.3466 1.04015,-0.26875 1.92389,-0.11966 2.95818,-0.51669 0.85013,-0.21648 1.70322,-0.29015 2.5756,-0.52597 0.67227,-0.2133 1.38658,-0.26752 2.08342,-0.36336 0.22359,-0.0599 0.72666,-0.13921 1.11794,-0.17631 0.87593,-0.0831 3.32856,-0.63678 3.42237,-0.77264 0.56274,-0.10433 1.1471,-0.19555 1.71434,-0.29815 0.2769,-0.13044 0.51246,-0.15133 1.26062,-0.11184 l 1.8135,-0.35848 c 0.49139,-0.22388 0.99621,-0.40705 1.12184,-0.40705 0.28023,0 1.21634,-0.29367 1.41512,-0.44393 0.30837,-0.0988 0.66968,-0.10024 1.00776,-0.15084 0.40975,-0.0813 1.47674,-0.18486 2.37109,-0.23007 0.88966,-0.15263 1.79548,-0.11805 2.66436,-0.14468 0.70351,0.19444 1.06053,0.17023 2.14155,-0.14518 0.89107,-0.25999 1.00761,-0.2735 1.52139,-0.17634 0.60609,0.11461 2.90635,-0.0405 3.14672,-0.21218 0.0682,-0.0487 0.86167,-0.1054 1.76327,-0.12595 1.09045,-0.0249 1.97297,-0.0993 2.63598,-0.22238 0.84008,-0.14128 1.23572,-0.10531 1.95244,-0.0279 0.24055,0.19828 2.99131,0.36736 3.47551,0.21361 0.16475,-0.0523 0.45421,-0.0687 0.64325,-0.0364 0.18904,0.0323 0.61679,0.006 0.95057,-0.0586 0.54752,-0.10584 0.64625,-0.10017 1.0096,0.058 0.38131,0.45789 0.76467,0.31812 1.24856,0.4901 1.61941,-0.068 3.09234,0.68628 4.73627,0.91124 0.32254,0.12309 0.63752,0.16413 1.78664,0.2328 0.16769,0.01 0.51947,-0.0143 0.78174,-0.054 0.41218,-0.0625 0.52933,-0.0415 0.86386,0.15427 0.56295,0.32949 1.06719,0.38952 1.3004,0.15478 0.28574,-0.2876 0.66737,-0.23719 1.00613,0.1329 1.00619,0.3159 1.8245,0.24984 2.80998,0.30371 0.75447,0.0111 1.47689,0.315 2.22568,0.4867 0.59179,-0.0754 0.9973,0.0986 1.55751,0.37141 0.23246,0.11348 0.57341,0.18514 0.88091,0.18514 0.68582,0.0525 1.21528,0.62634 1.73494,0.97545 0,0.20893 0.40354,0.34492 0.87873,0.29614 0.55238,0.12243 1.01223,0.28793 1.67952,0.38863 0.27718,0.2426 0.54737,0.38443 0.80906,0.42469 0.51297,0.27234 0.92742,0.27065 1.44427,0.38712 0.18168,0.37233 0.62065,0.33784 0.9006,0.49023 0.65113,0.0904 1.30286,0.27873 1.92672,0.46286 0.84561,0.3734 1.60134,0.81963 2.44149,1.16954 0.50076,0.0763 0.82459,0.41044 1.21986,0.72988 0.18504,0.0358 0.40504,0.11746 0.48888,0.18136 0.14537,0.11081 1.27437,0.2634 1.84378,0.2492 0.21463,-0.005 0.35723,0.10427 0.7106,0.54628 l 0.4421,0.55298 c 0.5325,-0.0398 1.06354,-0.0956 1.59501,-0.1463 0.39905,-0.0459 0.68088,0.11468 0.70777,0.40335 0.008,0.0855 0.0271,0.29568 0.0424,0.46713 0.0154,0.17146 0.0764,0.35585 0.13555,0.40973 0.0592,0.0539 0.46312,0.12189 0.89768,0.15111 0.85852,0.0194 1.3917,0.51196 2.08023,0.93255 0.31153,0.27065 0.62644,0.46286 0.75835,0.46286 0.12407,0 0.60571,0.10879 1.07031,0.24176 0.65958,0.18877 0.90803,0.31038 1.13358,0.55486 1.23852,0.69748 2.44488,0.92685 3.62392,1.80771 0.27205,0.26919 0.53506,0.50689 1.54217,0.68507 1.27281,-0.0509 0.54928,0.50753 1.00139,0.92528 0.12974,0.12579 0.33736,0.22871 0.46138,0.22871 0.89236,0.3857 1.72465,0.91988 2.5584,1.32661 0.15516,0.31016 0.73058,0.69494 1.15276,0.77081 0.51337,0.0923 1.00782,0.29717 1.00782,0.41764 0.65297,0.94775 1.59311,1.39452 2.66444,1.72135 l 0.58858,0.53196 c 0.40649,1.32224 1.67643,1.99488 2.54116,3.077 0.24659,0.11456 0.55343,0.20829 0.68188,0.20829 0.50113,0.023 0.73055,0.47081 1.03129,0.69317 0.31039,0.41879 0.59715,0.8903 0.89724,1.29929 0.0335,0.18814 0.20278,0.53539 0.37614,0.77166 0.25064,0.34159 0.41695,0.46031 0.812,0.57967 0.5234,0.0984 0.86302,0.50849 1.2346,0.76936 0.22163,0.48315 0.52148,0.73391 1.39034,1.16272 0.52499,0.58131 1.05266,1.13374 1.57059,1.69847 0.27884,0.2463 0.39081,0.58928 0.59554,0.89799 0.14144,0.17462 0.30613,0.46635 0.36597,0.64828 0.95269,0.65602 1.54239,1.89245 1.90429,2.74945 0.27216,0.11372 0.55216,0.26969 0.62224,0.3466 0.71373,0.075 0.71663,0.48422 1.11388,0.91687 0.15353,0.74007 0.69798,1.03054 1.22698,1.4831 1.20967,0.37643 1.36245,1.44551 1.91446,2.48847 0.0857,0.0915 0.32973,0.25537 0.54228,0.36418 0.55336,0.26782 0.78331,0.85152 1.09785,1.32207 0.4398,0.88775 1.36029,1.42424 1.91833,2.41645 0.22852,0.0959 0.44228,0.24723 0.47501,0.33633 0.41174,0.16508 0.62812,0.55106 0.96047,0.85313 0,0.21632 0.41551,0.79 0.5722,0.79 0.23047,0.1187 0.42509,0.335 0.6409,0.50507 0.44649,0.33412 0.54846,0.99695 0.69279,1.50405 0.68675,0.38847 1.12877,1.0023 1.64608,1.58169 0.79654,0.68129 0.69969,1.69708 1.14469,2.63486 0.21352,0.38499 0.48189,0.77422 0.70099,1.16145 0.15428,0.40233 0.40253,0.61978 0.60278,0.92812 0.36759,0.4132 0.77195,0.84192 1.11379,1.2404 4e-5,0.11581 0.14343,0.48134 0.31863,0.81228 0.17521,0.33094 0.40657,0.91414 0.51413,1.29599 0.10758,0.38185 0.25486,0.90256 0.3273,1.15713 0.0725,0.25457 0.25151,0.67114 0.39791,0.92571 0.3111,0.6827 0.70706,1.33603 1.04614,1.98704 0.21946,0.23757 0.25593,0.34908 0.20593,0.62973 -0.6499,0.58157 -0.0873,0.72115 -0.0975,1.23856 0.13932,0.9971 0.0846,1.79267 -0.17662,2.51514 -0.26123,0.72249 -0.72897,1.37188 -1.41572,2.07661 -0.0923,0.37559 -0.4711,0.35203 -0.71665,0.53552 -0.17667,0.19389 0.0289,1.02655 0.36478,1.47733 0.13637,0.18303 0.24794,0.37644 0.24794,0.42979 0.30377,0.46151 0.51245,0.97668 0.72072,1.48765 0.0488,0.60406 0.3055,1.12197 0.49884,1.67383 0.38054,0.36384 0.23772,0.88125 0.29977,1.31844 -0.15478,0.0871 -0.10938,0.41568 0.1499,1.08481 0.14294,0.46865 0.2832,0.86117 0.42622,1.32848 0.44453,1.17217 0.52791,2.24222 1.11361,3.35243 0.21174,0.34478 0.23897,0.4875 0.19882,1.04176 -0.0361,0.49828 -0.003,0.73557 0.14935,1.05848 0.29461,0.36054 0.45621,0.72457 0.71125,1.10605 0,0.16791 0.89099,1.56168 1.07984,1.68917 0.11213,0.59381 0.13767,1.28382 0.2574,1.93236 -0.49419,0.48672 -0.16603,0.87108 -0.21717,1.33821 0.42847,0.53768 0.54921,1.18944 0.76073,1.80571 0.18132,0.8062 0.34988,1.59847 0.4567,2.41604 0.12148,0.563 0.16331,1.12633 0.27758,1.67774 -0.0526,0.59656 0.14649,1.29538 0.41148,1.44456 0.11378,0.0641 0.29266,0.66992 0.37919,1.28433 0.20439,0.71431 0.65436,1.35011 1.00717,2.00714 0.21019,0.67965 0.0454,1.39505 0.099,2.1365 0.21436,0.38631 0.22956,0.5208 0.20924,1.85142 -0.16056,1.29675 -0.23104,2.27171 0.25758,3.44421 0.19655,0.31373 0.2463,0.92742 0.084,1.03642 -0.315,0.21157 -0.40244,0.49585 -0.28052,0.91216 0.3771,0.78654 0.14863,1.44796 0.25624,2.2726 0.0626,0.63589 0.16758,1.28921 0.26627,1.92647 0.27911,0.39804 0.25573,0.89748 0.29315,1.39012 0.0734,0.19686 0.13914,0.67503 0.1461,1.06257 0.14133,0.85531 0.21269,1.71895 0.20488,2.55515 0.0614,0.91491 0.03,1.76364 0.19272,2.64862 0.23797,0.37505 0.10468,1.15097 0.0955,1.50548 0.19886,0.32077 0.37303,0.74649 0.52129,1.12127 0.19563,0.32419 0.3557,0.6213 0.3557,0.66022 0,0.0389 -0.15557,0.12204 -0.34572,0.18466 -0.51384,0.16925 -0.62149,0.32488 -0.4641,0.67098 0.43152,0.33503 0.46706,0.79722 0.69472,1.23503 0.0485,0.0273 0.11199,0.24237 0.14115,0.47795 0.0291,0.23558 0.14202,0.53855 0.25083,0.67327 0.10881,0.1347 0.22996,0.36265 0.26924,0.50654 0.0583,0.21342 0.0239,0.29566 -0.18654,0.44643 -0.3755,0.26904 -0.29696,1.02005 0.12164,1.16316 0.3987,0.13628 0.53877,0.52341 0.31007,0.85697 0.0952,0.52855 0.43766,1.22089 0.63154,1.82134 0.35131,0.35513 0.20591,0.77937 0.30129,1.23004 0.0539,0.0918 0.11886,0.34938 0.14432,0.57248 0.12851,1.12639 0.2009,1.52706 0.29559,1.63612 -0.15011,0.31208 0.0713,0.58274 0.10764,0.87991 0.29045,0.2477 0.51151,0.82448 0.44233,1.1541 -0.0279,0.13316 0.036,0.48954 0.14205,0.79198 -0.0398,0.46097 0.33809,0.71433 0.49584,1.04765 0.29126,0.22323 0.58034,0.87338 0.46435,1.04433 0.007,0.24936 0.16623,0.47859 0.24835,0.71502 0.45138,0.39592 0.66785,0.97511 0.91523,1.52194 4e-5,0.0806 0.24385,0.29954 0.5418,0.48645 0.29794,0.18691 0.63177,0.43336 0.74185,0.54766 0.2894,0.30054 0.63322,1.16606 0.63414,1.59639 10e-4,0.5615 0.45751,1.42419 0.81299,1.53706 0.33859,0.21701 0.66226,0.4762 0.97985,0.7339 0.0705,0.20245 0.51522,0.64502 0.64809,0.64502 0.14438,0.29419 0.35443,0.57951 0.52433,0.8573 0.15028,0.0855 0.19855,0.21656 0.19855,0.53919 0.0867,0.50278 0.39254,0.93656 0.66848,1.37228 0.19176,0.20759 0.25719,0.37688 0.24422,0.63195 -0.0379,0.74503 0.005,0.92823 0.28634,1.22167 0.1564,0.16317 0.5245,0.73118 0.81801,1.26225 0.29351,0.53108 0.56572,0.96692 0.60491,0.96854 0.66375,0.37346 0.58561,1.13581 0.68893,1.84847 0.0345,0.28003 0.0917,0.5508 0.12711,0.60171 0.0354,0.0509 0.0912,0.38451 0.12395,0.74132 0.0503,0.54774 0.11782,0.72589 0.43386,1.14438 0.20586,0.2726 0.3743,0.52336 0.3743,0.55725 0,0.0339 -0.0969,0.13718 -0.21533,0.22954 -0.19283,0.15039 -0.20796,0.22753 -0.14476,0.738 0.0123,0.35522 0.21827,0.6705 0.31732,0.97478 -0.0345,0.0508 0.0121,0.58456 0.10345,1.18611 0.0914,0.60155 0.18028,1.51029 0.19757,2.01943 0.031,0.91342 0.16211,2.31942 0.30386,3.25927 0.0606,0.40193 0.0369,0.53754 -0.1428,0.8149 -0.11854,0.183 -0.24597,0.57006 -0.28315,0.86012 -0.0372,0.29006 -0.12498,0.56904 -0.19507,0.61995 -0.1552,0.11273 -0.21689,1.06997 -0.1006,1.5607 0.10959,0.46239 -0.0381,0.54949 -0.6065,0.35761 l -0.43168,-0.14573 -0.69694,0.65444 c -0.49981,0.46935 -0.85505,0.71336 -1.25591,0.86274 -0.30743,0.11456 -0.71048,0.3481 -0.89567,0.51896 -0.36025,0.30271 -0.76685,0.49222 -1.16293,0.7169 -0.86441,0.44946 -1.69927,1.05471 -2.48392,1.63034 -0.0575,0 -0.26944,0.11937 -0.471,0.26527 -0.32116,0.19973 -0.66785,0.39356 -0.98268,0.57909 0,0.15179 -1.2185,1.19219 -1.39742,1.19318 -0.0978,5.3e-4 -0.47512,0.27401 -0.83845,0.6077 -0.386,0.35452 -0.77861,0.62862 -0.94451,0.6594 -0.54319,0.39668 -1.09347,0.77291 -1.69843,1.12183 -0.24925,0.3931 -0.65097,0.77815 -0.81525,0.97453 -0.50228,0.0901 -0.92039,0.1546 -1.34526,0.26031 -0.26604,0.24157 -0.57524,0.42696 -0.86144,0.63938 -0.0757,0.0972 -0.33018,0.18721 -0.63783,0.22575 -0.54967,0.0689 -0.81142,0.23341 -0.81142,0.51008 0,0.0952 -0.0426,0.19704 -0.0946,0.22633 -0.33074,-0.0216 -0.19397,-0.54326 -0.27872,-0.78062 -0.11438,0.003 -0.43971,0.61265 -0.43971,0.82387 0,0.1098 -0.0934,0.18681 -0.26209,0.21618 -0.30722,0.0535 -0.41455,-0.10758 -0.25389,-0.38101 0.0602,-0.10246 0.10946,-0.26496 0.10946,-0.36111 0,-0.15672 -0.0728,-0.17246 -0.70305,-0.15207 -0.37986,0.0901 -1.09922,0.13097 -1.29204,0.15771 -0.0492,-0.17127 -0.16753,-0.18918 -1.60806,-0.24332 -0.85524,-0.0322 -1.67994,-0.10171 -1.83266,-0.15461 -0.39795,-0.13781 -3.54304,-0.0152 -4.06665,0.1585 -0.22359,0.0742 -0.74295,0.14817 -1.15415,0.16442 -0.4112,0.0162 -0.79765,0.0751 -0.85878,0.13077 -0.0721,0.0656 -0.74293,0.10124 -1.90774,0.10124 -1.43783,0 -1.82077,-0.0265 -1.91775,-0.133 -0.0667,-0.0731 -0.38097,-0.15859 -0.69846,-0.18986 -1.21214,-0.11939 -1.30914,-0.14455 -1.42121,-0.36857 -0.12868,-0.25728 -1.15607,-0.53569 -2.05252,-0.55623 -0.59757,-0.0137 -0.74537,-0.0514 -1.35816,-0.34603 -0.45895,-0.2207 -1.71109,-0.27997 -2.10636,-0.0997 -0.13474,0.0614 -0.7938,0.241 -1.46456,0.39899 -1.81524,0.42755 -2.00103,0.48346 -2.38251,0.7168 -0.48631,0.29748 -0.67361,0.24488 -0.63362,-0.17793 0.51048,-0.69425 1.23434,-1.11065 1.90846,-1.60586 0.32825,-0.22805 0.65033,-0.69615 0.65033,-0.94517 0,-0.0719 -0.0481,-0.21259 -0.1069,-0.31265 -0.10599,-0.1804 -0.10937,-0.18035 -0.3968,0.006 -0.15945,0.10342 -0.43859,0.18803 -0.62033,0.18803 -0.19582,0 -0.46605,0.0942 -0.66337,0.23131 -0.773,0.19291 -1.1708,0.49621 -1.81539,0.8362 -0.21077,0.10749 -0.43226,0.27524 -0.4922,0.3728 -0.30534,0.49697 -0.80691,0.56545 -0.70854,0.0967 0.32062,-0.85825 0.11436,-1.10643 0.78562,-1.68255 0.12009,-0.26228 0.37552,-0.34428 0.57333,-0.52564 0.10425,-0.18152 0.32451,-0.43117 1.07958,-1.2237 0.11301,-0.11862 0.17476,-0.34493 0.17681,-0.648 l 0.003,-0.46571 c -1.16194,-0.0844 -1.90473,0.73454 -2.69321,1.34353 0,0.18451 -0.16337,0.3163 -0.39708,0.3203 -0.0786,0.001 -0.23872,0.14824 -0.35571,0.32644 -0.28377,0.43225 -0.78654,0.92571 -0.94317,0.92571 -0.12875,-0.77132 0.27139,-1.69837 0.75241,-2.48184 0.11972,-0.0158 0.38736,-0.22409 0.59473,-0.46286 0.63597,-0.69786 1.49709,-1.51506 2.00542,-2.06945 0.69899,-0.43637 1.2298,-0.63128 1.73764,-1.17025 0.25255,-0.13572 0.35724,-0.26982 0.40977,-0.52488 0.12116,-0.58829 0.36107,-0.6084 0.66428,-0.88068 8.59937,-7.72202 0.5621,-0.24055 0.79695,-0.42365 0.23486,-0.18311 0.5894,-0.37376 0.78786,-0.42368 0.19848,-0.0499 0.38914,-0.15787 0.4237,-0.23992 0.15861,-0.37649 0.70339,-0.70465 1.41994,-0.8553 0.29068,-0.0611 0.58212,-0.16995 0.64763,-0.24185 0.58405,-0.19979 1.13893,-0.49762 1.69386,-0.7823 0.20788,-0.20494 0.51328,-0.23608 0.77669,-0.35723 0.49637,-0.23493 1.05127,-0.28907 1.58726,-0.38383 0.25154,-0.052 0.80034,-0.13208 1.21957,-0.178 0.41922,-0.0459 0.90555,-0.13027 1.08072,-0.18743 0.17517,-0.0572 0.7697,-0.11773 1.32119,-0.13457 1.01415,-0.031 1.30441,-0.0545 2.67961,-0.2176 0.95887,-0.11368 1.09022,-0.1644 1.27677,-0.49296 0.13493,-0.23768 0.20424,-0.26649 0.64108,-0.26649 0.47445,0 0.82619,-0.18313 0.82619,-0.43017 0,-0.18323 0.65812,-0.86582 0.83479,-0.86582 0.11146,0 0.18151,-0.0688 0.18151,-0.17836 0.39236,-0.35537 0.4158,-0.79918 0.5423,-1.30925 l 0.003,-1.64426 c -0.37001,-0.33703 -0.37331,-0.33794 -0.47459,-0.13117 -0.21646,0.47455 -0.31144,-0.0929 -0.54341,-0.16208 -0.32361,-0.21582 -0.17077,-0.63747 -0.22319,-0.83313 -0.10313,0 -0.26931,-0.0823 -0.36929,-0.18296 -0.1,-0.10063 -0.21692,-0.16318 -0.25987,-0.139 -0.0741,0.0417 -0.46385,-0.46398 -0.62584,-0.81204 -0.0415,-0.0891 -0.12899,-0.16199 -0.1945,-0.16199 -0.0655,0 -0.16989,-0.0607 -0.23196,-0.13483 -1.07048,-0.73499 -2.11103,-0.65441 -3.13775,-1.12687 -0.23678,-0.033 -0.55832,-0.11877 -0.71452,-0.19053 -0.2317,-0.10645 -0.34745,-0.10959 -0.6285,-0.017 -0.37105,0.12221 -0.66278,0.0101 -0.66278,-0.25464 0,-0.15765 -0.92547,-0.17832 -1.23469,-0.0276 -0.15561,0.0759 -0.24588,0.0681 -0.37444,-0.0322 -0.0932,-0.0727 -0.24602,-0.15682 -0.33967,-0.18696 -0.18325,-0.059 -0.80563,0.0635 -1.17511,0.23121 -0.17066,0.0775 -0.36628,0.0729 -0.7833,-0.0182 -0.36959,-0.0808 -0.88466,-0.10358 -1.53714,-0.0681 -0.90984,0.0494 -0.98502,0.0403 -1.0325,-0.12502 -0.25827,-0.21851 -0.72751,-0.28079 -1.08459,-0.37044 -0.31115,-0.1519 -0.49385,-0.17951 -0.87327,-0.13197 -0.83654,-0.26735 -1.32995,-0.55114 -2.34584,-0.43365 -0.0796,-0.0708 -0.36534,-0.20467 -0.63499,-0.29748 -0.40477,-0.18462 -0.73501,-0.42115 -1.1063,-0.6534 l -1.75214,-0.28167 -0.16446,-0.40638 c -0.1746,-0.43142 -0.41959,-0.60112 -1.01465,-0.7028 -0.28564,-0.0488 -0.39482,-0.0227 -0.54725,0.13068 -0.84802,0.38766 -1.53163,-0.12801 -2.3043,-0.46723 -0.29436,-0.28702 -0.3133,-0.34515 -0.26147,-0.80254 0.0438,-0.38638 0.0229,-0.50464 -0.0967,-0.54641 -0.22225,-0.0777 -0.39294,0.12312 -0.39294,0.46223 0,0.2633 -0.0328,0.29695 -0.29772,0.30546 -0.44541,0.0143 -1.09859,-0.13975 -1.30146,-0.30699 -0.0987,-0.0813 -0.17936,-0.23757 -0.17936,-0.34723 0,-0.10966 -0.0649,-0.28024 -0.14425,-0.37908 -0.14131,-0.17602 -0.14964,-0.17508 -0.40731,0.0454 -0.25173,0.21541 -0.27724,0.21893 -0.59297,0.0818 -0.43107,-0.0912 -0.82321,-0.30728 -1.22234,-0.45651 -0.1,-0.0959 -0.21833,-0.17436 -0.26297,-0.17436 -0.0447,0 -0.16682,-0.22952 -0.27151,-0.51004 -0.29488,-0.79019 -1.15238,-1.25413 -1.36713,-0.73966 -0.0591,0.14169 -0.17639,0.23142 -0.30237,0.23142 -0.27652,-0.0903 -0.24257,-0.54057 -0.36347,-0.80999 -0.0867,-0.0891 -0.23819,-0.26101 -0.33659,-0.38202 -0.70669,-0.12966 -0.82636,-0.67704 -1.16906,-1.10226 -0.52293,0.0606 -1.52198,-0.20065 -1.71366,-0.21782 -0.10445,-0.384 -0.2841,-0.73472 -0.44398,-1.10437 -0.12418,-0.24056 -0.46115,-0.45921 -0.57623,-0.5738 -0.0689,0.0485 -0.32279,0.0692 -0.5641,0.046 -0.47544,-0.0456 -0.62837,-0.23011 -0.62837,-0.75814 -0.0604,-0.23255 -0.19978,-0.40035 -0.30489,-0.61098 0,-0.1393 -0.0974,-0.31539 -0.22867,-0.41345 -0.14527,-1.02885 -0.62576,-1.22986 -1.50059,-1.61941 -0.13162,-0.14444 -0.28355,-0.67605 -0.35669,-1.24801 0.055,-0.4432 0.0476,-1.08807 0.0512,-1.17141 -0.33026,-0.88755 -0.89873,-0.0256 -1.12308,-0.032 -0.23104,0 -0.37055,-0.25788 -0.4394,-0.8122 0.0456,-0.49243 0.10842,-0.67607 0.14129,-0.881 -0.16927,-0.25613 -0.34791,-0.51613 -0.51493,-0.76392 -0.2526,-0.0717 -0.36146,-0.19451 -0.57071,-0.644 -0.14222,-0.30548 -0.31046,-0.65547 -0.37387,-0.77775 -0.14248,-0.27475 -0.11431,-1.02754 0.0543,-1.45232 0.18629,-0.46925 -0.0276,-0.62364 -0.92817,-0.66999 -0.72603,-0.0374 -0.90126,0.0247 -1.04484,0.37032 -0.37776,0.26086 -0.78359,0.53992 -1.10726,0.75443 -0.39188,0.0864 -0.84442,0.33042 -1.20259,0.52607 -0.22174,2.8e-4 -0.46311,0.0797 -0.63277,0.20828 -0.2397,0.18162 -0.28159,0.29463 -0.33215,0.89607 -0.0318,0.37854 -0.077,0.70572 -0.10047,0.72707 -0.3689,-0.11726 -0.67158,-0.24719 -1.01766,-0.37457 -0.56995,0.0321 -1.07027,0.4845 -1.07027,0.96769 -0.34876,0.43243 -0.71744,0.67194 -1.11044,1.28062 -0.23899,0.74667 -1.02139,0.64772 -1.728,1.26288 -0.34984,0.38075 -0.69355,0.65218 -0.93921,0.7417 -0.31995,0.11662 -0.40831,0.20806 -0.50722,0.52491 -0.37752,0.85141 -1.2269,0.93842 -2.01622,1.3742 -0.1201,-0.50141 -0.65957,-0.23604 -1.06165,-0.29434 -0.34504,-0.11948 -0.63378,0.10552 -0.71798,0.55947 -0.0385,0.20748 -0.12259,0.39389 -0.18689,0.41425 -0.12056,0.0382 -0.62921,0.11419 -0.85386,0.12764 -0.0699,0.004 -0.2671,0.28879 -0.43812,0.63246 -0.18163,0.60839 -0.6114,0.86581 -0.96578,1.25398 -0.12911,0.5354 -0.31914,0.70088 -0.8401,0.73152 -0.45411,0.0267 -0.47847,0.0426 -0.5672,0.36973 -0.082,0.30231 -0.12313,0.3368 -0.35571,0.29835 -0.41664,-0.0689 -0.54073,0.0769 -0.60779,0.71385 l -0.0617,0.58619 -0.89985,0.0974 c -0.99486,0.10773 -1.24799,0.2624 -1.13446,0.6932 0.16955,0.64334 0.17047,1.11089 0.003,1.56991 -0.44743,0.51275 -0.99259,0.95338 -1.52938,1.39235 -0.0284,0 -0.2264,-0.10534 -0.44,-0.2341 -0.43771,0.0659 -0.57659,-0.35957 -0.72521,-0.45225 0,-0.26611 -0.0514,-0.35724 -0.24759,-0.43865 -0.39894,-0.16556 -0.5992,-0.0399 -0.52336,0.32839 0.0489,0.23729 0.0256,0.32582 -0.0969,0.36865 0.0584,0.0601 0.36312,0.47331 0.52363,0.68253 -0.023,0.24184 -0.0464,0.47096 -0.052,0.50914 -0.14581,0.0587 -0.32239,0.11667 -0.47406,0.17156 -0.59887,-0.2915 -1.27454,0.35799 -1.40635,0.39731 0.09,0.2137 -0.15355,0.87262 -0.40837,1.10472 -0.15322,0.13957 -0.2635,0.38006 -0.30813,0.67202 -0.0382,0.25006 -0.13156,0.53121 -0.20739,0.62479 -0.44536,0.17188 -0.88926,-0.39911 -1.25708,-0.77184 -0.21034,0 -0.31896,0.16981 -0.31896,0.49862 0,0.28616 -0.59849,0.85263 -0.98186,0.92934 -0.37988,0.076 -0.66737,0.3404 -0.68341,0.62853 -0.14082,0.29734 -0.47457,0.46685 -0.71432,0.70269 -0.22408,0.39068 -0.68091,0.73089 -1.15039,0.85672 -0.38022,0.10191 -0.43791,0.15402 -0.49612,0.44826 -0.0926,0.46773 -0.26601,0.74331 -0.54866,0.87166 -0.19947,0.0906 -0.2487,0.19315 -0.27488,0.57267 0.0644,0.4509 -0.35897,0.67909 -0.53821,1.01816 -0.19201,0.0555 -0.20422,0.10787 -0.14201,0.60873 0.0514,0.41361 0.0365,0.54799 -0.0609,0.54799 -0.18378,0.27174 -0.44906,0.10651 -0.62824,0.14901 -0.45003,-0.16701 -0.61428,0.43446 -0.82832,0.77163 -0.51356,0.17893 -0.94026,0.93267 -1.0521,1.85848 l -0.0818,0.67742 -0.58002,0.007 c -0.47371,-0.1272 -0.74043,0.27544 -1.12411,0.41817 -0.37181,0.68556 -0.85227,1.133 -1.32421,1.683 -0.60227,0.30516 -0.58243,0.71092 -0.90117,1.13972 -0.24522,0.34472 -0.63175,0.54062 -0.93647,0.79767 -0.17744,0.53969 -0.53367,0.96087 -0.81797,1.43714 -0.25542,0.28258 -0.42253,0.56876 -0.58071,0.78168 -0.59969,0.0589 -0.75667,0.54516 -1.0501,1.03088 -0.12371,0.30966 -0.37593,0.50036 -0.55859,0.74348 -0.43664,0.36947 -0.58907,0.98266 -0.80886,1.51048 -0.73574,0.81864 -0.75046,1.64501 -0.91744,2.01763 -0.93495,1.36792 -0.65369,1.48502 0.50372,1.83124 0,0.26584 -0.2191,0.33487 -0.78438,0.24711 -0.49586,-0.077 -0.53446,-0.1024 -0.59394,-0.39121 -0.0998,-0.48481 -0.5492,-0.51563 -0.70309,-0.0482 0.11902,0.67327 -0.75842,0.46546 -0.82958,0.50914 -0.2797,-0.25477 -0.76048,-0.17252 -1.11534,0.1908 -0.28106,0.28776 -0.39766,0.33638 -0.91726,0.38251 -0.3274,0.0291 -0.66387,0.10567 -0.74771,0.17023 -0.0838,0.0646 -0.49545,0.16832 -0.91468,0.23052 -0.41923,0.0622 -0.96803,0.152 -1.21957,0.19952 -0.9435,0.17825 -1.14009,0.1871 -1.59226,0.0718 -0.64193,-0.16371 -1.89339,-0.1649 -2.10887,-0.002 -0.48366,-0.078 -0.89729,0.1065 -1.33804,0.1654 -0.16304,0.0111 -0.61656,0.0559 -1.00784,0.0996 -0.39128,0.0436 -1.1148,0.0671 -1.60783,0.0521 -0.99039,-0.26576 -1.39533,-0.29368 -2.31042,-0.2323 -0.58404,-0.006 -1.43173,0.18187 -1.56387,0.34647 -0.53239,0.0367 -1.17268,0.0372 -1.77577,0.10109 -0.36811,0.0183 -0.92082,0.0562 -1.22826,0.0842 -0.92943,-0.0487 -1.6978,0.28552 -2.53838,0.54837 -0.26471,0.26139 -0.68656,0.32643 -1.01522,0.49957 -0.58975,0.11916 -0.63016,0.115 -1.15587,-0.11928 -0.29962,-0.13352 -0.59737,-0.24277 -0.66167,-0.24277 0.0878,0.20673 0.0269,0.50322 0.0355,0.66485 -5.74949,-2.08719 -0.72229,-0.17165 -7.24117,-0.17411 -0.73301,-0.59195 -1.44188,-0.11031 -2.2831,0.0647 -0.43783,0.21683 -1.00387,-0.0488 -1.40063,-0.138 -0.0492,-0.1179 -0.12861,-0.23639 -0.17646,-0.26332 -0.0478,-0.0269 -0.56517,-0.0711 -1.14961,-0.0982 -0.90883,-0.0421 -1.08717,-0.0767 -1.23218,-0.23866 -0.21579,-0.31816 -0.52806,-0.63842 -0.98135,-0.84741 -0.21712,-0.39379 -0.27468,-0.43403 -0.71141,-0.49731 -0.61571,-0.1322 -1.38886,0.004 -1.92703,0.0596 -0.28699,-0.0611 -0.51439,-0.26865 -0.76966,-0.40197 l -0.25443,-0.29613 c -0.009,0.32022 -0.34631,0.43275 -0.52216,0.65249 0,0.23986 -0.0593,0.28747 -0.58438,0.46899 -0.9752,0.33715 -1.04171,0.34444 -1.04171,0.11435 0.20662,-0.41583 0.57446,-0.77079 0.88788,-1.12207 0.19797,-0.31497 0.20116,-0.34863 0.0439,-0.46365 -0.47339,-0.34625 -1.40622,-0.63156 -2.06489,-0.63156 l -0.49299,0 c -0.44149,0.47387 -0.86383,0.9187 -1.57806,1.20342 -0.56516,0.27613 -0.67751,0.30348 -0.76054,0.18514 0.59993,-0.80597 0.98568,-1.19632 1.18657,-2.17614 -0.11272,-0.63285 -0.6595,-0.67851 -0.9724,-1.00043 -0.64378,0.94501 -0.74389,1.3715 -1.42905,1.82937 -0.0916,0.15003 -0.43155,0.43763 -0.75541,0.63911 -0.47397,0.29487 -0.60646,0.34097 -0.67919,0.23636 -0.13562,-0.19513 -0.11166,-0.36141 0.0521,-0.36141 0.79448,-0.60857 1.08112,-1.54325 1.51487,-2.38867 -0.98898,-0.40519 -1.90947,0.10677 -2.87599,0.85454 -0.18093,0.48306 -1.0004,0.89657 -1.39458,1.2293 -0.16587,-0.73573 0.28653,-1.19031 0.67919,-1.73081 0.33085,-0.31367 0.60224,-0.72375 0.92382,-1.07301 0.21945,-0.1809 0.24013,-0.39327 0.0871,-0.89503 -0.0848,-0.27801 -0.15444,-0.34714 -0.3499,-0.34714 -0.82054,0.33307 -1.16676,1.15753 -1.61259,1.90456 0.0569,0.21871 -0.19764,0.46026 -0.378,0.35873 -0.20426,-0.115 -0.0386,-1.03452 0.2562,-1.42199 0.20371,-0.44528 0.4199,-0.87663 0.60436,-1.32531 0.62724,-0.81952 0.66424,-1.13387 1.74556,-1.29798 0.98897,-2.0432 3.17237,-2.09974 4.72731,-3.30899 0.46379,-0.003 0.83377,-0.29619 1.22565,-0.51231 0.43757,-0.0875 0.91723,-0.32489 1.2311,-0.60918 0.84188,-1.03919 1.59658,-1.40907 2.6696,-1.78429 0.7085,-0.41768 1.65845,-0.27382 2.539,-0.48195 0.13577,-0.081 0.53434,-0.16988 0.8857,-0.19744 0.35134,-0.0276 0.69608,-0.0914 0.76608,-0.14189 1.72914,-0.11073 3.45258,-0.32631 5.17853,-0.50433 0.93869,-0.0225 1.82104,-0.0376 1.96079,-0.0336 3.157,0.0906 3.64635,0.0796 3.81025,-0.0854 0.0959,-0.0965 0.24732,-0.14631 0.36197,-0.119 0.1084,0.0258 0.57458,-0.004 1.03594,-0.0653 0.46136,-0.0617 1.18487,-0.11045 1.60779,-0.10823 0.76023,0.004 0.77105,6.9e-4 0.95447,-0.29185 0.10204,-0.16274 0.29748,-0.40621 0.43433,-0.54105 0.20889,-0.20583 0.23025,-0.2767 0.13319,-0.44189 -0.0918,-0.15625 -0.0832,-0.22621 0.0416,-0.33989 0.0864,-0.0787 0.18534,-0.24548 0.21981,-0.37054 0.20903,-0.23158 0.35524,-0.57825 0.47791,-0.77794 0.16818,0 0.21807,-0.16498 0.41947,-1.3869 0.10708,-0.64964 0.11468,-0.89465 0.0292,-0.94274 -0.14896,-0.0839 -0.27757,-0.01 -0.27757,0.15969 0,0.17242 -0.29424,0.17383 -0.36672,0.002 0.12462,-0.33381 0.0416,-0.67744 0.0628,-1.02145 -0.0932,-0.40883 -0.0853,-0.55671 0.0446,-0.83999 0.19754,-0.43064 0.20726,-0.39629 -0.12177,-0.43077 -0.26377,-0.0276 -0.28007,-0.0566 -0.28985,-0.51529 0.36991,-0.58526 -0.0854,-0.59143 -0.14208,-0.98333 0,-0.27846 0.0417,-0.34182 0.25769,-0.39118 0.0747,-0.082 -0.017,-0.22126 -0.0254,-0.33189 -0.217,-0.0381 -0.41265,-0.59631 -0.25827,-0.73693 0.086,-0.26218 -0.008,-0.57398 -0.0115,-0.85809 0.0348,-0.0998 0.0688,-0.70475 0.0758,-1.3444 0.0113,-1.05014 -0.007,-1.17763 -0.18671,-1.31385 -0.15477,-0.11718 -0.2084,-0.29825 -0.24021,-0.811 -0.0253,-0.40757 0.003,-0.70819 0.0735,-0.78575 0.11027,-0.12101 0.22566,-1.05685 0.23386,-1.89663 -0.153,-0.62694 -0.41988,-1.11598 -0.58835,-1.66548 -0.27198,-0.11288 -0.30654,-0.37563 -0.14786,-1.12395 0.0486,-0.22911 0.0519,-0.45822 0.007,-0.50914 -0.10775,-0.1231 -0.32633,-0.94726 -0.34371,-1.29599 -0.008,-0.15274 -0.0727,-0.31977 -0.14461,-0.37118 -0.17913,-0.56102 -0.041,-1.34991 0.0282,-1.86338 -0.1267,-0.17611 -0.14918,-0.32757 -0.0919,-0.61927 0.13004,-0.66272 0.10507,-1.20345 -0.0756,-1.63585 -0.0957,-0.22911 -0.16907,-0.49988 -0.16305,-0.60171 -0.52943,-1.16452 -0.38798,-1.88517 -0.61449,-2.85217 0.0675,-0.11146 0.11043,-0.27585 0.0954,-0.36529 0.1999,-0.17267 0.41816,-0.51594 0.4599,-0.56744 -0.13961,-0.1941 -0.141,-0.27573 -0.0122,-0.71648 0.0799,-0.2736 0.1459,-0.63385 0.14656,-0.80059 9.4e-4,-0.23765 0.0561,-0.32215 0.25529,-0.39113 0.13974,-0.0484 0.25407,-0.12622 0.25407,-0.17295 0,-0.13753 -0.27038,-0.19174 -0.39413,-0.079 -0.18938,0.1725 -0.37478,-0.0667 -0.25123,-0.32409 0.0734,-1.07268 0.3108,-1.70729 0.23932,-2.8934 -0.0994,-0.40142 -0.0637,-0.51108 0.16644,-0.51108 0.35339,0 0.0357,-0.23524 -0.37831,-0.28011 -0.54906,-0.0595 -0.70328,-0.1407 -0.70328,-0.37021 0,-0.15948 0.18294,-0.61269 0.41893,-1.03784 0.0491,-0.0884 0.0895,-0.27587 0.0899,-0.41657 0.33825,-0.37335 0.002,-0.93394 0.003,-1.04268 -0.11576,0 -0.20645,-0.061 -0.20645,-0.13886 0.27505,-0.0892 0.5162,-0.36319 0.71141,-0.50053 0,-0.1371 -0.054,-0.29843 -0.1199,-0.3585 -0.0896,-0.0817 -0.0912,-0.16226 -0.006,-0.31937 0.0976,-0.18065 0.17841,-0.54099 0.24421,-1.08958 0.009,-0.0764 0.0893,-0.18796 0.178,-0.24796 -0.0817,-0.33695 0.18606,-1.41236 0.30658,-2.23423 -0.0938,-0.37894 0.005,-0.5991 0.36648,-0.81472 0.13777,-0.0822 0.2505,-0.19678 0.2505,-0.25457 -1e-5,-0.16354 -0.62888,-0.58063 -0.96653,-0.64103 -0.16712,-0.0299 -0.50966,-0.0968 -0.76119,-0.14859 -1.09264,-0.2619 -2.08843,0.27065 -2.34119,1.25618 -0.19181,0.84155 -0.796,1.52158 -0.97481,1.09716 -0.0316,-0.075 0.0199,-0.39783 0.11442,-0.71743 0.37247,-1.25936 0.39849,-1.80841 0.0804,-1.69724 -0.0812,0.0284 -0.28111,0.0516 -0.44422,0.0516 -0.31313,0.21133 -0.58591,0.70738 -0.85555,1.11085 -0.0838,0.0634 -0.15244,0.25498 -0.15244,0.42577 0,0.39503 -0.40601,0.6924 -0.67142,0.49177 -0.17885,-0.49655 0.12924,-1.32109 0.21408,-1.62463 -0.16173,-0.26329 -0.47211,-0.2917 -0.72607,-0.44862 -0.94053,-0.33868 -0.73295,0.0691 -0.74204,1.29828 -0.17073,0.34299 -0.31043,0.77579 -0.31043,0.9618 0,0.29581 -0.0439,0.35631 -0.35024,0.4828 -0.42781,0.17661 -0.56578,0.0834 -0.56112,-0.37912 0.003,-0.31376 0.30069,-1.23809 0.43909,-1.36415 0.14331,-0.13054 0.0527,-0.30619 -0.18602,-0.36077 -0.39976,-0.0914 -0.9346,0.42339 -1.01873,0.98053 -0.0809,0.53604 -0.3876,1.01748 -0.64811,1.01748 -0.27278,0 -0.33611,-0.2256 -0.17622,-0.62761 0.21094,-0.53032 0.37594,-1.43794 0.27768,-1.52744 -0.64459,0.0453 -1.14564,0.61119 -1.58747,0.95163 -0.28305,0 -0.32978,-0.16982 -0.12778,-0.46443 0.15958,-0.23275 0.0169,-0.46409 -0.35603,-0.57732 -0.32318,-0.0981 -0.75709,0.12593 -0.89809,0.46373 -0.11424,0.2737 -0.30101,0.23154 -0.48319,-0.10906 -0.10004,-0.18702 -0.10694,-0.28456 -0.0254,-0.35882 0.0616,-0.0561 0.11197,-0.147 0.11197,-0.20203 0,-0.10963 -0.55658,-0.3551 -0.83623,-0.3688 -0.0966,-0.005 -0.23741,-0.0856 -0.31293,-0.17966 -0.11832,-0.14738 -0.17135,-0.15497 -0.38335,-0.0548 -0.39591,0.18696 -0.60173,0.38575 -0.60173,0.58117 0,0.15168 -0.0494,0.17336 -0.2935,0.12889 -0.37642,0.18847 -0.69251,0.0765 -1.04385,0.11539 -0.30702,-0.26641 -0.64863,-0.47119 -0.9584,-0.7114 -0.33447,-0.0935 -0.42765,-0.0837 -0.70819,0.0742 -0.52079,0.29317 -0.58604,0.25099 -0.50667,-0.32762 0.0582,-0.42446 0.0421,-0.51917 -0.0964,-0.5676 -0.10565,-0.0369 -0.22162,0.0138 -0.31801,0.13919 -0.0835,0.10852 -0.25638,0.19732 -0.38429,0.19732 -0.24185,0 -0.49078,0.20294 -0.60375,0.4922 -0.0464,0.11879 -0.14794,0.15957 -0.34574,0.13885 -0.24954,-0.0261 -0.27659,-0.0621 -0.24815,-0.3302 l 0.0319,-0.30085 -0.81954,0 c -0.61917,0 -0.81955,0.0305 -0.81955,0.12464 0,0.23469 -0.31434,0.69875 -0.51202,0.7559 -0.301,0.087 -0.39499,-0.0187 -0.33185,-0.3731 0.047,-0.26377 0.0256,-0.3223 -0.11805,-0.3223 -0.69921,-0.38487 -1.05161,-0.067 -1.61593,0.122 -0.0739,0.26816 -0.46327,0.43371 -1.08292,0.46042 -0.36173,0.0156 -0.45505,-0.0132 -0.48581,-0.1496 -0.0209,-0.0929 0.0341,-0.24159 0.12243,-0.33045 0.15144,-0.15241 0.13037,-0.15764 -0.3722,-0.0924 -0.293,0.038 -0.77711,0.0722 -1.0758,0.0759 -0.44524,0.006 -0.55221,0.0386 -0.59378,0.18334 -0.10435,0.36348 -0.74331,0.29295 -0.74331,-0.082 0,-0.14074 -0.1658,-0.169 -1.34661,-0.22954 -1.8777,-0.0963 -2.01559,-0.095 -2.0932,0.0194 -0.11613,0.17116 -0.76478,-0.002 -0.87818,-0.23424 -0.1292,-0.26475 -0.52248,-0.27473 -0.61279,-0.0156 -0.0526,0.15097 -0.0955,0.16786 -0.20891,0.0821 -0.11154,-0.0843 -0.15642,-0.0753 -0.20559,0.0414 -0.0881,0.20919 -0.2444,0.18626 -0.2444,-0.0359 0,-0.25019 -0.16516,-0.2353 -0.23889,0.0215 -0.0361,0.12586 -0.0931,0.17111 -0.14561,0.11571 -0.0828,-0.0874 -0.35021,-0.65554 -0.46755,-0.99354 -0.0309,-0.0891 -0.12199,-0.162 -0.20235,-0.162 -0.10041,0 -0.16598,0.15195 -0.20968,0.486 -0.035,0.26729 -0.11317,0.74689 -0.17375,1.06577 -0.10498,0.55262 -0.0965,0.60467 0.1811,1.11085 0.16018,0.29209 0.32714,0.55526 0.37101,0.58482 0.0904,0.75747 0.33569,1.44156 0.63055,2.1437 0.092,0.29215 0.2442,0.57093 0.33825,0.61951 0.15764,0.0814 0.15589,0.0985 -0.0224,0.21848 0.0264,0.30313 0.0522,0.51147 0.0918,0.89882 -0.0839,0.0634 -0.15245,0.17512 -0.15245,0.24832 0,0.19818 0.63731,1.04767 0.78601,1.04767 0.0708,0 0.12866,0.0776 0.12866,0.17241 0.7531,0.80346 1.01782,1.51657 1.30757,2.48534 -0.0236,0.67381 0.10769,1.01347 0.56606,1.46397 0.25942,0.32138 0.39905,0.71841 0.58457,1.08475 0.10838,0.13967 0.17493,0.28654 0.1479,0.32639 -0.0903,0.13311 0.35202,1.17438 0.63885,1.50386 0.45767,0.52571 0.60761,1.14095 0.34299,1.4073 -0.17467,0.17581 -0.12432,0.83097 0.0684,0.88947 0.35545,0.79503 0.94085,1.4858 1.44327,2.17482 0.27221,0.15178 0.92245,1.06094 0.84278,1.17835 -0.0359,0.0529 0.007,0.19709 0.0959,0.32035 0.12939,0.31475 0.24252,0.63167 0.36484,0.95027 0.25767,0.38493 0.25754,0.63624 -3.7e-4,0.78296 -0.23173,0.13181 -0.2775,0.53393 -0.0608,0.53393 0.15205,0 0.36597,0.45552 0.36515,0.77752 -0.001,0.48308 0.37012,1.11651 0.98799,1.68519 0.6566,0.60433 0.70196,0.69222 0.77026,1.49242 0.27841,0.56902 0.34091,1.18247 0.48282,1.72758 -0.24361,0.97433 -0.24488,0.9425 0.0459,1.15087 0.18791,0.13462 0.28978,0.31177 0.3278,0.56995 0.0472,0.32068 0.0166,0.40713 -0.21245,0.60052 -0.20837,0.1759 -0.26796,0.314 -0.26916,0.62376 -0.002,0.52518 -0.24092,1.13812 -0.44412,1.13944 -0.0875,5.6e-4 -0.23679,0.0718 -0.3317,0.15822 -0.15227,0.13869 -0.15695,0.20033 -0.0399,0.52353 -0.0322,0.56318 0.25764,0.94545 0.41069,1.44071 0,0.17985 -0.0642,0.24605 -0.27949,0.288 -0.15371,0.0299 -0.43955,0.1065 -0.63519,0.1701 -0.33593,0.10923 -0.35357,0.13589 -0.31731,0.47959 -0.0152,0.87292 -0.46387,1.10819 -0.94451,1.76766 0.015,0.34806 0.0805,0.83236 0.14551,1.07622 0.1319,0.4948 0.0112,0.7593 -0.3049,0.66794 -0.23106,-0.0668 -0.71303,0.28886 -0.71303,0.52618 -0.42199,0.29404 -0.64294,0.77454 -0.91587,1.1859 -0.0474,0 -0.0473,0.12356 2.1e-4,0.27457 0.0814,0.25855 0.13588,0.74017 0.11291,0.99828 -0.28637,0.10834 -0.58894,0.29425 -0.8826,0.44097 -0.34824,0.29916 -0.36888,0.34474 -0.25716,0.56807 0.075,0.14988 0.0954,0.40082 0.0535,0.65568 -0.0565,0.34305 -0.11596,0.42811 -0.35171,0.50296 -0.34892,0.1108 -0.42101,0.2498 -0.49555,0.95539 -0.0578,0.54706 -0.0632,0.555 -0.41425,0.61276 -0.58549,0.0963 -1.11794,0.34697 -1.11794,0.52621 0,0.0898 -0.0772,0.26375 -0.17165,0.38653 -0.16202,0.21069 -0.18908,0.82747 -0.0976,2.22481 -0.69292,0.63732 -0.83301,1.46088 -1.00038,2.31747 0.0972,0.3339 -0.37431,0.36997 -0.59313,0.58625 -0.23819,0.0544 -0.47391,0.39522 -0.47576,0.68776 -5.4e-4,0.0867 -0.11361,0.37797 -0.25125,0.64728 -0.19211,0.37587 -0.33357,0.52136 -0.6088,0.6261 -0.30647,0.30044 -0.67357,0.28716 -1.05425,0.4498 -0.36392,0.17631 -1.78398,0.60987 -1.99758,0.60987 -0.20328,0.19193 -0.45592,0.31513 -0.69606,0.48112 -0.31126,1.1317 -0.69115,0.40162 -1.06336,0.65982 -0.39974,0.13752 -0.86205,-0.13525 -1.26218,-0.28098 -0.27259,-0.37348 -0.29383,0.21113 -0.38136,0.27403 -0.0915,0.1902 -0.44576,0.0634 -0.72038,0.1025 -0.972,-0.24394 -0.77444,0.494 -1.22604,0.72243 0.0426,0.27774 -0.19747,0.28617 -0.49821,0.0175 -0.16242,-0.1451 -0.29657,-0.34183 -0.29813,-0.43716 -0.002,-0.14407 -0.0288,-0.15374 -0.15636,-0.0573 -0.0859,0.0649 -0.41051,0.11385 -0.73683,0.11101 -0.40671,-0.004 -0.63989,0.0415 -0.7703,0.14861 -0.17446,0.14332 -0.19571,0.14285 -0.3161,-0.007 -0.10773,-0.13419 -0.29801,-0.16077 -1.1511,-0.16077 -0.47061,-0.0124 -0.94712,0.0824 -1.32922,0.11571 -0.31635,-0.17013 -1.42815,-0.15301 -1.50236,0.0231 -0.0965,0.22893 -0.51466,0.15814 -1.02741,-0.17393 -0.55327,-0.35832 -0.883,-0.47158 -1.06645,-0.36633 -0.17923,0.10282 -1.31874,0.0344 -1.48413,-0.0892 -0.10451,-0.078 -0.17988,-0.0498 -0.32061,0.12014 -0.17961,0.21688 -0.21681,0.2218 -1.56569,0.20671 -0.75994,-0.009 -1.3817,0.015 -1.3817,0.0523 -0.61647,0.34959 -1.36591,0.50242 -2.05664,0.67359 -0.65719,-0.004 -1.19179,0.0564 -1.85334,0.14563 -0.87624,0.42798 -1.03686,0.45761 -2.03322,0.0838 -0.78591,0.10763 -1.49487,-0.0408 -2.28561,-0.14357 -0.59572,-0.27857 -1.52239,0.045 -1.80176,0.0893 -1.54819,-0.72392 -3.00914,-0.17639 -4.33867,0.28824 -0.23016,0.3549 -0.55086,0.51725 -0.63364,0.32077 -0.39636,-0.47379 -0.38534,0.34314 -0.54129,0.482 -0.0735,0.34367 -0.15089,0.65272 -0.17199,0.68678 -0.0391,0.0632 -0.64635,-0.17885 -0.64635,-0.25759 0,-0.0238 0.0867,-0.15613 0.19276,-0.29408 0.10601,-0.13795 0.21921,-0.38621 0.25153,-0.55168 0.055,-0.28162 0.0403,-0.30085 -0.23113,-0.30085 -0.80008,0.29736 -1.61698,0.56422 -2.46282,0.77485 -0.3522,0.0743 -0.55513,-0.12818 -0.39746,-0.39653 0.88214,-0.552 1.93017,-1.01691 2.90609,-1.58321 0.34944,-0.10504 0.55176,-0.42525 0.40519,-0.64127 -0.0958,-0.14112 -0.49116,-0.12023 -0.72097,0.0381 -1.37821,0.16387 -2.09428,0.20277 -3.38787,1.22246 -0.43463,0.0469 -0.51891,0.0318 -0.51891,-0.093 0,-0.0819 0.13106,-0.23724 0.29125,-0.34511 0.44094,-0.56274 0.92618,-0.98379 1.48274,-1.4294 0.83451,-0.55281 1.38811,-1.35737 2.08797,-2.07738 0,-0.20839 -0.15973,-0.32966 -0.25305,-0.19211 -0.0351,0.0518 -0.14692,0.0941 -0.24846,0.0941 -0.79624,0.11337 -1.37919,0.42723 -2.0314,0.85877 -0.16772,0.0577 -0.38863,0.25057 -0.50743,0.44311 -0.23848,0.38648 -0.75893,0.56281 -0.96268,0.32615 0.31819,-0.60021 0.68069,-1.10443 1.07482,-1.67431 0.66245,-0.81697 1.22195,-1.71695 1.84046,-2.5417 1.17171,-0.96449 1.93332,-2.14859 2.97032,-3.16142 0.0496,-0.20589 0.14888,-0.28768 0.44805,-0.36933 0.30568,-0.0834 0.42856,-0.18788 0.60078,-0.51076 0.16843,-0.31579 0.27191,-0.40589 0.46612,-0.40589 0.52735,-0.21245 0.99697,-0.64033 1.48073,-0.97466 0.25153,-0.17874 0.69744,-0.43137 0.9909,-0.56137 0.45979,-0.38506 0.91397,-0.59947 1.45864,-0.86539 0.21213,-0.10746 1.34261,-0.34955 1.90004,-0.4069 0.27191,-0.028 0.63639,-0.16861 0.96549,-0.37253 0.3387,-0.21797 0.7406,-0.35801 1.08765,-0.52577 0,-0.12516 0.63283,-0.27746 1.3212,-0.31797 1.0011,-0.11843 2.03275,-0.0814 2.7565,-0.0546 0.72355,0.0418 1.34293,-0.10314 2.1021,-0.13278 l 1.29004,0 c 0.7453,-1.17796 0.84871,-2.28887 0.50244,-3.56397 -0.0904,0 -0.24731,-0.18358 -0.36614,-0.42827 -0.21839,-0.44969 -1.05769,-1.67642 -1.41703,-2.07114 -0.24673,-0.41008 -0.71362,-0.46187 -1.11039,-0.63631 -0.8242,-0.42087 -1.51749,-0.9669 -2.20766,-1.59098 -0.55848,-0.29569 0.0714,-0.39807 0.0762,-0.42486 0.77891,0.0776 -0.50872,-0.45407 -0.73069,-0.55388 -0.97583,-1.15189 -2.07556,-1.83122 -2.8772,-3.03924 -0.10451,-0.65732 -0.71486,-0.92254 -1.20143,-1.28683 -0.27178,-0.0621 -0.78094,-0.46159 -0.9569,-0.75074 -0.76916,-0.42763 -1.4507,-0.98065 -2.11835,-1.49246 -0.29273,-0.34995 -0.78523,-0.31604 -1.1666,-0.4164 -0.28752,-0.12671 -0.54564,-0.35264 -0.78668,-0.50842 -0.0168,-0.0973 -0.12213,-0.4089 -0.23414,-0.69239 -0.25213,-0.71918 -0.8414,-0.72806 -1.44759,-0.95829 -0.19904,0.0696 -0.47282,-0.20828 -0.47282,-0.47983 -0.074,-0.4036 -0.22156,-0.79653 -0.34798,-1.1882 -0.0728,-0.35398 -0.65763,-0.97761 -0.91686,-0.97765 l -0.71881,-1.15712 -0.69928,0 c -0.93363,-0.14391 -1.14937,-0.58524 -1.58861,-1.34227 -0.0931,-0.12729 -0.27648,-0.38299 -0.40756,-0.56821 -0.57587,-0.38624 -1.18336,-0.67762 -1.77973,-1.19199 -0.25881,-0.066 -0.48386,-0.16559 -0.50013,-0.22132 -0.17927,-0.61406 -0.32384,-0.90789 -0.52522,-1.06737 -0.13186,-0.10443 -0.23974,-0.22857 -0.23974,-0.27587 0,-0.16867 -0.69764,-0.30799 -1.02376,-0.20444 -0.95542,0.21654 -0.67307,-0.37657 -1.06611,-0.77131 -0.12909,-0.49128 -0.16343,-1.45058 -0.17895,-1.7341 -0.2483,-0.0542 -0.49532,-0.0991 -0.74598,-0.14924 -0.28596,0.0277 -0.28814,0.0239 -0.28162,-0.48125 0.004,-0.28003 0.0265,-0.65494 0.0508,-0.83314 -0.11643,-0.45354 -0.75574,-0.63671 -1.17296,-0.96682 -0.45148,-0.0617 -0.64878,-0.17643 -0.47322,-0.27526 0.0506,-0.0285 0.007,-0.28979 -0.0964,-0.58497 -0.27879,-1.27321 -1.32885,-1.64438 -2.35458,-2.22766 -0.056,0.1347 -0.22219,0.2469 -0.33273,0.36974 -0.72193,0.75087 -1.38351,1.49251 -2.23292,2.071 -0.4492,0.0768 -0.66111,0.43129 -0.66111,1.10606 l 0,0.42373 c -0.38227,-0.34342 -0.65767,0.19377 -0.80497,0.23717 -0.0976,0.55167 -0.3603,1.03675 -0.60431,1.5406 -0.0773,0.31452 -0.18376,0.52811 -0.2633,0.52811 -0.0735,0 -0.26031,0.0599 -0.41525,0.13313 -0.3331,0.15741 -0.54445,0.61092 -0.6512,1.39729 -0.10914,0.80402 -0.21326,0.94218 -0.68496,0.90891 -0.54011,-0.0381 -0.64851,0.0554 -0.709,0.6114 -0.29547,1.2744 -1.33852,2.26662 -2.15032,3.09027 0.0155,0.31096 0.20989,0.56442 0.3171,0.85272 0.0193,0.23936 -0.0168,0.26596 -0.48733,0.35872 -0.35101,0.1731 -0.81302,0.47344 -1.16454,0.7809 -0.37659,0.23038 -0.43694,0.31416 -0.46396,0.64405 -0.0416,0.50809 -0.0743,0.5409 -0.61245,0.6144 -0.54601,-0.096 -0.35455,0.41139 -0.58379,0.67737 -0.16603,0.16711 -0.21391,0.17182 -0.57999,0.0569 -0.74142,-0.23267 -0.87203,0.0222 -0.51263,1.00036 0.10653,0.28991 0.22493,0.71689 0.26312,0.94885 0.0793,0.48193 0.0103,0.5146 -0.59832,0.28298 -0.34385,-0.13087 -0.37084,-0.12813 -0.47444,0.0482 -0.0884,0.19208 -0.0384,0.39144 -0.0588,0.60007 -0.0609,0.221 -0.10399,0.23806 -0.53667,0.21254 -0.86908,-0.093 -0.90396,0.25937 -1.60137,0.83421 -0.0705,0.0359 -0.31094,0.32296 -0.5344,0.63788 -0.45271,0.63799 -0.73192,0.75037 -1.59631,0.64245 -0.46536,-0.29639 -0.30208,0.83619 -0.30348,1.23051 -0.10183,0.38516 -0.19042,0.70999 -0.19688,0.72183 -0.006,0.0118 -0.14931,-0.0258 -0.31743,-0.0836 -1.011,0.008 -1.49658,0.69686 -2.15711,1.366 0.0106,0.34776 -0.319,1.45061 -0.4625,1.5478 -0.50968,0.0492 -1.0424,0.0453 -1.55467,0.0479 -0.061,0.0344 -0.14074,0.27086 -0.17723,0.52543 -0.10992,0.7671 -0.14988,0.86951 -0.38383,0.98354 -0.61593,-0.0906 -0.72787,0.37435 -1.10191,0.59265 -0.20829,0.42672 -0.28792,0.50492 -0.515,0.50571 -0.28323,0.001 -0.39199,0.14461 -0.39199,0.51765 -0.0376,0.21893 -0.25394,0.28016 -0.40128,0.44271 -0.0821,0.19658 -0.17476,0.22549 -0.91095,0.28398 -0.45317,0.036 -0.85422,0.11493 -0.89703,0.17651 -0.45774,0.0533 -0.45693,0.53288 -0.63639,0.74218 0,0.473 -0.0184,0.49036 -0.9909,0.93424 -0.40525,0.18497 -0.73682,0.39074 -0.73682,0.45725 -0.0791,0.2658 -0.31302,0.44974 -0.46889,0.6737 -0.0936,0.1405 -0.22816,0.16656 -0.77905,0.15092 -0.72815,-0.0207 -0.90724,0.072 -0.86209,0.44628 -0.38311,1.04136 -0.8833,0.98079 -1.57163,1.30968 -0.33767,-0.043 -0.38966,-0.0219 -0.48023,0.19505 -0.0559,0.13382 -0.1713,0.24331 -0.25653,0.24331 -0.18623,0.2192 -0.17983,0.71301 -0.23403,1.03477 -0.0677,0.0617 -0.35013,0.11684 -0.62758,0.12257 -0.56783,-0.0742 -0.78409,0.36646 -1.12595,0.60151 -0.33498,0 -0.8369,0.23414 -1.19126,0.55568 -0.27601,0.25047 -0.328,0.36362 -0.31466,0.68481 0.1012,0.56221 -0.37055,0.76103 -0.62506,1.12332 0,0.20109 -0.47237,0.16819 -0.71142,-0.0495 -0.26336,-0.23989 -0.50815,-0.23767 -0.50815,0.005 -0.10824,0.47345 -0.22019,0.97596 -0.45139,1.29139 -0.1368,0.73314 -0.56952,0.98129 -0.98027,1.47459 -0.45915,0.41633 -0.73306,0.56196 -1.0569,0.56196 -0.69475,0.22748 -1.18383,0.80906 -1.6609,1.2786 -0.48969,0.52914 -0.99749,1.16373 -1.44022,1.67821 0,0.24746 -0.0885,0.27743 -0.57805,0.19589 -0.56556,-0.0942 -0.67536,-0.0127 -0.66693,0.49531 0.006,0.35893 -0.0232,0.42511 -0.18703,0.42511 -0.24991,-0.16472 -0.54254,-0.11933 -0.84174,-0.18514 l -0.64766,0 -0.0499,0.43971 c -0.0646,0.56893 -0.64393,1.42375 -0.94143,1.3891 -0.0964,-0.38635 -0.34954,-0.71894 -0.46806,-1.09909 -0.36076,0.60632 -0.72024,1.33191 -1.00558,1.87476 -0.54597,0.29648 -0.42014,0.81255 -0.50062,1.35906 -0.007,0.37993 -0.0213,0.39814 -0.28702,0.37029 -0.31315,-0.10265 -0.40327,-0.73856 -0.49622,-0.98316 -0.23707,-0.0308 -0.72977,0.4428 -0.99972,0.96098 -0.14887,0.28575 -0.16086,0.28987 -0.56036,0.19275 -0.34086,-0.13657 -0.53441,-0.32064 -0.80208,-0.48124 -0.37698,0.46143 -0.50586,1.27206 -0.72409,1.8826 0,0.24226 -0.29056,0.33699 -0.50116,0.16338 -0.30421,-0.25076 -0.8778,-0.42526 -1.00801,-0.30666 -0.1013,0.17806 -0.24494,0.31534 -0.371,0.47763 -0.27315,0.2488 -0.3178,0.53796 -0.14645,0.94849 0.0894,0.21408 0.0764,0.27869 -0.0762,0.38071 -0.16081,0.10748 -0.21185,0.091 -0.40726,-0.13162 -0.67754,-0.80594 -0.30518,-0.94408 -1.21109,-0.24032 0.0291,0.0891 0.0846,0.28299 0.12344,0.43086 0.0675,0.25728 0.0579,0.26654 -0.22384,0.21478 -0.16195,-0.0298 -0.3675,-0.0799 -0.45679,-0.11136 -0.21246,-0.0749 -1.02684,0.53842 -1.14794,0.86456 -0.0499,0.13436 -0.17748,0.35719 -0.28352,0.49517 -0.16551,0.21537 -0.22912,0.2383 -0.44946,0.162 -0.53808,-0.18634 -0.7664,-0.0562 -0.84524,0.48182 l -0.0588,0.40129 -1.21956,0 c -1.18732,0 -1.22965,0.007 -1.60201,0.2665 -0.38121,0.26562 -0.46184,0.41036 -0.52196,0.93692 -0.33745,0.32083 -1.16175,0.7115 -1.48708,0.89594 -0.003,0.33592 -0.19668,0.5075 -0.80986,0.71926 -0.43232,0.55553 -0.9561,0.6119 -1.43632,0.9305 -0.38569,0.0355 -0.91303,0.56464 -1.07118,0.70541 -0.81472,-0.49508 -1.96957,-0.47469 -2.64529,-0.49196 l -3.84151,-0.0746 c -0.54413,-0.10052 -1.08694,0.0765 -1.59048,0.14148 -1.24069,0.29735 -2.41458,0.14167 -3.68929,0.46023 -0.89362,-0.7829 -1.58312,-0.62138 -2.6873,-0.39343 -0.3119,0.55106 -0.58972,0.77432 -0.88075,0.70779 -0.68986,0.21506 -1.25742,0.0839 -1.76358,0.15497 -0.57862,-0.43925 -0.86328,0.0979 -1.33018,0.50732 -0.37284,0.29703 -1.04433,0.35155 -1.53632,0.4196 -0.33805,0.21925 -1.00585,0.30659 -1.41096,0.18451 z"
     id="path2180"
     style="fill:#584528;fill-opacity:1" />
</svg>
