<?xml version="1.0" encoding="utf-8"?>
<!-- Generator: Adobe Illustrator 19.2.1, SVG Export Plug-In . SVG Version: 6.00 Build 0)  -->
<svg version="1.2" baseProfile="tiny" id="Layer_1" xmlns="http://www.w3.org/2000/svg" xmlns:xlink="http://www.w3.org/1999/xlink"
	 x="0px" y="0px" viewBox="0 0 372 263.2" xml:space="preserve">
<path d="M186.1,0c2.7,1.9,5.3,3.9,8,5.8l52.2,36.9c26.1,18.4,52.1,36.8,78.2,55.3c15.5,11,31.1,22,46.6,33c0.2,0.1,0.4,0.3,0.7,0.5
	c-62,43.8-123.9,87.7-185.9,131.5c-4.1-2.9-8.2-5.8-12.2-8.6l-43-30.4c-17.9-12.7-35.8-25.3-53.7-38c-19.2-13.6-38.5-27.2-57.7-40.8
	L1.7,132.7c-0.5-0.4-1.1-0.7-1.6-1v-0.3c0.3-0.2,0.7-0.4,1-0.6c5.8-4.1,11.5-8.2,17.3-12.2l83.9-59.3c25.6-18.1,51.1-36.2,76.7-54.2
	c2.3-1.6,4.5-3.3,6.7-4.9C185.8,0,185.9,0,186.1,0L186.1,0z M29.6,131.4c0.4,0.3,0.6,0.5,0.8,0.6c21,14.9,42,29.7,63,44.6
	c30.4,21.5,60.8,43.1,91.3,64.6c0.8,0.6,1.4,0.7,2.3,0c19.3-13.7,38.7-27.4,58-41.1l86.2-61c3.6-2.5,7.2-5.1,10.9-7.7
	C289.9,94.6,237.9,57.7,185.9,20.9C133.8,57.8,81.8,94.6,29.6,131.4z"/>
<path d="M327.5,131.5c-42.4,30-84.8,60-127.3,90.1c0-1.9,0.1-3.5,0-5.1c-0.2-2.7-0.1-5.6-0.8-8.2c-1.8-7.1-8-10-14.8-9.6
	c-8.4,0.5-13,6.3-13.2,14.2c-0.1,2.8,0,5.6,0,8.7c-42.6-30.1-84.9-60.1-127.4-90.1c42.4-30,84.7-59.9,127.3-90.1v1.7
	c0.2,3.7,0,7.5,0.7,11.1c1.1,6,6,9.7,12.1,10.1c2.6,0.1,5.2,0,7.7-1c5.6-2.3,7.9-6.9,8.2-12.6c0.2-2.9,0-5.9,0-9.2
	C242.8,71.5,285.1,101.4,327.5,131.5z M189,178.8c5.3,0,13.8-0.6,22.1-2c12.7-2,25-5.5,36.5-11.4c7.9-4.1,15.1-9.1,20.5-16.3
	c3.8-5,6.2-10.5,6.3-16.8c0.2-7.6-2.7-14-7.4-19.7c-5.8-7-13.1-11.9-21.2-15.8c-16.8-8.1-34.7-11.6-53.1-12.4
	c-11.9-0.5-23.8,0.2-35.6,2.4c-12.2,2.3-24,5.8-34.9,11.8c-7.9,4.3-15,9.6-20,17.2c-4.8,7.2-6.4,15-3.9,23.4
	c2.2,7.1,6.7,12.7,12.3,17.4c8.1,6.8,17.4,11.3,27.3,14.7C153.5,176.6,169.5,178.8,189,178.8L189,178.8z"/>
<path d="M148.8,110.6h10.4c1.8-0.1,1.8-0.1,1.8,1.7v38.4c0,1.1-0.2,1.5-1.4,1.5c-3.2-0.1-6.3,0-9.5,0.1c-1.3,0.1-1.2-0.6-1.2-1.5
	c0.1-5.1,0.1-10.2,0.2-15.3c0-0.2-0.1-0.4-0.1-0.8h-8.9c-1.9,0-1.9,0.1-1.9,2.1v14c0,1.1-0.3,1.4-1.4,1.4c-3.2,0-6.4,0.1-9.6,0.1
	c-0.8,0-1.1-0.3-1.1-1.2c0.1-12.2,0.1-24.4,0.1-36.6c0-1.2-0.5-2.9,0.2-3.6c0.6-0.6,2.3-0.3,3.5-0.3h8.3v14.8h10.9
	C148.8,120.6,148.8,115.8,148.8,110.6L148.8,110.6z M236.4,110.5h8.5c0.3,0,0.8,0.6,0.8,1v11.7c0,8.3,0.1,16.6,0.1,24.9v3
	c0,0.7-0.2,1.1-1,1.1c-2.2,0-4.4,0.2-6.6,0.1c-0.5,0-1.1-0.6-1.4-1.1c-5-7.3-9.9-14.6-14.8-21.8c-0.2-0.3-0.4-0.5-0.6-0.8
	c0,2.9-0.1,5.8,0,8.6c0.1,4.6,0.3,9.2,0.5,13.7c0,1-0.3,1.3-1.3,1.3c-2.4,0-4.9,0-7.3,0.1c-1,0-1.2-0.4-1.2-1.3
	c0.1-7.8,0.1-15.6,0.1-23.4c0-4.9-0.3-9.8-0.4-14.7c0-0.4-0.1-0.9,0-1.2c0.2-0.4,0.6-1,0.9-1c2.9-0.1,5.8-0.2,8.7-0.2
	c0.4,0,1,0.6,1.3,1.1c4.4,6.6,8.8,13.3,13.3,19.9c0.1,0.2,0.3,0.3,0.5,0.7C236.4,125,236.4,118,236.4,110.5z M170.8,110.7h11.9v17.8
	c0.6-1.1,1.1-2,1.6-3c2.3-4.5,4.7-9,7-13.6c0.4-0.9,0.9-1.3,2-1.3c3.4,0,6.8-0.1,10.2-0.2c0.3,0,0.7,0.1,1.2,0.2
	c-0.8,1.2-1.6,2.3-2.3,3.3c-2.9,4.4-5.7,8.7-8.5,13.2c-0.3,0.5-0.4,1.5-0.1,2c3.7,7.2,7.5,14.3,11.2,21.4c0.6,1.2,0.6,1.4-0.8,1.4
	c-3.4,0.1-6.9,0.2-10.3,0.4c-1.1,0.1-1.7-0.3-2.1-1.3c-2.9-6.4-5.9-12.8-8.9-19.2c-0.1-0.1-0.1-0.2-0.3-0.5v9.4
	c0.1,3.5,0.2,7,0.4,10.4c0,0.8-0.3,1.1-1,1.1c-3.3,0-6.6,0-9.9,0.1c-0.9,0-0.9-0.5-0.9-1.2c0.1-2.9,0.2-5.9,0.2-8.8
	c0-8.4-0.1-16.8-0.2-25.2C171.2,115.1,171,113,170.8,110.7L170.8,110.7z"/>
</svg>
