<?xml version="1.0" encoding="UTF-8" standalone="no"?>
<!-- Generator: Adobe Illustrator 19.2.1, SVG Export Plug-In . SVG Version: 6.00 Build 0)  -->

<svg
   xmlns:dc="http://purl.org/dc/elements/1.1/"
   xmlns:cc="http://creativecommons.org/ns#"
   xmlns:rdf="http://www.w3.org/1999/02/22-rdf-syntax-ns#"
   xmlns:svg="http://www.w3.org/2000/svg"
   xmlns="http://www.w3.org/2000/svg"
   xmlns:sodipodi="http://sodipodi.sourceforge.net/DTD/sodipodi-0.dtd"
   xmlns:inkscape="http://www.inkscape.org/namespaces/inkscape"
   version="1.2"
   id="Layer_1"
   x="0px"
   y="0px"
   viewBox="0 0 372 263.2"
   xml:space="preserve"
   sodipodi:docname="hkn-bear.svg"
   inkscape:version="0.92.2 5c3e80d, 2017-08-06"><metadata
     id="metadata4582"><rdf:RDF><cc:Work
         rdf:about=""><dc:format>image/svg+xml</dc:format><dc:type
           rdf:resource="http://purl.org/dc/dcmitype/StillImage" /><dc:title></dc:title></cc:Work></rdf:RDF></metadata><defs
     id="defs4580" /><sodipodi:namedview
     pagecolor="#ffffff"
     bordercolor="#666666"
     borderopacity="1"
     objecttolerance="10"
     gridtolerance="10"
     guidetolerance="10"
     inkscape:pageopacity="0"
     inkscape:pageshadow="2"
     inkscape:window-width="1366"
     inkscape:window-height="716"
     id="namedview4578"
     showgrid="false"
     inkscape:zoom="1.9832826"
     inkscape:cx="199.59559"
     inkscape:cy="111.43142"
     inkscape:window-x="0"
     inkscape:window-y="24"
     inkscape:window-maximized="1"
     inkscape:current-layer="Layer_1" /><path
     d="M186.1,0c2.7,1.9,5.3,3.9,8,5.8l52.2,36.9c26.1,18.4,52.1,36.8,78.2,55.3c15.5,11,31.1,22,46.6,33c0.2,0.1,0.4,0.3,0.7,0.5  c-62,43.8-123.9,87.7-185.9,131.5c-4.1-2.9-8.2-5.8-12.2-8.6l-43-30.4c-17.9-12.7-35.8-25.3-53.7-38c-19.2-13.6-38.5-27.2-57.7-40.8  L1.7,132.7c-0.5-0.4-1.1-0.7-1.6-1v-0.3c0.3-0.2,0.7-0.4,1-0.6c5.8-4.1,11.5-8.2,17.3-12.2l83.9-59.3c25.6-18.1,51.1-36.2,76.7-54.2  c2.3-1.6,4.5-3.3,6.7-4.9C185.8,0,185.9,0,186.1,0L186.1,0z M29.6,131.4c0.4,0.3,0.6,0.5,0.8,0.6c21,14.9,42,29.7,63,44.6  c30.4,21.5,60.8,43.1,91.3,64.6c0.8,0.6,1.4,0.7,2.3,0c19.3-13.7,38.7-27.4,58-41.1l86.2-61c3.6-2.5,7.2-5.1,10.9-7.7  C289.9,94.6,237.9,57.7,185.9,20.9C133.8,57.8,81.8,94.6,29.6,131.4z"
     id="path4571"
     style="fill:#000000;fill-opacity:1" /><path
     d="M 171.30078 41.400391 C 128.70078 71.600391 86.4 101.5 44 131.5 C 86.5 161.5 128.80039 191.49961 171.40039 221.59961 C 171.40039 218.49961 171.30039 215.70039 171.40039 212.90039 C 171.60039 205.00039 176.19961 199.19922 184.59961 198.69922 C 191.39961 198.29922 197.60039 201.20078 199.40039 208.30078 C 200.10039 210.90078 199.99922 213.8 200.19922 216.5 C 200.29922 218.1 200.19922 219.69961 200.19922 221.59961 C 242.69922 191.49961 285.1 161.5 327.5 131.5 C 285.1 101.4 242.8 71.5 200 41.5 C 200 44.8 200.2 47.799219 200 50.699219 C 199.7 56.399219 197.40078 61.000781 191.80078 63.300781 C 189.30078 64.300781 186.69961 64.400781 184.09961 64.300781 C 177.99961 63.900781 173.1 60.199219 172 54.199219 C 171.3 50.599219 171.50078 46.799609 171.30078 43.099609 L 171.30078 41.400391 z M 209.26758 83.289062 C 209.28418 83.276295 209.31579 83.279929 209.37305 83.292969 C 209.44098 83.308449 209.5132 83.348489 209.5332 83.380859 C 209.64782 83.484311 209.75415 83.603022 209.88086 83.695312 C 210.1168 83.906807 210.24023 83.888397 210.24023 83.642578 C 210.26972 83.645578 210.53341 83.561608 210.69727 83.689453 C 210.92939 83.804743 211.41355 83.844835 211.61914 83.765625 C 211.75016 83.715133 211.7754 83.717903 211.93555 83.814453 C 212.23524 83.929416 212.54786 84.123644 212.85156 84.146484 C 213.0273 84.086009 213.20822 84.129382 213.26562 84.244141 C 213.31318 84.339371 213.39107 84.36713 213.45117 84.3125 C 213.49222 84.27507 214.00638 84.297357 214.13477 84.341797 C 214.26387 84.425487 214.26526 84.625184 214.4707 84.558594 C 214.8185 84.545649 214.9815 84.513889 215.0332 84.449219 C 215.35695 84.501466 215.66093 84.53097 215.92969 84.740234 C 216.04359 84.827044 216.09254 84.836053 216.27148 84.814453 C 216.45399 84.792426 216.50563 84.80605 216.67969 84.914062 C 216.89957 85.050493 217.12124 85.117785 217.42969 85.140625 C 217.54192 85.149025 217.64997 85.176435 217.66797 85.203125 C 217.70677 85.260313 218.08988 85.391498 218.4082 85.455078 C 218.5318 85.479831 218.69468 85.542323 218.77148 85.595703 C 218.95592 85.724264 219.14584 85.853953 219.3418 85.955078 C 219.58547 86.045138 219.83425 86.151059 220.08789 86.199219 C 220.38561 86.322467 220.70306 86.426154 220.93359 86.689453 C 221.02929 86.745168 221.19901 86.882547 221.31055 86.994141 C 222.03947 87.328445 222.70248 87.674883 223.37109 88.21875 C 223.48786 88.381072 223.64538 88.448307 223.875 88.435547 C 224.12078 88.422647 224.13601 88.431228 224.19141 88.583984 C 224.22674 88.681796 224.27098 88.726562 224.33008 88.726562 C 224.37778 88.726563 224.41602 88.743132 224.41602 88.763672 C 224.41602 88.851018 224.66453 89.136719 224.74023 89.136719 C 224.79043 89.136719 224.82227 89.165811 224.82227 89.212891 C 224.82227 89.255234 224.85167 89.313717 224.88867 89.341797 C 224.92587 89.370131 224.95703 89.415679 224.95703 89.443359 C 224.95703 89.564775 225.3243 89.792969 225.51953 89.792969 C 225.55052 89.792969 225.6607 89.863892 225.76562 89.951172 C 225.95221 90.106457 225.96532 90.109636 226.36914 90.128906 C 226.62455 90.17159 226.81917 90.21861 226.9707 90.320312 C 227.12229 90.422029 227.10221 90.445771 227.16211 90.564453 C 227.22197 90.682911 227.36262 91.082419 227.62891 91.068359 C 227.70985 91.007199 228.13832 91.209484 228.16992 91.324219 C 228.20335 91.445583 228.52835 91.578801 228.66016 91.525391 C 228.78935 91.472868 228.98929 91.568224 229.02539 91.699219 C 229.04385 91.766452 229.08458 91.800781 229.14648 91.800781 C 229.19947 91.800781 229.24892 91.834063 229.26172 91.876953 C 229.2789 91.936751 229.37076 91.966471 229.69531 92.019531 C 229.95343 92.06189 230.12053 92.111391 230.14453 92.150391 C 230.51119 92.461384 230.87115 92.806245 231.29102 93.058594 C 231.35661 93.073589 231.53634 93.147266 231.68945 93.222656 C 232.02765 93.347931 232.43554 93.456112 232.69727 93.679688 C 232.69727 93.722899 232.74047 93.808401 232.79297 93.869141 C 232.87746 93.968641 232.9177 93.978209 233.14258 93.974609 C 233.47993 93.967868 233.83433 94.012533 233.89062 94.070312 C 233.98034 94.162196 234.22477 94.302734 234.29688 94.302734 C 234.33738 94.302734 234.38173 94.265723 234.39453 94.220703 C 234.45205 94.020358 234.90845 94.212753 234.96875 94.462891 C 234.98881 94.545387 235.03046 94.588256 235.09766 94.597656 C 235.1615 94.605912 235.20024 94.643961 235.21094 94.707031 C 235.22509 94.798281 235.23965 94.802656 235.4707 94.785156 L 235.7168 94.767578 L 235.89844 94.964844 C 236.04033 95.119324 236.10969 95.164062 236.21289 95.164062 C 236.28562 95.164063 236.35634 95.138642 236.36914 95.107422 C 236.39435 95.116332 236.60628 95.052536 236.61328 95.193359 C 236.71285 95.301526 236.81136 95.40266 236.91016 95.515625 C 237.06454 95.617568 237.14136 95.685728 237.16016 95.736328 C 237.26122 95.68411 237.52399 95.730939 237.55469 95.533203 C 237.64524 95.626544 237.82048 95.671581 237.86328 95.849609 C 238.01012 96.019444 238.14912 96.211658 238.33594 96.335938 C 238.44985 96.369508 238.74553 96.366601 238.86523 96.332031 C 239.03056 96.437682 239.26538 96.590711 239.47656 96.675781 C 239.93231 97.058974 240.4251 97.124506 240.9668 97.376953 C 241.32451 97.61688 241.72402 97.809827 242.0293 98.119141 C 242.04167 98.156381 242.14101 98.205922 242.25586 98.232422 C 242.48957 98.285962 242.55616 98.352528 242.44922 98.423828 C 242.30633 98.518838 242.3744 98.559637 242.72266 98.585938 C 242.91448 98.600637 243.10167 98.618094 243.13867 98.621094 C 243.17589 98.625394 243.2262 98.66955 243.25 98.71875 C 243.61849 99.04271 243.9977 99.351453 244.37695 99.658203 C 244.41445 99.671303 244.44531 99.704422 244.44531 99.732422 C 244.44531 99.843482 244.61891 99.929688 244.84766 99.929688 C 245.09905 100.04156 245.37736 100.07894 245.54102 100.36523 C 245.47752 100.63602 245.47938 100.70091 245.54688 100.72461 C 245.74298 100.74371 245.91383 100.5878 246.12305 100.80273 C 246.38807 100.90041 246.43561 100.97261 246.25781 101.00781 C 246.36284 101.1177 246.41023 101.15454 246.52344 101.2832 C 246.66875 101.51096 246.79115 101.63863 247.00977 101.78516 C 247.09932 101.92808 247.13038 102.10767 247.26758 102.19727 C 247.52075 102.24875 247.77754 102.35187 247.89062 102.44727 C 248.14648 102.66316 248.61879 102.75553 248.83789 102.63086 C 248.96293 102.55968 248.98849 102.51012 249.05859 102.21484 C 249.11962 101.95739 249.16022 101.87024 249.23242 101.83984 C 249.42904 101.66082 249.62292 101.66302 249.62305 101.34375 L 249.83008 101.36914 C 250.05015 101.18329 250.35122 100.96734 250.70312 100.82227 C 250.74863 100.82227 250.85571 100.76567 250.94141 100.69727 C 251.30768 100.66012 251.6877 100.52524 252.00781 100.55664 C 252.25256 100.76288 252.49335 100.97811 252.79688 101.09766 C 253.20395 101.28816 253.38426 101.49995 253.69336 101.74609 C 253.71862 101.7902 253.80457 101.89035 253.88477 101.96875 C 254.02097 102.24863 254.19498 102.49091 254.36133 102.75781 C 254.48011 102.90245 254.6267 103.01327 254.6875 103.21875 C 254.77254 103.42354 254.87059 103.62984 254.92969 103.8418 C 255.02965 104.01447 255.17297 104.18301 255.16797 104.39258 C 255.1591 104.57358 255.16674 104.58941 255.29102 104.62891 C 255.35894 104.69137 255.46164 104.70845 255.49414 104.81445 C 255.64264 104.95506 255.76461 105.19118 256.05664 105.27148 C 256.19505 105.27678 256.52513 105.26325 256.74414 105.34375 C 256.95009 105.40494 257.1642 105.45312 257.2207 105.45312 C 257.41353 105.55971 257.57441 105.70525 257.81055 105.65625 C 258.25592 105.52299 258.49043 105.39198 258.99219 105.09961 C 259.22004 104.87856 259.47256 104.63774 259.77148 104.44922 C 259.99919 104.32697 260.2517 104.20813 260.48242 104.11133 C 260.51286 104.03232 260.68875 103.79348 260.80078 103.67969 C 261.08413 103.63331 261.44173 103.49623 261.69336 103.49023 C 261.94498 103.48339 262.1717 103.61615 262.35352 103.72852 C 262.495 103.85809 262.66107 103.95518 262.77734 104.11523 C 263.00786 104.51133 263.35185 104.83239 263.57031 105.15625 C 263.63967 105.31967 263.70301 105.48297 263.78711 105.63086 C 263.85809 105.70069 263.88476 105.80344 263.91016 106.08789 C 263.93046 106.3166 263.96771 106.47727 264.00781 106.51367 C 264.11705 106.78233 264.21482 107.03806 264.29102 107.29883 C 264.33886 107.54477 264.39944 107.81188 264.39844 108.13477 C 264.44334 108.21065 264.48514 108.33641 264.49414 108.41211 C 264.50254 108.4879 264.52392 108.64574 264.54102 108.76367 C 264.56512 108.93016 264.55645 109.00103 264.49805 109.08203 C 264.37383 109.48736 264.23109 109.89942 264.30469 110.32812 C 264.43724 110.45742 264.58004 110.6168 264.70703 110.73828 C 265.00119 111.15218 265.47889 111.46942 265.72852 111.94336 C 265.74895 112.03519 265.78532 112.07889 265.85352 112.08789 C 266.0073 112.17969 266.1275 112.3256 266.30469 112.375 C 266.38356 112.50329 266.49202 112.61698 266.54102 112.75977 C 266.66338 113.05294 266.77466 113.15656 266.95117 113.42383 C 267.12769 113.69109 267.29531 113.84633 267.53125 114.28711 C 267.88255 115.02203 268.29598 115.71271 268.63867 116.44141 C 268.76656 116.44141 268.85742 116.55828 268.94922 116.83984 C 269.03384 117.05754 269.16391 117.19815 269.19141 117.4375 C 269.30138 117.63482 269.37758 117.84714 269.5332 118.01953 C 269.66919 118.20399 269.78125 118.38206 269.78125 118.41406 C 269.8929 118.63352 270.01271 118.87545 270.18164 119.04297 C 270.26925 119.25855 270.41203 119.47367 270.42383 119.74023 C 270.43873 119.80786 270.46512 119.91482 270.48242 119.97852 C 270.38744 120.11506 270.28028 120.34177 270.14258 120.49414 C 270.01089 120.6625 269.92354 120.88079 269.69141 120.90039 C 269.55583 120.90939 269.46286 120.94165 269.41016 120.99805 C 269.30424 121.11134 269.31016 121.16342 269.44336 121.27734 C 269.57166 121.38742 269.58738 121.44141 269.48828 121.44141 C 269.46263 121.53462 269.15921 121.76746 269.375 121.85156 C 269.44911 121.80127 269.48557 121.66165 269.57227 121.71875 C 269.61607 121.78347 269.46178 122.48623 269.39648 122.51953 C 269.42373 122.63095 269.42271 122.81233 269.50781 122.9707 C 269.50057 123.21221 269.57197 123.4201 269.75391 123.76953 C 269.8675 123.98768 269.92716 124.20126 270.11914 124.36328 C 270.15698 124.43658 270.21771 124.54136 270.25391 124.59766 C 270.4035 124.81795 270.52042 125.00305 270.70312 125.21289 C 270.87557 125.42967 271.05429 125.63026 271.23828 125.83984 C 271.47833 126.11336 271.66057 126.45832 271.91211 126.74023 C 271.95749 126.84551 272.00826 126.89453 272.06836 126.89453 C 272.22389 127.09347 272.44013 127.30047 272.58789 127.51172 C 272.62484 127.67984 272.69393 127.75586 272.81055 127.75586 C 272.91121 127.75586 273.06736 127.86415 273.06836 127.93555 C 273.20945 128.12909 273.37286 128.32841 273.47266 128.54883 C 273.6025 128.70857 273.75801 128.85155 273.87109 129.0332 C 274.23038 129.38074 274.41911 129.73153 274.82227 130.02734 C 274.97792 130.2416 275.0984 130.56667 275.29492 130.63867 C 275.50102 130.93431 275.72068 131.21991 275.97266 131.46094 C 276.17674 131.65527 276.43086 131.85045 276.55273 132.11719 C 276.50244 132.29971 276.68137 132.45079 277.14844 132.61914 C 277.39014 132.70629 277.56836 132.79397 277.56836 132.82617 C 277.69994 132.91238 277.83366 133.05548 278 133.10938 C 278.14891 133.22432 278.29006 133.33667 278.43555 133.45508 C 278.57449 133.5928 278.60352 133.64878 278.60352 133.79688 C 278.60352 134.05503 278.43442 134.36938 278.22852 134.49609 C 278.06487 134.65429 277.88286 134.79381 277.70312 134.92383 C 277.46197 135.04938 277.22691 135.19618 276.94922 135.20898 C 276.68879 135.22407 276.65619 135.23608 276.61719 135.33008 C 276.57082 135.44091 276.50777 135.41741 276.48047 135.2793 C 276.46921 135.22241 276.40004 135.18218 276.24609 135.14258 C 275.99397 135.07764 275.91974 135.11139 275.96484 135.27539 C 275.99922 135.40031 276.10808 135.45208 276.21289 135.39258 C 276.25894 135.36808 276.32718 135.36517 276.39648 135.38867 L 276.50586 135.42578 L 276.37891 135.51758 C 276.2283 135.62596 276.23198 135.7635 276.38477 135.7832 C 276.47066 135.79422 276.48633 135.77815 276.48633 135.66992 C 276.48633 135.53695 276.60246 135.45237 276.66406 135.54297 C 276.70837 135.60819 276.62922 135.94743 276.54102 136.07031 C 276.50337 136.12264 276.39387 136.20295 276.29688 136.24805 C 276.19987 136.29314 276.03516 136.40741 275.93164 136.50391 C 275.43579 136.87501 274.92115 137.10898 274.30469 137.21875 C 274.03771 137.29486 273.79618 137.3627 273.53906 137.4707 C 273.39054 137.49908 273.11221 137.56905 272.92188 137.62695 C 272.58677 137.72895 272.56482 137.73003 272.19727 137.67773 C 271.98854 137.64803 271.7588 137.6383 271.6875 137.6543 C 271.61628 137.6706 271.45567 137.69689 271.33203 137.71289 C 271.20825 137.72897 271.03777 137.77847 270.95117 137.82227 C 270.74603 137.92633 270.5 138.12987 270.5 138.19727 C 270.39012 138.28575 270.23106 138.3397 270.16016 138.4707 C 269.93912 138.67133 269.71759 138.8691 269.44922 138.9668 C 269.42032 139.0354 269.2618 139.05444 269.2207 138.99414 C 269.2069 138.97399 269.22391 138.88613 269.25781 138.79883 C 269.29161 138.71158 269.33472 138.55782 269.35352 138.45703 C 269.41231 138.32927 269.45084 138.19611 269.52734 138.07617 C 269.54274 138.01416 269.56733 137.92109 269.58203 137.86719 C 269.51856 137.81617 269.40909 137.65018 269.26758 137.61328 C 268.8735 137.5206 268.4928 137.40223 268.10938 137.27344 C 268.05033 137.23214 267.88224 137.14588 267.73633 137.08008 C 267.41045 136.83377 267.03297 136.64557 266.74414 136.34961 C 266.58732 136.24772 266.41781 136.12889 266.26953 136.01758 C 265.89989 135.84186 265.65852 135.58107 265.29688 135.41992 C 265.09822 135.37202 264.82704 135.23237 264.66406 135.32227 C 264.61836 135.37982 264.60569 135.4756 264.62109 135.66797 C 264.71994 136.23442 264.99471 136.63737 265.45117 137.01758 C 265.42499 137.02578 265.29917 137.06364 265.23047 137.08594 C 265.18867 137.13178 265.22222 137.15982 265.39844 137.22852 C 265.63845 137.469 265.89901 137.69884 266.1543 137.9707 C 266.22385 137.99949 266.2703 138.05645 266.2793 138.12305 C 266.38134 138.25686 266.53669 138.35137 266.58789 138.52734 C 266.65299 138.7456 266.64452 139.1182 266.57422 139.1582 C 266.52436 139.27086 266.51056 139.42948 266.4082 139.5332 C 266.3701 139.62462 266.33454 139.64453 266.21484 139.64453 C 266.08496 139.64453 266.06051 139.66357 266.00781 139.79883 C 265.97491 139.8834 265.93663 140.00978 265.92383 140.08008 C 265.90426 140.1886 265.91811 140.21202 266.00781 140.23242 C 266.31527 140.3027 266.83801 140.09284 266.91211 139.86914 C 267.03449 139.49965 267.35908 139.09289 267.45898 139.18359 C 267.43628 139.50121 267.40943 139.84435 267.48633 140.1582 C 267.61729 140.09396 267.84883 140.15982 267.92383 139.94336 C 267.96715 139.92898 268.07496 139.84802 268.16406 139.76172 C 268.27377 139.65536 268.36537 139.60352 268.44727 139.60352 C 268.60827 139.60352 268.64495 139.7083 268.52539 139.82422 C 268.34305 140.01946 268.17399 140.2374 268.00586 140.44531 C 267.96366 140.60938 267.96271 140.6483 268.00781 140.93555 C 268.04349 141.16341 268.0553 141.18251 268.16992 141.19531 C 268.29269 141.20816 268.29492 141.2111 268.29492 141.51367 C 268.29492 141.81086 268.26687 141.89622 268.10352 142.09961 C 268.04562 142.17175 268.02344 142.27636 268.02344 142.49609 L 268.02344 142.79492 L 267.76562 142.95117 C 267.60681 143.19902 267.72388 143.3586 267.32812 143.375 C 266.94863 143.63531 266.60503 143.76554 266.14062 143.77734 C 266.03456 143.77884 265.80279 143.79867 265.625 143.82227 C 265.44721 143.84557 265.20522 143.87467 265.08789 143.88867 C 264.95704 143.90351 264.82414 143.95257 264.74414 144.01367 C 264.54231 144.02627 264.28134 144.06607 264.10547 144.04297 C 264.04688 144.13486 263.88982 144.1319 263.5 144.0332 C 263.30366 143.9831 263.16928 143.96809 263.14258 143.99219 C 263.06355 144.0633 262.78287 144.03642 262.70117 143.94922 C 262.4555 143.84383 262.21582 143.70708 261.92773 143.70508 C 261.47426 143.6493 261.45317 143.64337 261.45117 143.54688 C 261.44919 143.4636 261.13144 143.27159 260.84766 143.18359 C 260.65818 143.12475 260.64258 143.10956 260.64258 142.98047 C 260.52025 142.87318 260.3996 142.69803 260.17383 142.67773 C 259.79092 142.53456 259.61491 142.20169 259.21875 142.24219 C 258.90466 142.26649 258.88314 142.26238 258.83984 142.17578 C 258.6345 141.76276 258.46347 141.64145 258.05859 141.62695 C 257.82245 141.61833 257.78437 141.60512 257.73047 141.51172 C 257.55372 141.45738 257.32878 141.36128 257.12695 141.30078 C 256.98678 141.21088 256.92731 141.1979 256.7793 141.2207 C 256.65687 141.23958 256.59382 141.27373 256.57812 141.32812 C 256.54281 141.45129 256.34247 141.42763 256.1875 141.2832 C 256.11489 141.21559 256.0155 141.16016 255.9668 141.16016 C 255.88211 141.16016 255.73872 141.26036 255.73828 141.31836 C 255.73785 141.36022 255.47902 141.48423 255.44922 141.45703 C 255.36786 141.39756 255.37726 141.08805 255.1543 141.24219 C 255.04152 141.29719 254.80663 141.30822 254.64062 141.26562 C 254.46464 141.25812 254.3473 141.35623 254.16016 141.24219 C 254.08107 141.24219 254.06728 141.26392 254.08008 141.375 C 254.09459 141.50645 254.09353 141.50681 253.89258 141.50781 C 253.78116 141.50841 253.65347 141.49135 253.60938 141.46875 C 253.51877 141.4222 253.43296 141.50306 253.47266 141.59766 C 253.48605 141.62936 253.45057 141.66861 253.38477 141.69141 C 253.19953 141.75553 253.12695 141.88904 253.12695 142.17383 C 253.12695 142.40327 253.11681 142.43164 253.03711 142.43164 C 252.96775 142.43164 252.94232 142.39518 252.91992 142.26758 C 252.87257 142.25551 252.69195 141.92417 252.51367 142.16602 C 252.40148 142.23855 252.12427 142.16618 252.20117 142.36719 C 252.16076 142.54022 252.19157 142.75375 252.01953 142.84375 C 251.89209 142.86125 251.7673 142.89348 251.63672 142.89648 C 251.44219 142.93179 251.39497 143.0318 251.48438 143.22656 C 251.50512 143.44587 251.5112 143.67871 251.5918 143.88672 C 251.7019 144.11338 251.7194 144.35938 251.625 144.35938 C 251.52116 144.35938 251.34004 144.10128 251.30664 143.90625 C 251.25975 143.63286 251.23667 143.58008 251.16797 143.58008 C 251.12197 143.58008 251.10445 143.6527 251.09375 143.85547 C 251.08183 144.10688 251.07072 144.13468 250.97852 144.14648 C 250.9186 143.97112 250.80509 143.64964 250.77539 143.40625 C 250.71973 143.36655 250.63358 143.33875 250.58398 143.34375 C 250.55649 143.48114 250.50572 143.85685 250.4043 143.96875 C 250.32898 143.96875 250.31042 143.93507 250.29102 143.75977 C 250.25685 143.45068 250.08728 143.30953 249.97656 143.49805 C 249.95006 143.54305 249.90716 143.58008 249.88086 143.58008 C 249.81623 143.58008 249.85789 142.84256 249.92969 142.7207 C 250.045 142.52461 249.89952 142.46131 249.59766 142.57617 L 249.43164 142.63867 L 249.45508 142.85938 C 249.47659 143.07171 249.47221 143.07921 249.35547 143.09961 C 249.28893 143.11121 249.21987 143.11216 249.20117 143.10156 C 249.14917 143.07231 249.15954 142.64097 249.21484 142.54688 C 249.28448 142.42854 249.2304 142.26758 249.12109 142.26758 C 249.10285 142.18969 249.02812 141.83308 248.95312 141.79688 C 248.90982 141.81408 248.82362 141.82903 248.76172 141.83203 C 248.66404 141.83547 248.64657 141.81615 248.63477 141.6875 C 248.62461 141.57739 248.65088 141.50857 248.73438 141.41797 C 248.84727 141.29602 248.85379 141.16764 248.75195 141.04883 C 248.84072 140.97735 248.99523 140.90397 248.99023 140.85547 C 248.96093 140.82265 248.9499 140.75211 248.9668 140.69141 C 248.96455 140.69171 248.64657 140.61897 248.51172 140.77344 C 248.4008 140.75444 248.35164 140.76153 248.33984 140.79883 C 248.24882 141.0966 248.20227 141.34548 248.19727 141.56445 C 248.19247 141.76695 248.17298 141.84041 248.10938 141.88281 C 248.04466 141.92581 248.01294 141.92582 247.96094 141.88672 C 247.87842 141.82441 247.91402 141.26201 248.01172 141.08789 C 248.17693 140.79359 248.12407 140.54664 247.87695 140.46094 C 247.63861 140.37842 247.57691 140.54818 247.6875 140.98438 C 247.7302 141.15279 247.72666 141.20604 247.66406 141.31641 C 247.62315 141.3884 247.56912 141.44727 247.54492 141.44727 C 247.52082 141.44727 247.47561 141.36255 247.44531 141.25977 C 247.39061 141.07275 247.39132 141.07314 247.21094 141.08594 L 247.0293 141.09766 L 247.01562 140.92773 C 247.06042 140.63949 247.10122 140.3468 247.14062 140.05664 C 247.14062 139.87606 247.12893 139.84766 247.05273 139.84766 C 246.95059 139.84766 246.73633 140.04207 246.73633 140.13477 C 246.73633 140.20935 246.61249 140.38086 246.55859 140.38086 C 246.53777 140.38086 246.48215 140.31061 246.43555 140.22461 L 246.34961 140.06836 L 246.73633 139.53125 C 246.86224 139.38445 246.93235 139.13019 246.87305 139.0293 C 246.83895 138.97249 246.84091 138.89747 246.87891 138.76758 C 246.93593 138.57376 246.88835 138.45312 246.75391 138.45312 C 246.70904 138.45312 246.50977 138.73989 246.50977 138.80469 C 246.44774 138.8853 246.21687 139.2674 246.13477 139.4375 C 246.16726 139.58543 246.08972 139.68359 245.94141 139.68359 C 245.83947 139.68359 245.83594 139.66994 245.83594 139.43164 C 245.83594 139.21953 245.85981 139.13761 245.99219 138.92188 C 246.18564 138.60671 246.20428 138.38988 246.04297 138.33398 C 245.9211 138.29898 245.87982 138.0928 245.74609 138.24805 C 245.58715 138.35102 245.49866 138.60179 245.53906 138.83203 C 245.57999 139.06521 245.53327 139.18037 245.375 139.23047 C 245.29926 139.25457 245.21837 139.27344 245.19727 139.27344 C 245.13527 139.27344 245.15711 138.85315 245.22461 138.74219 C 245.26251 138.68137 245.272 138.61347 245.25 138.57617 C 245.229 138.54167 245.23176 138.43139 245.25586 138.33008 C 245.27996 138.22893 245.30559 138.07403 245.30859 137.98633 C 245.31881 137.7926 245.42627 137.70961 245.5625 137.78711 C 245.70296 137.867 245.78816 137.81053 245.78516 137.64062 C 245.77966 137.42683 245.72101 137.02495 245.69141 136.99805 C 245.57439 137.08468 245.34166 137.11927 245.31836 137.3418 C 245.33426 137.37835 245.35337 137.4779 245.35938 137.5625 C 245.37122 137.71024 245.3654 137.7168 245.23633 137.7168 C 245.1602 137.7168 245.03372 137.76151 244.94922 137.82031 C 244.82549 137.90617 244.79883 137.95167 244.79883 138.07812 C 244.79883 138.27487 244.71793 138.3773 244.58789 138.3457 C 244.44419 138.31067 244.43576 138.24478 244.53516 137.95508 C 244.62745 137.68644 244.62016 137.45347 244.51758 137.41797 C 244.42864 137.38727 244.26929 137.45849 244.21289 137.55469 C 244.18419 137.60371 244.15242 137.76646 244.14062 137.91602 C 244.11954 138.19401 244.0465 138.30652 243.91797 138.26172 C 243.82111 138.22791 243.88639 137.69556 244.00977 137.51172 C 244.06267 137.43279 244.13096 137.29313 244.16016 137.20312 C 244.20816 137.05554 244.2045 137.03392 244.125 136.97852 C 244.06376 136.93611 244.044 136.88792 244.0625 136.82422 C 244.26734 136.81412 244.31814 136.77588 244.55078 136.80078 C 244.67042 136.7212 244.61197 136.67038 244.33203 136.61328 C 244.10788 136.56778 244.06896 136.57094 243.90234 136.64844 C 243.72709 136.72839 243.67743 136.94567 243.44141 136.85938 L 243.32031 136.84961 L 243.33984 137.16602 C 243.35084 137.33992 243.38256 137.50691 243.41016 137.53711 C 243.43768 137.56705 243.4493 137.63891 243.4375 137.69531 C 243.4258 137.75182 243.44301 137.82964 243.47461 137.86914 C 243.55929 137.97462 243.47375 138.04593 243.29883 138.01562 C 243.08843 137.97937 243.05654 137.94135 243.02344 137.68359 C 243.00664 137.55459 242.9835 137.41645 242.9707 137.37695 C 242.93919 137.27814 242.75389 137.28599 242.5957 137.39258 C 242.43209 137.50265 242.38155 137.4731 242.34375 137.24414 C 242.32059 137.1028 242.29457 137.06055 242.23047 137.06055 C 242.18472 137.06055 242.12611 137.09758 242.09961 137.14258 C 242.06806 137.19618 242.00547 137.22266 241.91797 137.22266 C 241.80236 137.22266 241.78305 137.20913 241.7832 137.11133 C 241.78333 137.04935 241.83458 136.90771 241.89648 136.79688 C 241.97345 136.28151 241.95478 136.11965 241.38477 136.24609 L 241.41016 136.61133 C 241.43426 136.95207 241.43106 136.97699 241.35156 136.97656 C 241.19069 136.9754 241.14266 136.91052 241.13086 136.68164 C 241.10166 136.40979 241.04337 136.15583 241.07227 135.87695 C 241.04307 135.8395 240.99871 135.7676 240.97461 135.7168 C 240.9415 135.647 240.89302 135.625 240.77734 135.625 C 240.64218 135.625 240.6206 135.63852 240.5957 135.75195 C 240.5804 135.82239 240.56836 135.96244 240.56836 136.0625 C 240.56836 136.28293 240.50518 136.4043 240.38867 136.4043 C 240.25849 136.4043 240.20806 136.28202 240.25586 136.09375 C 240.27376 135.88923 240.25235 135.69863 240.34375 135.51953 C 240.34375 135.40433 240.24024 135.3883 240.00195 135.4668 C 239.7766 135.54105 239.59084 135.45322 239.48047 135.21875 C 239.34339 134.92747 239.28591 134.88577 238.99805 134.88477 C 238.72212 134.74245 238.42345 134.59444 238.19336 134.35938 C 238.15023 134.36538 238.06932 134.34726 238.01172 134.31836 C 237.84874 134.4248 237.86677 134.39599 237.68359 134.53125 C 237.55216 134.45847 237.47184 134.36607 237.31445 134.32617 C 237.22211 134.32277 237.09676 134.29071 237.03516 134.25391 C 236.93816 134.19654 236.92642 134.16643 236.94922 134.03516 C 236.97366 133.89463 236.96414 133.87689 236.82617 133.80469 C 236.74368 133.7615 236.60648 133.67042 236.52148 133.60352 C 236.37586 133.48902 236.35163 133.48306 236.08398 133.50586 C 235.89385 133.45533 235.73101 133.45928 235.55859 133.39258 C 235.47992 133.40798 235.39158 133.43838 235.36328 133.45898 C 235.2793 133.52038 235.01642 133.53477 234.97852 133.48047 C 234.95982 133.45328 234.94375 133.37308 234.94336 133.30078 C 234.94264 133.16087 234.86311 132.9589 234.78711 132.9082 C 234.64616 132.81403 234.28524 133.01864 234.33594 133.16406 C 234.35687 133.22416 234.3174 133.24047 234.06836 133.26367 C 233.76194 133.29226 233.65578 133.25016 233.58008 133.07031 C 233.54415 132.98611 233.38297 132.98255 233.29297 133.06445 C 233.19242 133.15575 233.03716 133.139 232.91797 133.02344 C 232.73862 132.80301 232.55708 132.58183 232.28711 132.46875 C 232.17061 132.58103 231.99058 132.67604 231.89648 132.79688 C 231.82021 132.79688 231.71765 132.74746 231.62305 132.66406 C 231.48933 132.54628 231.44367 132.53125 231.2207 132.53125 C 231.00307 132.53125 230.96293 132.5172 230.92383 132.4375 C 230.79659 132.29535 230.73483 132.10999 230.53125 132.05469 C 230.43638 131.99209 230.05828 132.2016 229.98828 132.35547 C 229.92402 132.49745 229.82727 132.50204 229.75977 132.36719 C 229.60962 132.25382 229.45651 132.13664 229.31641 132.01953 C 229.26006 131.92353 229.10657 131.9143 228.98242 132 C 228.85573 132.08732 228.70433 132.07336 228.51953 131.95898 C 228.40315 131.88848 228.33565 131.86988 228.28125 131.89648 C 228.02064 131.96294 227.7424 132.01001 227.50586 132.13672 C 227.41276 132.26263 227.25521 132.33272 227.22461 132.51562 C 227.14471 132.57605 227.14342 132.59425 227.19922 132.68945 C 227.29889 132.93108 227.42892 132.98896 227.44922 133.31641 C 227.49002 133.48608 227.31012 133.49155 227.53906 133.6875 C 227.62575 133.76875 227.6962 133.85421 227.69531 133.87891 C 227.69264 133.9448 227.46319 134.17338 227.36719 134.20508 C 227.40687 134.23538 227.44343 134.32032 227.48633 134.29492 C 227.60576 134.4447 227.7483 134.58342 227.7832 134.76172 C 227.77972 135.10625 227.84433 135.44332 227.92773 135.51562 C 228.08672 136.09738 228.18177 136.59395 228.46289 137.03125 C 228.5561 137.36619 228.65361 137.7158 228.7793 138.04492 C 228.91968 138.26314 229.00518 138.48884 228.98438 138.58594 C 228.97038 138.64636 228.97163 138.78719 228.98633 138.90039 C 229.00839 139.06922 229.02922 139.10844 229.10742 139.11914 C 229.07345 139.39039 229.18643 139.6423 229.23633 140.00781 C 229.26524 140.373 229.29368 140.71947 229.49414 141.0332 C 229.57586 141.28987 229.6426 141.56663 229.75 141.82812 C 229.77667 142.13193 229.80194 142.41214 229.91797 142.69336 C 229.98697 142.97356 230.08098 143.28845 230.08398 143.51367 C 230.0879 143.73888 230.13371 144.01206 230.32031 144.19336 C 230.43245 144.6237 230.74953 145.3418 230.82812 145.3418 C 230.90299 145.59488 230.91147 145.85029 231.11719 146.07031 C 231.11719 146.17342 231.15452 146.27589 231.22852 146.36719 C 231.33531 146.70332 231.4566 147.03511 231.70312 147.31055 C 231.73352 147.73554 231.66412 148.1954 232.06836 148.375 C 232.19243 148.64404 232.10711 148.88844 232.61523 149.36914 C 232.71609 149.3592 232.73217 149.3766 232.75977 149.52539 C 232.97177 149.89241 233.21779 150.03348 233.45703 150.44531 C 233.45703 150.48072 233.50555 150.52658 233.56445 150.54688 C 233.64872 150.64218 233.73531 150.73909 233.82031 150.83789 C 234.0674 151.02973 234.18319 151.04585 234.24609 151.37109 C 234.3167 151.58876 234.31592 151.82501 234.53516 151.9707 C 234.58407 151.98252 234.63684 152.02817 234.65234 152.07227 C 234.8853 152.29962 235.05199 152.68596 235.33594 152.72266 C 235.40394 152.78601 235.52798 152.83709 235.58398 152.95312 C 235.66443 153.01782 235.76469 153.12189 235.80859 153.18359 C 235.85238 153.24513 235.91838 153.29492 235.95508 153.29492 C 236.00995 153.39552 236.05973 153.46978 236.11133 153.58203 C 236.58788 154.14477 237.17899 154.62607 237.57812 155.26562 C 237.74072 155.46786 237.90277 155.68339 238.09375 155.8457 C 238.09468 155.91421 238.45121 156.26838 238.55273 156.30078 C 238.69773 156.50307 238.9032 156.70747 238.9707 156.96875 C 239.07415 157.08503 239.21458 157.2039 239.30078 157.3125 C 239.49894 157.52278 239.68905 157.76196 239.85547 158.00977 C 239.96927 158.23375 240.02633 158.44866 240.1543 158.6543 C 240.26957 158.85689 240.35397 159.07878 240.51562 159.22852 C 240.50033 159.31443 240.84003 160.05859 240.89453 160.05859 C 241.04338 160.28887 241.21529 160.52328 241.33398 160.77734 C 241.44377 160.98464 241.57584 161.18126 241.64844 161.40625 C 242.0106 161.78125 242.27142 162.25249 242.72852 162.51758 C 243.10476 162.77449 243.48807 163.02442 243.92969 163.15625 C 244.36991 163.24299 244.82406 163.34769 245.29297 163.30859 C 245.84993 163.32519 246.41649 163.34028 246.55273 163.33984 C 246.68887 163.33944 246.92906 163.37427 247.08594 163.41797 C 247.48128 163.48572 247.86038 163.60266 248.25586 163.66016 C 248.37147 163.65476 248.55089 163.66434 248.6543 163.68164 C 249.02959 163.70689 249.29609 163.73015 249.64062 163.95312 C 249.91431 164.12231 250.29562 164.30429 250.50586 164.41797 C 250.71615 164.53155 250.84271 164.71552 250.94141 164.73242 C 251.2285 164.94947 251.5096 165.23275 251.87305 165.31445 C 252.00419 165.43013 252.32001 165.67823 252.53906 165.82422 C 252.61466 165.83802 252.70774 165.88765 252.74414 165.93555 C 252.98311 166.16615 253.19275 166.42239 253.5332 166.49219 C 253.58652 166.55788 253.66523 166.61831 253.70703 166.62891 C 253.76067 166.64167 253.80763 166.743 253.86523 166.9707 C 253.95935 167.34305 254.10966 167.56055 254.27344 167.56055 C 254.43365 167.56055 254.98544 167.73037 255.02734 167.79297 C 255.16895 167.88618 255.30815 167.97501 255.44922 168.07031 C 255.54418 168.11444 255.72616 168.22957 255.85352 168.32617 L 256.08594 168.50195 L 256.08594 168.8418 C 256.08964 169.02806 256.09466 169.1983 256.09766 169.2207 C 256.12576 169.32727 256.03711 169.50713 256.18359 169.54883 C 256.2739 169.63969 256.3724 169.73235 256.4668 169.83398 C 256.71561 170.04065 256.81607 170.17925 256.81641 170.31836 C 256.81679 170.46154 256.67847 170.47023 256.56055 170.33594 C 256.30177 170.15656 256.047 169.99356 255.75391 169.86914 C 255.53731 169.74286 255.31895 169.64203 255.12305 169.48828 C 254.43996 169.33241 253.80677 169.02904 253.13477 168.92188 C 253.03248 169.01505 253.08259 169.09952 253.39648 169.36523 C 253.74781 169.71879 254.12897 170.03028 254.43359 170.43164 C 254.5271 170.475 254.61731 170.54604 254.63281 170.58984 C 254.64809 170.63378 254.7515 170.7196 254.86328 170.7793 C 255.09279 170.90182 255.11118 171.00043 254.91211 171.04883 C 254.33589 170.89139 253.7364 170.73909 253.24414 170.41016 C 253.0097 170.34323 252.74548 170.24378 252.48828 170.20898 C 252.00137 170.10829 251.66509 169.95134 251.19727 169.90234 C 251.13156 169.86017 251.03151 169.81287 250.97461 169.79688 C 250.7538 169.7344 250.66392 169.96965 250.82812 170.17969 C 250.87598 170.24092 250.92801 170.3422 250.94531 170.4043 C 251.06796 170.57083 251.2014 170.64466 251.2793 170.83984 C 251.3483 170.947 251.44913 171.03055 251.48633 171.16016 C 251.56903 171.2677 251.58513 171.48152 251.51562 171.54492 C 251.48699 171.57122 251.40345 171.57645 251.31055 171.56055 C 251.1618 171.43445 250.98264 171.30936 250.875 171.16406 C 250.32442 171.13602 249.81093 170.98139 249.27148 170.96289 C 248.98609 170.95139 248.71996 171.00064 248.44141 170.93164 C 248.27899 171.01717 248.10642 171.09436 247.95508 171.20898 C 247.72461 171.34813 247.53294 171.52307 247.29688 171.60547 C 247.19816 171.60907 247.02662 171.64068 246.91602 171.67578 C 246.64597 171.67858 246.40399 171.68831 246.11914 171.69531 C 245.859 171.75982 245.67141 171.73673 245.42969 171.82812 L 245.43359 171.82422 C 245.2542 171.87833 244.95828 171.83929 244.80859 171.74219 C 244.59071 171.71204 244.29401 171.68819 244.12891 171.55664 C 243.92216 171.37537 243.79532 171.13752 243.53906 171.33203 C 243.31493 171.30053 243.06527 171.35887 242.75977 171.26367 C 242.63089 171.29311 242.50725 171.19327 242.36914 170.94922 C 241.88016 170.84828 241.57544 170.77831 241.17969 171.125 C 240.61519 170.98388 240.09435 171.0516 239.54492 170.91992 C 239.32193 170.89122 239.08274 170.81302 238.8418 170.85742 L 237.13867 170.89062 C 236.83943 170.89825 236.32955 170.89012 235.96875 171.10938 C 235.89871 171.04706 235.66496 170.81268 235.49414 170.79688 C 235.2815 170.65579 235.04886 170.63077 234.85742 170.38477 C 234.58598 170.29096 234.501 170.21518 234.5 170.06641 C 234.35594 169.98474 233.98927 169.81201 233.83984 169.66992 C 233.81318 169.43676 233.77819 169.37149 233.60938 169.25391 C 233.44447 169.13798 233.42619 169.13672 232.90039 169.13672 L 232.35938 169.13672 L 232.33398 168.95898 C 232.29907 168.72071 232.19725 168.66164 231.95898 168.74414 C 231.86157 168.77787 231.83287 168.76913 231.75977 168.67383 C 231.71292 168.61271 231.65687 168.51253 231.63477 168.45312 C 231.58112 168.30871 231.22105 168.03721 231.12695 168.07031 C 231.08742 168.08431 230.99563 168.10829 230.92383 168.12109 C 230.79913 168.14392 230.79627 168.1393 230.82617 168.02539 C 230.84327 167.95978 230.86806 167.87348 230.88086 167.83398 C 230.47965 167.52236 230.6438 167.58452 230.34375 167.94141 C 230.25722 168.04011 230.23526 168.0475 230.16406 168 C 230.09646 167.95482 230.08931 167.92488 230.12891 167.83008 C 230.20474 167.64826 230.18541 167.52041 230.06445 167.41016 C 230.00852 167.33831 229.94539 167.27802 229.90039 167.19922 C 229.84274 167.14655 229.58979 167.22291 229.45508 167.33398 C 229.3618 167.41092 229.23242 167.36902 229.23242 167.26172 C 229.13577 166.99137 229.07907 166.63404 228.91211 166.42969 C 228.79358 166.50082 228.7076 166.58218 228.55664 166.64258 C 228.3798 166.68537 228.37449 166.6831 228.30859 166.55664 C 228.18905 166.32717 227.97027 166.11686 227.86523 166.13086 C 227.82408 166.23919 227.78514 166.52101 227.64648 166.56641 C 227.53022 166.57876 227.52253 166.57058 227.51953 166.40234 C 227.48388 166.16031 227.53865 165.93205 227.29688 165.80078 C 227.17052 165.56036 227.01131 165.23922 226.85156 164.9707 C 226.79906 165.13906 226.68723 165.28592 226.64453 165.45703 C 226.51279 165.47236 226.25712 165.09377 226.22852 164.8418 L 226.20508 164.64648 L 225.91797 164.64648 C 225.78547 164.67558 225.65564 164.65552 225.54492 164.72852 C 225.47282 164.72852 225.46089 164.69995 225.46289 164.54102 C 225.46663 164.31666 225.41841 164.28057 225.16797 164.32227 C 224.95098 164.35846 224.91211 164.34402 224.91211 164.23438 C 224.71604 164.00655 224.4903 163.72654 224.27344 163.49219 C 224.06218 163.28426 223.84673 163.02668 223.53906 162.92578 C 223.39564 162.92578 223.27364 162.86015 223.07031 162.67578 C 222.88841 162.45733 222.69722 162.34812 222.63672 162.02344 C 222.53412 161.88377 222.48355 161.66085 222.43555 161.45117 C 222.43555 161.34388 222.32745 161.34288 222.21094 161.44922 C 222.10508 161.54592 221.89648 161.5596 221.89648 161.4707 C 221.7838 161.31024 221.57414 161.22358 221.61914 160.97461 C 221.62503 160.83238 221.60259 160.78295 221.48047 160.67188 C 221.32354 160.52952 221.10147 160.42578 220.95312 160.42578 C 220.80175 160.32169 220.70459 160.1252 220.45312 160.1582 C 220.33026 160.1556 220.20568 160.13072 220.17578 160.10352 C 220.15176 159.96103 220.15467 159.74358 220.07227 159.64648 C 220.0346 159.64648 219.98368 159.59836 219.95898 159.53906 C 219.91887 159.44206 219.89562 159.43207 219.74609 159.45117 C 219.44125 159.30552 219.22044 159.33223 219.05078 158.87109 C 219.07079 158.70537 218.99042 158.66313 218.66797 158.67383 C 218.42398 158.68073 218.36582 158.66952 218.32422 158.60742 C 218.25525 158.50826 218.15033 158.42628 218.11523 158.30859 C 218.11523 158.27916 217.96852 158.18912 217.78906 158.10742 C 217.35925 157.91084 217.35156 157.90284 217.35156 157.69336 C 217.2721 157.6007 217.27105 157.38893 217.06836 157.36523 C 217.04941 157.33793 216.87258 157.30106 216.67188 157.28516 C 216.34597 157.25914 216.30388 157.24736 216.26758 157.16016 C 216.20226 157.08814 216.10644 157.06184 216.08984 156.96484 C 216.08984 156.79961 216.04132 156.73479 215.91602 156.73438 C 215.81554 156.73401 215.78175 156.70071 215.68945 156.51172 C 215.52382 156.41506 215.47392 156.20795 215.20117 156.24805 C 215.09769 156.19752 215.07975 156.15221 215.03125 155.8125 C 215.01505 155.69978 214.98003 155.59548 214.95312 155.58008 C 214.72626 155.57898 214.48939 155.58059 214.26367 155.55859 C 214.20012 155.51554 214.05559 155.02702 214.05859 154.87305 C 213.76607 154.5767 213.55123 154.27153 213.10352 154.26953 C 213.02883 154.29473 212.96489 154.31164 212.96289 154.30664 C 212.95989 154.30139 212.9201 154.15691 212.875 153.98633 C 212.87444 153.81171 212.94826 153.31012 212.74219 153.44141 C 212.3594 153.4892 212.23563 153.43876 212.03516 153.15625 C 211.93618 153.01679 211.83013 152.8909 211.79883 152.875 C 211.48999 152.62042 211.4747 152.46261 211.08984 152.50391 C 210.89819 152.51522 210.87846 152.50806 210.85156 152.41016 C 210.84276 152.31778 210.86517 152.22953 210.82617 152.14453 C 210.78028 152.06653 210.76752 152.06505 210.61523 152.12305 C 210.34729 152.22574 210.31451 152.21147 210.34961 151.99805 C 210.36661 151.89532 210.4197 151.70649 210.4668 151.57812 C 210.62596 151.14573 210.56856 151.03157 210.24023 151.13477 C 210.07818 151.18587 210.05602 151.18328 209.98242 151.10938 C 209.88089 150.99158 209.9664 150.76805 209.72461 150.81055 C 209.48639 150.778 209.47162 150.76212 209.45312 150.53711 C 209.44119 150.39098 209.41483 150.354 209.24805 150.25195 C 209.0924 150.11578 208.88785 149.98295 208.73242 149.90625 C 208.52259 149.86511 208.50862 149.85392 208.51562 149.74805 C 208.56325 149.62036 208.65025 149.50877 208.65625 149.37109 C 208.29674 149.00634 207.83594 148.5663 207.70508 148.00195 C 207.67832 147.75559 207.62981 147.71347 207.39062 147.73047 C 207.18179 147.74522 207.13619 147.68415 207.08789 147.32812 C 207.04063 146.97988 206.94633 146.78084 206.79883 146.71094 C 206.73026 146.67844 206.64773 146.65039 206.61523 146.65039 C 206.58002 146.65039 206.53225 146.55721 206.49805 146.41797 C 206.38999 146.19486 206.27377 145.97867 206.23047 145.73438 C 206.16524 145.71524 206.0443 145.47682 205.875 145.62891 L 205.875 145.44141 C 205.875 145.14259 205.78094 144.98702 205.58203 144.95312 C 205.20585 144.69692 204.91151 144.36768 204.5918 144.03516 C 204.54285 143.98082 204.47001 143.93079 204.44531 143.87109 C 203.99108 144.12941 203.52574 144.29359 203.40234 144.85742 C 203.35774 144.98809 203.33707 145.10439 203.35938 145.11719 C 203.43714 145.16086 203.35035 145.21098 203.15039 145.23828 C 202.96563 145.38447 202.68236 145.46711 202.63086 145.66797 C 202.64156 145.74687 202.6533 145.91112 202.6543 146.03516 C 202.65724 146.26008 202.6559 146.2628 202.5293 146.25 C 202.41832 146.2721 202.30911 146.29035 202.19922 146.31445 C 202.19222 146.44001 202.17634 146.86447 202.11914 147.08203 C 201.94509 147.25684 202.06959 147.51983 201.64648 147.42383 C 201.50207 147.37794 201.19336 147.44092 201.19336 147.51562 C 201.19336 147.53688 201.14649 147.59052 201.08789 147.63672 C 200.99874 147.70735 200.93497 147.83742 200.85547 148.10938 C 200.84826 148.13398 200.74743 148.17783 200.63281 148.20703 C 200.3687 148.43482 200.1007 148.5653 199.8457 148.73633 C 199.7877 148.81836 199.70536 148.93188 199.66406 148.98828 C 199.46955 149.32351 199.37439 149.51833 198.96094 149.58203 L 198.65234 149.58203 L 198.33398 150.09375 C 198.21921 150.09377 197.96003 150.37058 197.92773 150.52734 C 197.87174 150.70079 197.80624 150.87401 197.77344 151.05273 C 197.77344 151.17293 197.65255 151.29632 197.56445 151.26562 C 197.29599 151.3676 197.03366 151.37095 196.92188 151.68945 C 196.87215 151.81497 196.82436 151.95289 196.81836 151.99609 C 196.71163 152.06508 196.59794 152.16656 196.4707 152.22266 C 196.30182 152.26709 196.08275 152.25127 195.95312 152.40625 C 195.65748 152.6329 195.35625 152.87704 195.01562 153.06641 C 194.93771 153.19445 194.71226 153.37279 194.5918 153.40039 C 194.37632 153.56171 194.10675 153.67763 194.06055 153.96875 C 193.70554 154.50369 193.21731 154.80632 192.78516 155.31641 C 192.68687 155.36062 192.11795 155.59505 192.46289 155.56055 C 192.46489 155.57242 192.74342 155.61704 192.49609 155.74805 C 192.19045 156.0244 191.88256 156.26674 191.51758 156.45312 C 191.34188 156.53037 191.13653 156.55279 191.02734 156.73438 C 190.86823 156.90918 190.49524 157.4532 190.39844 157.65234 C 190.34595 157.76069 190.27623 157.8418 190.23633 157.8418 C 190.08297 158.40648 190.12895 158.89825 190.45898 159.41992 L 191.03125 159.41992 C 191.36742 159.43302 191.64049 159.49692 191.96094 159.47852 C 192.28142 159.46662 192.73833 159.45141 193.18164 159.50391 C 193.4865 159.52186 193.76758 159.58913 193.76758 159.64453 C 193.92126 159.7188 194.1 159.78045 194.25 159.87695 C 194.39575 159.96725 194.55531 160.03017 194.67578 160.04297 C 194.92261 160.06833 195.42358 160.17516 195.51758 160.22266 C 195.75878 160.34041 195.96044 160.43494 196.16406 160.60547 C 196.29401 160.66303 196.49198 160.77452 196.60352 160.85352 C 196.81775 161.0016 197.02428 161.19106 197.25781 161.28516 C 197.3439 161.28516 197.39014 161.32498 197.46484 161.46484 C 197.54107 161.60774 197.5952 161.65451 197.73047 161.69141 C 197.86304 161.72759 197.90769 161.76437 197.92969 161.85547 C 198.38893 162.304 198.72524 162.82875 199.24414 163.25586 C 199.51804 163.6211 199.76717 164.01907 200.06055 164.38086 C 200.23509 164.63322 200.39426 164.85724 200.53516 165.12305 C 200.44493 165.22785 200.21501 165.14967 200.10938 164.97852 C 200.05677 164.89336 199.95887 164.80695 199.88477 164.78125 C 199.59595 164.59017 199.33698 164.45264 198.98438 164.40234 C 198.93923 164.40234 198.8906 164.38227 198.875 164.35938 C 198.83356 164.29848 198.76367 164.35301 198.76367 164.44531 C 199.07361 164.76416 199.31796 165.12042 199.6875 165.36523 C 199.93397 165.56256 200.14848 165.74884 200.34375 165.99805 C 200.41482 166.04571 200.47266 166.11419 200.47266 166.15039 C 200.47266 166.20589 200.43663 166.21221 200.24414 166.19141 C 199.67128 165.73975 199.35448 165.72279 198.74414 165.65039 C 198.64237 165.58029 198.46613 165.57031 198.42383 165.63281 C 198.35892 165.72848 198.44878 165.87147 198.60352 165.91797 C 199.03571 166.16874 199.49997 166.37467 199.89062 166.61914 C 199.96044 166.73804 199.87081 166.82792 199.71484 166.79492 C 199.34026 166.70163 198.97737 166.58287 198.62305 166.45117 C 198.50278 166.45117 198.49718 166.4593 198.52148 166.58398 C 198.53592 166.65726 198.58591 166.76702 198.63281 166.82812 C 198.67981 166.88923 198.71875 166.94838 198.71875 166.95898 C 198.71875 166.99383 198.44904 167.10027 198.43164 167.07227 C 198.42204 167.05718 198.38797 166.92173 198.35547 166.76953 C 198.28639 166.70804 198.29076 166.34489 198.11523 166.55469 C 198.07858 166.64171 197.93788 166.57123 197.83594 166.41406 C 197.24715 166.20828 196.59968 165.96458 195.91406 166.28516 C 195.79034 166.26556 195.37905 166.12282 195.11523 166.24609 C 194.76509 166.29179 194.45157 166.35825 194.10352 166.31055 C 193.6623 166.47619 193.59116 166.46295 193.20312 166.27344 C 192.91015 166.23424 192.67384 166.20798 192.38281 166.20898 C 192.07691 166.13318 191.74566 166.06495 191.47266 165.91016 C 191.47266 165.89296 191.19591 165.88372 190.85938 165.88672 C 190.26212 165.89352 190.24552 165.89102 190.16602 165.79492 C 190.10364 165.71972 190.07159 165.70749 190.02539 165.74219 C 189.95215 165.79719 189.44669 165.82685 189.36719 165.78125 C 189.28594 165.73464 189.13952 165.78467 188.89453 165.94336 C 188.66744 166.09046 188.48225 166.1228 188.43945 166.02148 C 188.4066 165.94308 187.91548 165.93437 187.77539 166.00977 C 187.60619 165.99467 187.39396 165.95398 187.18555 165.95898 C 186.80775 165.95898 186.72338 165.97185 186.67578 166.03125 C 186.62241 166.09665 186.61441 166.0967 186.53711 166.0332 C 186.47935 165.9857 186.37541 165.9658 186.19531 165.9668 C 186.05079 165.9682 185.90714 165.94667 185.86914 165.91797 C 185.81274 165.87517 185.80168 165.87966 185.80078 165.94336 C 185.80023 165.98559 185.73997 166.07262 185.66797 166.13672 C 185.53484 166.25731 185.42847 166.25389 185.44727 166.13086 C 185.24728 166.02972 185.33474 165.70243 184.9043 165.81055 C 184.78268 165.79325 184.62644 165.84983 184.58594 165.76562 C 184.54723 165.73787 184.53686 165.47914 184.41602 165.64453 C 184.23881 165.70916 184.03446 165.82858 183.85742 165.76758 C 183.6926 165.65323 183.52453 165.9777 183.38672 165.47656 C 183.28036 165.403 183.16803 165.34877 183.07812 165.26367 C 182.98353 165.26367 182.35451 165.07009 182.19336 164.99219 C 182.02476 164.92009 181.86224 164.92602 181.72656 164.79297 C 181.60468 164.7466 181.54213 164.68209 181.45703 164.51562 C 181.39612 164.39635 181.34592 164.26887 181.3457 164.23047 C 181.34487 164.1009 181.24029 163.94988 181.13477 163.92578 C 181.03786 163.83002 180.82985 163.81391 180.87305 163.66602 C 180.79894 163.28668 180.73655 162.92089 180.42969 162.63867 C 180.47019 162.01986 180.45852 161.7475 180.38672 161.6543 C 180.34472 161.59999 180.31055 161.52212 180.31055 161.48242 C 180.31055 161.40305 180.07374 161.2926 179.81445 161.25 C 179.65899 161.22442 179.65656 161.22078 179.63086 160.97852 C 179.59788 160.66604 179.56662 160.60379 179.41211 160.55469 C 179.30756 160.52154 179.28096 160.48397 179.25586 160.33203 C 179.23746 160.21916 179.246 160.10947 179.2793 160.04297 C 179.32874 159.94406 179.32024 159.92352 179.16602 159.79102 C 179.03597 159.72603 178.9021 159.6436 178.77539 159.5957 C 178.76509 159.4814 178.78997 159.2688 178.82617 159.1543 C 178.84716 159.0873 178.84707 159.03125 178.82617 159.03125 C 178.70531 158.84909 178.60681 158.63603 178.41992 158.50586 C 178.41992 158.40081 178.20598 158.24374 178.10352 158.27344 C 177.96354 158.3139 177.91015 158.19763 177.96875 157.97852 C 177.99745 157.87051 178.0272 157.65608 178.0332 157.50195 C 177.82035 157.2099 177.62123 157.10533 177.61523 156.71875 C 177.63126 156.56658 177.62338 156.55416 177.47461 156.50586 C 177.38796 156.47746 177.26156 156.44369 177.19336 156.42969 C 177.09812 156.41103 177.07031 156.38233 177.07031 156.30273 C 177.13814 156.0834 177.26625 155.91346 177.25195 155.66406 C 177.30385 155.52111 177.30187 155.49509 177.23438 155.43359 C 177.1924 155.39539 177.12659 155.36355 177.08789 155.36328 C 176.99781 155.36272 176.89151 155.09195 176.89062 154.85938 C 176.89024 154.72225 176.86368 154.65983 176.77148 154.58203 C 176.67138 154.49638 176.65693 154.4584 176.67773 154.31641 C 176.69451 154.20211 176.73897 154.12415 176.82227 154.06445 C 176.95104 153.97219 176.94979 153.98617 176.8418 153.55469 C 176.90463 153.31332 176.93338 153.04105 177.05664 152.78906 C 177.08689 152.4347 177.10768 152.39655 177.39844 152.12891 C 177.67207 151.87708 177.83639 151.59673 177.83594 151.38281 C 177.83558 151.2402 177.92859 151.03711 177.99609 151.03711 C 178.09207 151.03711 178.07327 150.85928 177.9707 150.80078 C 177.85652 150.73581 177.85668 150.62553 177.9707 150.45508 C 178.02497 150.31397 178.07356 150.17256 178.13086 150.0332 C 178.17146 149.97864 178.18973 149.91628 178.17383 149.89258 C 178.13856 149.84057 178.4263 149.43654 178.54688 149.36914 C 178.76939 149.06401 179.02815 148.75835 179.18555 148.40625 C 179.27085 148.38036 179.2941 148.09157 179.2168 148.01367 C 179.09962 147.89571 179.16646 147.62344 179.36914 147.39062 C 179.49616 147.24471 179.69224 146.78371 179.65234 146.72461 C 179.64034 146.70692 179.6689 146.64198 179.7168 146.58008 C 179.79897 146.41785 179.86171 146.24195 179.97656 146.09961 C 180.17964 145.90014 180.23726 145.74958 180.22656 145.45117 C 180.35488 145.02218 180.47119 144.70543 180.80469 144.34961 C 180.80469 144.30771 180.83188 144.27344 180.86328 144.27344 C 180.92915 144.27344 181.21094 143.89835 181.21094 143.81055 C 181.21094 143.77826 181.17968 143.72732 181.14258 143.69922 C 181.16038 143.52769 181.17179 143.43494 181.18359 143.30078 C 181.10389 143.24748 181.10393 143.24118 181.17383 143.20508 C 181.2154 143.18358 181.28137 143.05903 181.32227 142.92969 C 181.45285 142.61874 181.56156 142.3159 181.60156 141.98047 C 181.62101 141.96739 181.69678 141.852 181.76758 141.72266 C 181.89058 141.4985 181.89416 141.4752 181.84766 141.23047 C 181.82076 141.08926 181.78513 140.87621 181.76953 140.75781 C 181.75013 140.60998 181.72213 140.54297 181.67773 140.54297 C 181.64213 140.54297 181.60189 140.57573 181.58789 140.61523 C 181.53595 140.76493 181.41756 141.01599 181.38086 141.05469 C 181.35796 141.07939 181.33231 141.05951 181.31641 141.00391 C 181.28375 140.88916 181.21094 140.8833 181.21094 140.99414 C 181.21094 141.09254 181.14046 141.10247 181.10156 141.00977 C 181.07996 140.95817 181.06112 140.95303 181.01172 140.99023 C 180.96132 141.02813 180.94147 141.02188 180.91797 140.95508 C 180.878 140.83946 180.70564 140.84361 180.64844 140.96094 C 180.59822 141.06379 180.30941 141.14015 180.25781 141.06445 C 180.22346 141.01545 180.16354 141.01394 179.33203 141.05664 C 178.80896 141.08368 178.73438 141.0957 178.73438 141.1582 C 178.73437 141.32417 178.45245 141.35629 178.40625 141.19531 C 178.38782 141.13131 178.33974 141.11528 178.14258 141.11328 C 178.0103 141.11188 177.79578 141.09698 177.66602 141.08008 C 177.44351 141.05138 177.43485 141.05359 177.50195 141.12109 C 177.54115 141.16051 177.56724 141.22638 177.55664 141.26758 C 177.54302 141.32898 177.50199 141.33998 177.3418 141.33398 C 177.06738 141.32215 176.89403 141.24966 176.86133 141.13086 C 176.61141 141.04736 176.45613 140.90573 176.14648 141.07617 C 176.08228 141.07617 176.07295 141.10201 176.09375 141.21875 C 176.12171 141.377 176.08046 141.42337 175.94727 141.38477 C 175.85972 141.35945 175.7207 141.15287 175.7207 141.04883 C 175.7207 141.00753 175.63161 140.99414 175.35742 140.99414 L 174.99414 140.99414 L 175.00781 141.12695 C 175.02042 141.24568 175.00893 141.26164 174.89844 141.27344 C 174.81086 141.28244 174.76454 141.26549 174.74414 141.21289 C 174.6941 141.08472 174.58558 140.99414 174.47852 140.99414 C 174.42191 140.99414 174.34354 140.95425 174.30664 140.90625 C 174.26399 140.84955 174.21262 140.8293 174.16602 140.8457 C 174.10472 140.86715 174.09725 140.90774 174.12305 141.0957 C 174.15819 141.35197 174.13102 141.37209 173.90039 141.24219 C 173.77617 141.17219 173.73408 141.16758 173.58594 141.20898 C 173.44877 141.31538 173.29806 141.40551 173.16211 141.52344 C 173.00653 141.50644 172.86594 141.55606 172.69922 141.47266 C 172.5912 141.49236 172.56836 141.48322 172.56836 141.41602 C 172.56836 141.32949 172.47805 141.2409 172.30273 141.1582 C 172.20897 141.1139 172.18531 141.11634 172.13281 141.18164 C 172.09932 141.22324 172.03694 141.25972 171.99414 141.26172 C 171.87029 141.26778 171.625 141.37748 171.625 141.42578 C 171.625 141.45018 171.64663 141.49072 171.67383 141.51562 C 171.70943 141.54857 171.70651 141.59103 171.66211 141.67383 C 171.58147 141.8247 171.49797 141.84389 171.44727 141.72266 C 171.38484 141.573 171.1939 141.47408 171.05078 141.51758 C 170.88712 141.56771 170.82198 141.66828 170.89258 141.77148 C 170.98212 141.90196 170.96124 141.97852 170.83594 141.97852 C 170.6403 141.82777 170.41827 141.57684 170.13281 141.55664 C 170.08933 141.59625 170.16246 141.99756 170.25586 142.23242 C 170.3268 142.41035 170.29856 142.51172 170.17773 142.51172 C 170.06236 142.51172 169.92632 142.29792 169.89062 142.06055 C 169.85338 141.81383 169.61649 141.58655 169.43945 141.62695 C 169.33375 141.65105 169.29392 141.72746 169.35742 141.78516 C 169.41867 141.84097 169.55173 142.25167 169.55273 142.39062 C 169.55479 142.59542 169.49414 142.63699 169.30469 142.55859 C 169.16898 142.50257 169.14844 142.47475 169.14844 142.34375 C 169.14844 142.26137 169.08732 142.06987 169.01172 141.91797 C 169.00768 141.37365 169.10011 141.19377 168.68359 141.34375 C 168.57113 141.4132 168.43273 141.42451 168.36133 141.54102 C 168.39893 141.67544 168.53633 142.04182 168.45703 142.26172 C 168.33948 142.35055 168.1582 142.21792 168.1582 142.04297 C 168.1582 141.9674 168.1288 141.88357 168.0918 141.85547 C 167.9724 141.67679 167.85157 141.45688 167.71289 141.36328 C 167.64057 141.36328 167.55142 141.35264 167.51562 141.33984 C 167.37468 141.29062 167.38585 141.5341 167.55078 142.0918 C 167.59248 142.23333 167.61546 142.37686 167.60156 142.41016 C 167.52237 142.59813 167.25492 142.2965 167.16992 141.92383 C 167.05797 141.48736 166.61668 141.25114 166.13281 141.36719 C 166.02141 141.39019 165.87088 141.41959 165.79688 141.43359 C 165.64735 141.46035 165.36915 141.6445 165.36914 141.7168 C 165.36914 141.74232 165.41752 141.79388 165.47852 141.83008 C 165.63883 141.92556 165.68418 142.02358 165.64258 142.19141 C 165.69596 142.55537 165.81364 143.03048 165.77734 143.17969 C 165.81654 143.20627 165.85247 143.25516 165.85547 143.28906 C 165.88471 143.53202 165.92154 143.69148 165.96484 143.77148 C 166.00324 143.84101 166.00269 143.87776 165.96289 143.91406 C 165.93389 143.94074 165.91016 144.01157 165.91016 144.07227 C 165.99659 144.13307 166.10288 144.25532 166.22461 144.29492 C 166.22461 144.32962 166.18401 144.35547 166.13281 144.35547 C 166.13292 144.40361 165.98498 144.65301 166.13477 144.81836 C 166.13507 144.88058 166.15193 144.96285 166.17383 145.00195 C 166.27825 145.19025 166.35938 145.39024 166.35938 145.46094 C 166.35938 145.56266 166.29199 145.5987 166.04883 145.625 C 165.8655 145.64488 165.72436 145.75 165.88086 145.75 C 165.98276 145.75 165.99918 145.79881 165.95508 145.97656 C 165.92326 146.50184 166.02815 146.7828 166.06055 147.25781 C 166.11523 147.37194 166.03322 147.47679 165.94922 147.40039 C 165.89449 147.35039 165.77344 147.37455 165.77344 147.43555 C 165.77344 147.45645 165.82482 147.49042 165.88672 147.51172 C 165.9749 147.54226 165.9996 147.58027 166 147.68555 C 166.0004 147.75938 166.02915 147.9198 166.06445 148.04102 C 166.12205 148.2362 166.12235 148.27142 166.06055 148.35742 C 166.07901 148.38024 166.17527 148.53287 166.26367 148.60938 C 166.25697 148.64901 166.27674 148.72218 166.30664 148.77148 C 166.20633 149.19972 166.26764 149.5175 166.0332 150.0332 C 166.036 150.07829 166.00334 150.19936 165.96094 150.30078 C 165.88104 150.49226 165.87013 150.73193 165.92773 151.02539 C 165.95333 151.15457 165.94272 151.22083 165.88672 151.29883 C 165.91762 151.5262 165.97969 151.87459 165.90039 152.12305 C 165.86869 152.1458 165.83894 152.22146 165.83594 152.28906 C 165.82823 152.4435 165.73129 152.80683 165.68359 152.86133 C 165.66259 152.88386 165.66415 152.98626 165.68555 153.08789 C 165.75586 153.41929 165.74167 153.53594 165.62109 153.58594 C 165.54646 153.82928 165.42718 154.04464 165.35938 154.32227 C 165.36299 154.69414 165.41419 155.10871 165.46289 155.16211 C 165.49439 155.19645 165.50789 155.33123 165.49609 155.51172 C 165.48193 155.73875 165.45717 155.81724 165.38867 155.86914 C 165.30907 155.92948 165.30164 155.9861 165.30664 156.45117 C 165.30974 156.73442 165.32434 157.00268 165.33984 157.04688 C 165.33784 157.17268 165.29804 157.31158 165.33594 157.42773 C 165.40432 157.49001 165.3169 157.73691 165.2207 157.75391 C 165.2149 157.80288 165.17588 157.86409 165.20898 157.90039 C 165.30451 157.92225 165.32422 157.95096 165.32422 158.07422 C 165.29912 158.24778 165.09596 158.25058 165.25977 158.50977 C 165.25543 158.71286 165.24955 158.72548 165.13281 158.73828 C 164.98711 158.75354 164.99052 158.73704 165.07812 158.92773 C 165.13553 159.05317 165.13896 159.11975 165.09766 159.30078 C 165.10696 159.45312 165.0697 159.60412 165.125 159.75195 C 165.0929 159.82796 164.96289 159.82835 164.96289 159.75195 C 164.96289 159.67835 164.90564 159.64454 164.83984 159.68164 C 164.80194 159.70294 164.80612 159.80997 164.85352 160.09766 C 164.94279 160.63884 164.96446 160.71289 165.03906 160.71289 C 165.09338 160.80133 165.1574 160.95407 165.25 161.05664 C 165.2654 161.11201 165.30946 161.1859 165.34766 161.2207 C 165.40306 161.27106 165.40603 161.30189 165.36523 161.37109 C 165.32239 161.44416 165.33318 161.47736 165.42578 161.56836 C 165.48645 161.62808 165.57219 161.73464 165.61719 161.80664 C 165.6984 161.93615 165.70436 161.93655 166.04102 161.93555 C 166.2283 161.93455 166.54763 161.95718 166.75195 161.98438 C 166.95625 162.01228 167.16304 162.02547 167.21094 162.01367 C 167.2616 162.00177 167.32859 162.02371 167.37109 162.06641 C 167.44366 162.13951 167.66055 162.14362 169.05859 162.10352 C 169.12049 162.10172 169.51202 162.10844 169.92773 162.11914 C 170.69204 162.19795 171.45495 162.2927 172.2207 162.3418 C 172.25169 162.3642 172.40301 162.3915 172.55859 162.4043 C 172.7142 162.4166 172.89107 162.45619 172.95117 162.49219 C 173.34112 162.58437 173.76241 162.52015 174.07617 162.70508 C 174.55132 162.87127 174.88497 163.03592 175.25781 163.49609 C 175.3968 163.62199 175.60894 163.72692 175.80273 163.76562 C 175.97627 163.86135 176.14033 163.99119 176.3457 163.99219 C 177.0343 164.52768 178.0015 164.55221 178.43945 165.45703 C 178.9183 165.5297 178.93512 165.67028 179.21289 166.0332 C 179.29457 166.23188 179.39047 166.42196 179.48047 166.61914 C 179.61112 166.79074 179.68425 167.1991 179.59375 167.25 C 179.51394 167.29497 179.40068 167.18684 179.42578 167.08984 C 179.22835 166.759 179.07625 166.39358 178.71289 166.24609 C 178.62634 166.24609 178.59414 166.27724 178.55664 166.40039 C 178.48878 166.62258 178.4986 166.71668 178.5957 166.79688 C 178.73812 166.95153 178.85935 167.13252 179.00586 167.27148 C 179.17978 167.51082 179.37994 167.71325 179.30664 168.03906 C 179.13209 167.89173 178.7676 167.70808 178.6875 167.49414 C 178.2595 167.16303 177.85202 166.9358 177.41406 167.11523 C 177.60615 167.48961 177.73411 167.90432 178.08594 168.17383 C 178.15864 168.17383 178.16958 168.24768 178.10938 168.33398 C 178.07716 168.38016 178.01848 168.35909 177.80859 168.22852 C 177.66516 168.13929 177.51316 168.01171 177.47266 167.94531 C 177.16923 167.74254 177.12494 167.55523 176.83984 167.13672 C 176.70127 167.2793 176.46006 167.29785 176.41016 167.57812 C 176.49911 168.01201 176.66988 168.18607 176.93555 168.54297 C 176.89878 168.59537 176.84793 168.58332 176.59766 168.46094 C 176.28136 168.33486 176.09592 168.13759 175.90039 167.92773 L 175.68164 167.92773 C 175.38996 167.92773 174.97723 168.0537 174.76758 168.20703 C 174.69808 168.25797 174.69941 168.2726 174.78711 168.41211 C 174.92592 168.56769 175.08819 168.726 175.17969 168.91016 C 175.17969 169.012 175.15062 169.00869 174.71875 168.85938 C 174.48626 168.77918 174.45898 168.75673 174.45898 168.65039 C 174.38111 168.55308 174.23152 168.50313 174.22852 168.36133 L 174.11523 168.49414 C 174.00218 168.5531 173.90235 168.64488 173.77539 168.67188 C 173.53706 168.64638 173.19455 168.58583 172.92188 168.64453 C 172.72843 168.67256 172.70167 168.69087 172.60547 168.86523 C 172.40473 168.95781 172.26747 169.09934 172.17188 169.24023 C 172.10766 169.31197 172.0294 169.3271 171.62695 169.3457 C 171.36811 169.3577 171.13849 169.37587 171.11719 169.38867 C 171.09609 169.40038 171.06106 169.45346 171.03906 169.50586 C 170.86338 169.54526 170.61185 169.66251 170.41797 169.56641 C 170.04547 169.48881 169.73282 169.27693 169.4082 169.53906 C 166.52137 169.53996 168.74728 168.69095 166.20117 169.61523 C 166.20407 169.54365 166.178 169.41181 166.2168 169.32031 C 166.18832 169.32031 166.05648 169.36853 165.92383 169.42773 C 165.69103 169.53143 165.67327 169.53317 165.41211 169.48047 C 165.26657 169.40379 165.08 169.37545 164.96289 169.25977 C 164.59066 169.14338 164.24947 168.99618 163.83789 169.01758 C 163.70174 169.00528 163.45794 168.98747 163.29492 168.98047 C 163.02783 168.95227 162.74358 168.95185 162.50781 168.93555 C 162.44929 168.86265 162.0731 168.77925 161.81445 168.78125 C 161.40922 168.75398 161.23156 168.76708 160.79297 168.88477 C 160.57466 168.89137 160.25335 168.88063 160.08008 168.86133 C 159.90678 168.84173 159.70491 168.82141 159.63281 168.81641 C 159.43765 168.79051 159.25521 168.70944 159.04102 168.74414 C 158.9456 168.67205 158.39169 168.67369 158.10742 168.74609 C 157.90718 168.79699 157.82016 168.79179 157.40234 168.71289 C 157.29095 168.69219 157.04698 168.6525 156.86133 168.625 C 156.67568 168.59755 156.49423 168.55204 156.45703 168.52344 C 156.41988 168.49484 156.26999 168.46007 156.125 168.44727 C 155.89492 168.42684 155.8451 168.40483 155.7207 168.27734 C 155.56354 168.11644 155.35034 168.08051 155.22656 168.19336 C 155.19505 168.17404 154.80668 168.26693 154.85938 167.96875 C 154.79123 167.76172 154.59107 167.77553 154.54688 167.99023 C 154.52056 168.11817 154.50277 168.12801 154.2832 168.16211 C 154.03294 168.201 153.9375 168.17042 153.9375 168.05273 C 154.45005 167.89942 154.5742 167.84796 154.16016 167.24219 C 154.08621 167.07717 154.07974 166.71214 153.75391 166.34961 C 153.65659 166.11588 153.58791 165.8433 153.39453 165.67969 C 153.31366 165.57203 153.20314 165.48875 153.14844 165.35156 C 153.01851 165.13646 152.94915 164.92063 152.68359 164.89453 C 152.61356 164.80025 152.53897 164.67389 152.42578 164.54883 C 152.29986 164.33793 152.14305 164.15108 152.06445 163.91211 C 151.92951 163.79827 151.75703 163.71126 151.64844 163.55859 C 151.50728 163.36869 151.51671 163.18982 151.25 163.05469 C 151.04101 162.81112 150.8287 162.61218 150.66406 162.30859 C 150.49414 162.24552 150.3758 162.06665 150.16602 162.12305 L 149.9082 162.12109 L 149.87305 161.82031 C 149.82352 161.41031 149.63367 161.07735 149.40625 160.99805 C 149.31145 160.84874 149.23836 160.58235 149.03906 160.65625 C 148.95972 160.63735 148.84302 160.71029 148.76172 160.58984 C 148.71852 160.58984 148.71158 160.53084 148.73438 160.34766 C 148.76198 160.12599 148.75698 160.10272 148.67188 160.07812 C 148.59248 159.92796 148.40509 159.82664 148.43359 159.62695 C 148.4221 159.45904 148.4007 159.41325 148.3125 159.37305 C 148.18732 159.3162 148.10946 159.19541 148.06836 158.98828 C 148.0426 158.85807 148.01798 158.83406 147.84961 158.78906 C 147.64173 158.73334 147.43904 158.58316 147.33984 158.41016 C 147.23366 158.30574 147.08584 158.2313 147.02344 158.09961 C 147.01635 157.97203 146.88892 157.85391 146.7207 157.82031 C 146.55091 157.78636 146.28516 157.5349 146.28516 157.4082 C 146.28516 157.26257 146.23763 157.1875 146.14453 157.1875 C 145.98163 157.35257 145.7851 157.6056 145.58789 157.5293 C 145.55429 157.48786 145.51309 157.36463 145.49609 157.25391 C 145.47635 157.12463 145.42738 157.01698 145.35938 156.95508 C 145.24664 156.85231 145.13803 156.5614 145.17773 156.4668 C 145.11934 156.44939 144.82185 156.16194 144.55664 156.29102 C 144.48947 156.26662 144.4102 156.24084 144.3457 156.21484 C 144.343 156.19793 144.33287 156.09534 144.32227 155.98828 C 144.39335 155.89565 144.52879 155.7141 144.55469 155.6875 C 144.49999 155.66852 144.48982 155.6286 144.51172 155.52344 C 144.54534 155.36042 144.45597 155.30561 144.2793 155.37891 C 144.19233 155.41496 144.16992 155.45446 144.16992 155.57227 C 144.10409 155.6133 144.04345 155.80244 143.84961 155.77344 C 143.75494 155.83046 143.6671 155.87695 143.6543 155.87695 C 143.41658 155.68256 143.17472 155.48684 142.97656 155.25977 C 142.90206 155.05649 142.90342 154.84937 142.97852 154.56445 C 143.02878 154.37364 142.91713 154.30541 142.47656 154.25781 L 142.07812 154.21484 L 142.05078 153.95508 C 142.02107 153.67307 141.96576 153.60807 141.78125 153.63867 C 141.67822 153.65569 141.65935 153.63975 141.62305 153.50586 C 141.58376 153.36091 141.57414 153.3536 141.37305 153.3418 C 141.14234 153.32822 141.0572 153.25662 141 153.01953 C 140.84308 152.84763 140.65257 152.73232 140.57227 152.46289 C 140.49642 152.31079 140.40971 152.18459 140.37891 152.18359 C 140.27943 152.17789 140.0533 152.14395 140 152.12695 C 139.9716 152.11793 139.93507 152.03506 139.91797 151.94336 C 139.88067 151.74219 139.75239 151.64251 139.59961 151.69531 C 139.42154 151.72106 139.18191 151.60413 139.12891 151.82617 C 138.77936 151.63319 138.40354 151.59387 138.23633 151.2168 C 138.19255 151.07658 138.15344 151.03588 138.01172 150.98438 C 137.90295 150.9447 137.75062 150.82487 137.5957 150.65625 C 137.28278 150.38383 136.93584 150.42832 136.83008 150.09766 C 136.65603 149.82812 136.49429 149.72079 136.33984 149.5293 C 136.33984 149.3153 136.11763 149.11586 135.86523 149.10156 C 135.712 149.15813 135.57742 149.21578 135.41406 149.26758 C 135.40366 149.2581 135.38324 149.11295 135.36914 148.94531 C 135.34671 148.67896 135.32865 148.62903 135.22266 148.54883 C 135.14752 148.49173 135.04146 148.45714 134.94336 148.45703 C 134.78474 148.37039 134.58371 148.26096 134.41016 148.22266 C 134.26683 148.1277 134.08722 148.00412 133.91992 147.88867 C 133.85636 147.73646 133.77853 147.70811 133.45703 147.72461 C 133.05878 147.74517 132.96437 147.81368 133.04688 148.02148 C 133.12168 148.20958 133.13331 148.54442 133.07031 148.66602 C 133.04221 148.72018 132.9674 148.87449 132.9043 149.00977 C 132.81164 149.20885 132.76424 149.26322 132.65234 149.29492 C 132.57838 149.40465 132.49883 149.51937 132.42383 149.63281 C 132.43833 149.72355 132.46603 149.80538 132.48633 150.02344 C 132.45586 150.26886 132.39349 150.38281 132.29102 150.38281 C 132.19169 150.38511 131.94118 150.00344 131.79492 150.39648 C 131.79642 150.43337 131.79211 150.71976 131.81641 150.91602 C 131.78389 151.1693 131.71856 151.40475 131.66016 151.46875 C 131.27273 151.64125 131.05844 151.72994 130.99414 152.18555 C 130.93593 152.22898 130.89258 152.30744 130.89258 152.36914 C 130.84599 152.46243 130.78451 152.53547 130.75781 152.63867 C 130.75781 152.87245 130.69099 152.95441 130.48047 152.97461 C 130.37358 152.98481 130.26087 152.97648 130.23047 152.95508 C 130.17949 153.00583 130.02941 153.1024 129.97461 153.20898 C 129.90381 153.37268 129.8255 153.52723 129.7793 153.69727 C 129.69442 153.70467 129.2511 153.82172 129.01953 153.79492 C 128.86776 153.98323 128.81492 154.2257 128.50195 154.2832 C 128.45832 154.33682 128.39182 154.41167 128.35352 154.45117 C 128.29983 154.57046 128.31391 154.77055 128.19141 154.81055 C 128.13561 154.81055 128.08469 154.76973 128.05859 154.70703 C 127.96351 154.47921 127.5837 154.68524 127.45312 155.03516 C 127.40672 155.15939 127.35173 155.26172 127.33203 155.26172 C 127.31244 155.26172 127.2612 155.29539 127.2168 155.33789 C 127.04006 155.40413 126.86472 155.50052 126.67383 155.54102 C 126.53401 155.60182 126.52355 155.59931 126.41211 155.50391 C 126.29811 155.40611 126.29502 155.40648 126.23242 155.48438 C 126.19732 155.52812 126.16797 155.60394 126.16797 155.65234 C 126.16797 155.70082 126.13159 155.76889 126.08789 155.80469 C 125.99805 155.87875 125.70898 155.94741 125.51172 155.94141 C 125.3946 155.9377 125.38086 155.92314 125.38086 155.80664 C 125.38086 155.65643 125.30553 155.56706 125.20703 155.60156 C 125.15363 155.62006 125.14466 155.67265 125.16406 155.84375 C 125.18704 156.04631 125.17928 156.07226 125.04883 156.19922 C 124.70667 156.34963 124.4029 156.57793 124.02734 156.40625 C 123.95986 156.33765 123.91162 156.32616 123.78516 156.34766 C 123.52165 156.3927 123.41324 156.4691 123.33594 156.66016 L 123.26367 156.83984 L 122.48633 156.96289 C 122.32189 157.06576 122.17534 157.17221 121.99609 157.25391 C 121.87666 157.29499 121.752 157.35337 121.7168 157.38477 C 121.2669 157.33274 121.04819 157.45788 120.67773 157.57617 C 120.50969 157.55517 120.42884 157.56737 120.29102 157.63477 C 120.13287 157.6744 119.92494 157.70203 119.81055 157.79883 C 119.78953 157.87203 119.75643 157.87747 119.35352 157.85547 C 119.06456 157.83977 118.83553 157.84907 118.67188 157.88477 C 118.48719 157.92617 118.39982 157.92903 118.32422 157.89453 C 118.1606 157.82006 117.88589 157.76492 117.80469 157.79102 C 117.7631 157.80412 117.6956 157.8427 117.6543 157.875 C 117.5973 157.9195 117.55728 157.92237 117.48828 157.88867 C 117.35134 157.82257 116.94141 157.83049 116.94141 157.90039 C 116.94141 158.01624 116.81277 158.06767 116.64844 158.01367 C 116.52398 157.97137 116.47171 157.97253 116.36914 158.01953 C 116.29996 158.05133 116.15766 158.09077 116.05273 158.10547 C 115.59808 158.31472 115.13809 158.27804 114.66406 158.60352 C 114.63659 158.63642 114.58945 158.66406 114.56055 158.66406 C 114.53165 158.66406 114.49281 158.69487 114.47461 158.73438 C 114.40288 158.88854 114.23027 159.11225 114.19727 159.09375 C 114.17828 159.08295 114.12643 159.11175 114.08203 159.15625 C 114.03781 159.20105 113.96562 159.23633 113.91992 159.23633 C 113.89672 159.32298 113.96361 159.50987 113.82031 159.60547 C 113.71765 159.63597 113.67608 159.88787 113.58008 159.67773 C 113.53523 159.58618 113.53299 159.58708 113.36914 159.73633 L 113.37109 160.46484 C 113.42711 160.6907 113.43755 160.88753 113.61133 161.04492 C 113.61133 161.09342 113.64211 161.12305 113.69141 161.12305 C 113.76964 161.12305 114.06055 161.42476 114.06055 161.50586 C 114.06055 161.61527 114.21761 161.69727 114.42773 161.69727 C 114.62113 161.69727 114.65124 161.70916 114.71094 161.81445 C 114.79354 161.95984 114.85074 161.9827 115.27539 162.0332 C 115.88438 162.1052 116.01378 162.11491 116.46289 162.12891 C 116.70713 162.13601 116.97123 162.16425 117.04883 162.18945 C 117.1264 162.21475 117.34171 162.25118 117.52734 162.27148 C 117.71301 162.29168 117.95487 162.32641 118.06641 162.34961 C 118.30377 162.39149 118.54974 162.41755 118.76953 162.52148 C 118.88619 162.57522 119.02108 162.58909 119.11328 162.67969 C 119.35903 162.80575 119.60463 162.93699 119.86328 163.02539 C 119.89228 163.05723 120.02161 163.10581 120.15039 163.13281 C 120.46771 163.19953 120.7091 163.34501 120.7793 163.51172 C 120.79462 163.54795 120.8789 163.59519 120.9668 163.61719 C 121.0547 163.63931 121.21248 163.72359 121.31641 163.80469 C 121.42042 163.88573 117.85983 160.57255 121.66797 163.99219 C 121.80226 164.11277 121.90909 164.1223 121.96289 164.38281 C 121.98614 164.49568 122.03263 164.55503 122.14453 164.61523 C 122.36942 164.8539 122.60449 164.93956 122.91406 165.13281 C 123.13915 165.37832 123.52111 165.7398 123.80273 166.04883 C 123.89456 166.15463 124.01155 166.24791 124.06445 166.25391 C 124.27745 166.60083 124.45554 167.01193 124.39844 167.35352 C 124.32907 167.35352 124.10615 167.13479 123.98047 166.94336 C 123.92859 166.8646 123.85707 166.79929 123.82227 166.79883 C 123.71872 166.79706 123.64648 166.7399 123.64648 166.6582 C 123.29729 166.38851 122.96963 166.0253 122.45508 166.0625 L 122.45508 166.26758 C 122.45598 166.4018 122.4832 166.50209 122.5332 166.55469 C 122.86756 166.90567 122.96562 167.01736 123.01172 167.09766 C 123.09932 167.17798 123.21263 167.21393 123.26562 167.33008 C 123.56284 167.5852 123.4713 167.69612 123.61328 168.07617 C 123.65684 168.28386 123.4359 168.25326 123.30078 168.0332 C 123.27424 167.98996 123.17543 167.91469 123.08203 167.86719 C 122.79658 167.71661 122.61964 167.58355 122.27734 167.49805 C 122.18995 167.43728 122.07098 167.39453 121.98438 167.39453 C 121.90387 167.39453 121.77948 167.35645 121.70898 167.31055 C 121.58144 167.22885 121.5801 167.22869 121.5332 167.30859 C 121.5071 167.35269 121.48633 167.41537 121.48633 167.44727 C 121.48633 167.55755 121.63006 167.76629 121.77539 167.86719 C 122.07394 168.08647 122.39309 168.27065 122.61914 168.57812 C 122.63687 168.76529 122.5552 168.78794 122.33984 168.65625 C 122.17092 168.55293 122.089 168.52916 121.28516 168.33984 C 120.98808 168.26971 120.69447 168.18911 120.63477 168.16211 C 120.45974 168.08229 119.90636 168.10933 119.70312 168.20703 C 119.43174 168.33746 119.36619 168.35438 119.10156 168.35938 C 118.70457 168.36848 118.25046 168.49156 118.19336 168.60547 C 118.14374 168.70467 118.09929 168.71673 117.5625 168.76953 C 117.42191 168.78343 117.28331 168.82112 117.25391 168.85352 C 117.21097 168.90062 117.04103 168.91211 116.4043 168.91211 C 115.88846 168.91211 115.59235 168.89619 115.56055 168.86719 C 115.53349 168.84259 115.36177 168.81459 115.17969 168.80859 C 114.99758 168.80139 114.76687 168.76933 114.66797 168.73633 C 114.43609 168.66013 113.04341 168.60502 112.86719 168.66602 C 112.79956 168.68952 112.43538 168.72018 112.05664 168.73438 C 111.41861 168.75853 111.36575 168.7658 111.34375 168.8418 C 111.25837 168.8298 110.93972 168.81138 110.77148 168.77148 C 110.49254 168.76268 110.46094 168.77064 110.46094 168.83984 C 110.46094 168.88255 110.48307 168.9546 110.50977 169 C 110.58099 169.12111 110.53243 169.19167 110.39648 169.16797 C 110.32185 169.15477 110.28125 169.12107 110.28125 169.07227 C 110.28125 168.97872 110.13664 168.70803 110.08594 168.70703 C 110.04846 168.81217 110.10935 169.04203 109.96289 169.05273 C 109.93969 169.03966 109.91992 168.99533 109.91992 168.95312 C 109.91992 168.83065 109.80397 168.75696 109.56055 168.72656 C 109.4243 168.70956 109.3128 168.67015 109.2793 168.62695 C 109.15256 168.53289 109.01441 168.45069 108.89648 168.34375 C 108.70834 168.29693 108.52321 168.26842 108.30078 168.22852 C 108.22805 168.14156 108.04993 167.97098 107.93945 167.79688 C 107.67156 167.64235 107.42805 167.47644 107.1875 167.30078 C 107.11403 167.28715 106.94044 167.16479 106.76953 167.00781 C 106.60861 166.86005 106.44184 166.74046 106.39844 166.74023 C 106.31921 166.7398 105.7793 166.27834 105.7793 166.21094 C 105.63985 166.12876 105.48599 166.04348 105.34375 165.95508 C 105.25462 165.89054 105.16222 165.83789 105.13672 165.83789 C 104.78926 165.58297 104.41795 165.31428 104.03516 165.11523 C 103.85975 165.01575 103.68103 164.93088 103.52148 164.79688 C 103.43948 164.7212 103.26122 164.61916 103.125 164.56836 C 102.94748 164.50222 102.78969 164.39339 102.56836 164.18555 L 102.25977 163.89648 L 102.06836 163.96094 C 101.81679 164.04591 101.75238 164.00753 101.80078 163.80273 C 101.85238 163.58545 101.82456 163.16123 101.75586 163.11133 C 101.72496 163.08878 101.68632 162.96446 101.66992 162.83594 C 101.65345 162.70749 101.59557 162.53618 101.54297 162.45508 C 101.46337 162.33227 101.45367 162.27173 101.48047 162.09375 C 101.54314 161.67754 101.60123 161.05489 101.61523 160.65039 C 101.62313 160.42492 101.66263 160.02417 101.70312 159.75781 C 101.74403 159.4914 101.76345 159.25482 101.74805 159.23242 C 101.79205 159.09766 101.88367 158.95808 101.88867 158.80078 C 101.91677 158.57488 101.90982 158.53926 101.82422 158.47266 C 101.77182 158.43182 101.73047 158.38599 101.73047 158.37109 C 101.73047 158.3561 101.80538 158.24584 101.89648 158.125 C 102.03632 157.93969 102.06559 157.85977 102.08789 157.61719 C 102.10229 157.45922 102.12688 157.31156 102.14258 157.28906 C 102.15848 157.26651 102.18382 157.14746 102.19922 157.02344 C 102.24498 156.70783 102.20997 156.37049 102.50391 156.20508 C 102.52126 156.20437 102.64146 156.01057 102.77148 155.77539 C 102.90147 155.5402 103.06547 155.289 103.13477 155.2168 C 103.25962 155.08685 103.27862 155.00572 103.26172 154.67578 C 103.25605 154.56285 103.28414 154.48828 103.36914 154.39648 C 103.49136 154.2035 103.62772 154.0117 103.66602 153.78906 C 103.66602 153.64627 103.68731 153.58673 103.75391 153.54883 C 103.82916 153.42582 103.92057 153.30022 103.98438 153.16992 C 104.04321 153.16992 104.24038 152.97437 104.27148 152.88477 C 104.41213 152.77065 104.55709 152.65479 104.70703 152.55859 C 104.86447 152.50861 105.06597 152.12758 105.06641 151.87891 C 105.06684 151.68834 105.21939 151.30494 105.34766 151.17188 C 105.3964 151.12126 105.54382 151.01259 105.67578 150.92969 C 105.80771 150.84693 105.91601 150.74849 105.91602 150.71289 C 106.02557 150.47071 106.12041 150.2144 106.32031 150.03906 C 106.35674 149.93439 106.42964 149.83314 106.43164 149.72266 C 106.38026 149.64697 106.50765 149.35857 106.63672 149.25977 C 106.70658 149.11218 106.87307 149.00101 106.85547 148.79688 C 106.90247 148.66294 106.93272 148.50431 106.91992 148.44531 C 106.88928 148.29934 106.98658 148.04532 107.11523 147.93555 C 107.13123 147.80395 107.22871 147.68319 107.16211 147.54492 C 107.20387 147.49662 107.23597 147.31912 107.29297 146.82031 C 107.30407 146.72153 107.33342 146.60701 107.35742 146.56641 C 107.39965 146.36683 107.33464 146.17874 107.49023 146.02148 C 107.57607 145.75558 107.72723 145.44891 107.76953 145.21484 C 107.66829 145.06713 107.73164 144.89624 107.9082 144.83594 C 108.09354 144.7726 108.12721 144.43949 107.96094 144.32031 C 107.86654 144.25358 107.85301 144.21755 107.87891 144.12305 C 107.89627 144.05933 107.94985 143.95814 107.99805 143.89844 C 108.04635 143.83879 108.09658 143.70581 108.10938 143.60156 C 108.12207 143.49719 108.15037 143.40147 108.17188 143.38867 C 108.27271 143.19478 108.28742 142.99015 108.47852 142.8418 C 108.54822 142.68853 108.50098 142.61992 108.27344 142.54492 C 108.18944 142.51712 108.12109 142.48019 108.12109 142.46289 C 108.12109 142.44565 108.19064 142.31544 108.27734 142.17188 C 108.343 142.00588 108.42177 141.81587 108.50977 141.67383 C 108.50567 141.51684 108.44538 141.1739 108.55078 141.00781 C 108.62198 140.6159 108.60952 140.23914 108.63672 139.83398 C 108.63302 139.46368 108.66386 139.08191 108.72656 138.70312 C 108.72946 138.53151 108.75852 138.31972 108.79102 138.23242 C 108.80762 138.01426 108.79833 137.79346 108.92188 137.61719 C 108.96558 137.33498 109.01146 137.04525 109.03906 136.76367 C 109.08681 136.39847 108.98536 136.10611 109.15234 135.75781 C 109.20625 135.57344 109.16882 135.44742 109.0293 135.35352 C 108.95744 135.30527 108.97921 135.03348 109.06641 134.89453 C 109.28291 134.37529 109.25099 133.94338 109.17969 133.36914 C 109.17066 132.77987 109.17854 132.71992 109.27344 132.54883 C 109.29714 132.2205 109.22331 131.9045 109.31641 131.60352 C 109.47265 131.31256 109.67112 131.03119 109.76172 130.71484 C 109.80002 130.44276 109.87919 130.17488 109.92969 130.14648 C 110.04711 130.08041 110.13688 129.77003 110.11328 129.50586 C 110.16386 129.26167 110.18243 129.01298 110.23633 128.76367 C 110.28363 128.40159 110.3573 128.05039 110.4375 127.69336 C 110.53116 127.42045 110.58567 127.13263 110.77539 126.89453 C 110.75259 126.68766 110.89657 126.51632 110.67773 126.30078 C 110.73064 126.01358 110.74317 125.70824 110.79297 125.44531 C 110.87662 125.38883 111.27148 124.77147 111.27148 124.69727 C 111.38443 124.52832 111.45551 124.36671 111.58594 124.20703 C 111.65314 124.06405 111.66824 123.95893 111.65234 123.73828 C 111.63458 123.49282 111.64633 123.43003 111.74023 123.27734 C 111.9996 122.78572 112.03554 122.31205 112.23242 121.79297 C 112.29584 121.58602 112.35847 121.41262 112.42188 121.20508 C 112.53658 120.90877 112.55678 120.76321 112.48828 120.72461 C 112.51577 120.53103 112.45257 120.30175 112.62109 120.14062 C 112.70675 119.89623 112.8203 119.66594 112.8418 119.39844 C 112.93403 119.17216 113.02767 118.9446 113.16211 118.74023 C 113.16211 118.71661 113.21118 118.63198 113.27148 118.55078 C 113.42023 118.35116 113.51004 117.98238 113.43164 117.89648 C 113.32289 117.81521 113.15613 117.82453 113.11523 117.6582 C 112.8111 117.34611 112.60397 117.0582 112.48828 116.73828 C 112.37278 116.41833 112.34846 116.06654 112.41016 115.625 C 112.40546 115.39586 112.65499 115.33371 112.36719 115.07617 C 112.34495 114.95189 112.35993 114.90215 112.45703 114.79688 C 112.60718 114.50855 112.78418 114.22033 112.92188 113.91797 C 112.98654 113.80523 113.06536 113.62054 113.09766 113.50781 C 113.12976 113.39507 113.19449 113.16521 113.24219 112.99609 C 113.28982 112.82701 113.3932 112.56843 113.4707 112.42188 C 113.54821 112.2753 113.61131 112.1137 113.61133 112.0625 C 113.7627 111.88602 113.94073 111.6947 114.10352 111.51172 C 114.19219 111.37518 114.30269 111.27975 114.37109 111.10156 C 114.46812 110.93009 114.58714 110.75838 114.68164 110.58789 C 114.8787 110.17259 114.83669 109.72161 115.18945 109.41992 C 115.41855 109.16335 115.61385 108.89274 115.91797 108.7207 C 115.9819 108.49615 116.02687 108.20263 116.22461 108.05469 C 116.32016 107.97936 116.40576 107.88268 116.50781 107.83008 C 116.57719 107.83008 116.76172 107.57637 116.76172 107.48047 C 116.9089 107.34671 117.00516 107.17456 117.1875 107.10156 C 117.202 107.06193 117.29517 106.99572 117.39648 106.95312 C 117.64361 106.51372 118.05133 106.27594 118.24609 105.88281 C 118.38537 105.67444 118.4874 105.41749 118.73242 105.29883 C 118.82657 105.25065 118.93476 105.17722 118.97266 105.13672 C 119.21713 104.67486 119.28463 104.20187 119.82031 104.03516 C 120.05459 103.83476 120.29713 103.70665 120.36523 103.37891 C 120.54113 103.18733 120.54135 103.00596 120.85742 102.97266 C 120.88848 102.93859 121.0122 102.86886 121.13281 102.81836 C 121.29308 102.43886 121.55467 101.89208 121.97656 101.60156 C 122.0031 101.52099 122.07597 101.39175 122.13867 101.31445 C 122.22931 101.17773 122.27895 101.02497 122.40234 100.91602 C 122.63168 100.66594 122.86519 100.42148 123.09766 100.16406 C 123.48244 99.974154 123.61479 99.862408 123.71289 99.648438 C 123.87744 99.532927 124.02799 99.352194 124.25977 99.308594 C 124.4347 99.255744 124.50806 99.202051 124.61914 99.050781 C 124.696 98.946151 124.77231 98.792384 124.78711 98.708984 C 124.92 98.527864 125.04612 98.320206 125.18359 98.134766 C 125.31678 98.036286 125.41872 97.838815 125.64062 97.828125 C 125.69754 97.828125 125.83235 97.785085 125.94141 97.734375 C 126.32437 97.255192 126.88835 96.958594 127.06836 96.373047 L 127.32812 96.136719 C 127.80253 95.991998 128.21864 95.794695 128.50781 95.375 C 128.50781 95.321567 128.72774 95.230313 128.95508 95.189453 C 129.14202 95.155863 129.39614 94.98498 129.46484 94.847656 C 129.83406 94.667533 130.20249 94.432523 130.59766 94.261719 C 130.65257 94.261719 130.74523 94.215926 130.80273 94.160156 C 131.00295 93.975172 130.68244 93.72743 131.24609 93.75 C 131.69208 93.671091 131.80911 93.566575 131.92969 93.447266 C 132.45182 93.057187 132.98473 92.955339 133.5332 92.646484 C 133.63311 92.538212 133.74307 92.483941 134.03516 92.400391 C 134.24089 92.341426 134.45497 92.292969 134.50977 92.292969 C 134.56819 92.292969 134.70773 92.207708 134.8457 92.087891 C 135.15063 91.90162 135.38542 91.682881 135.76562 91.675781 C 135.95808 91.662781 136.13786 91.631402 136.16406 91.607422 C 136.19006 91.583565 136.21861 91.501761 136.22461 91.425781 C 136.23061 91.349908 136.23919 91.258633 136.24219 91.220703 C 136.25411 91.092908 136.37994 91.020696 136.55664 91.041016 C 136.792 91.063336 137.02787 91.087869 137.26367 91.105469 L 137.45898 90.861328 C 137.61546 90.665491 137.67844 90.616741 137.77344 90.619141 C 138.02559 90.625285 138.52554 90.556843 138.58984 90.507812 C 138.62697 90.479573 138.72494 90.443564 138.80664 90.427734 C 138.98168 90.286269 139.12392 90.139289 139.3457 90.105469 C 139.71775 89.950519 140.05326 89.753267 140.42773 89.587891 C 140.70399 89.506325 140.99289 89.422753 141.28125 89.382812 C 141.4052 89.315321 141.59919 89.330881 141.67969 89.166016 C 141.90859 89.114412 142.09119 89.114856 142.31836 88.994141 C 142.43425 88.976289 142.55498 88.912133 142.67773 88.804688 C 142.97324 88.760193 143.17726 88.687052 143.42188 88.632812 C 143.6323 88.654428 143.81055 88.594593 143.81055 88.501953 C 144.04068 88.347359 144.27441 88.093542 144.57812 88.070312 C 144.71431 88.070312 144.86597 88.038561 144.96875 87.988281 C 145.21685 87.867451 145.39611 87.790789 145.6582 87.824219 C 145.98978 87.748191 146.3104 87.612422 146.64453 87.607422 C 147.08094 87.583614 147.44309 87.614502 147.88867 87.474609 C 148.03869 87.310636 148.20752 87.286712 148.33398 87.414062 C 148.43725 87.518027 148.66085 87.491606 148.91016 87.345703 C 149.0583 87.259073 149.11045 87.249664 149.29297 87.277344 C 149.40913 87.294934 149.56457 87.306534 149.63867 87.302734 C 150.14754 87.272341 150.28686 87.253699 150.42969 87.199219 C 151.15768 87.099611 151.81022 86.764792 152.52734 86.794922 C 152.74163 86.718762 152.91122 86.780893 153.08008 86.578125 C 153.24098 86.508095 153.28487 86.505954 153.52734 86.552734 C 153.67514 86.581534 153.86532 86.592445 153.94922 86.578125 C 154.03294 86.563815 154.15942 86.572433 154.23242 86.595703 C 154.44683 86.663719 155.6649 86.5878 155.77148 86.5 C 156.08888 86.46571 156.26472 86.449109 156.63672 86.511719 C 156.93036 86.566199 157.3218 86.600338 157.80469 86.611328 C 158.20398 86.620398 158.55564 86.644556 158.58594 86.666016 C 158.69241 86.742106 159.71014 86.810536 159.97852 86.759766 C 160.20606 86.716852 160.25775 86.722718 160.65234 86.837891 C 161.13106 86.977551 161.29002 86.988474 161.60156 86.902344 C 161.98633 86.914044 162.38723 86.899107 162.78125 86.966797 C 163.17729 86.98686 163.64864 87.032299 163.83008 87.068359 C 163.97981 87.090779 164.1407 87.092969 164.27734 87.136719 C 164.36536 87.203278 164.78014 87.332031 164.9043 87.332031 C 164.95992 87.332031 165.18279 87.412699 165.40039 87.511719 L 166.20312 87.671875 C 166.53442 87.654395 166.63909 87.662903 166.76172 87.720703 C 167.01292 87.766151 167.27226 87.807326 167.52148 87.853516 C 167.56301 87.913694 168.64922 88.158573 169.03711 88.195312 C 169.21038 88.211893 169.43235 88.246898 169.53125 88.273438 C 169.83983 88.316045 170.15736 88.339034 170.45508 88.433594 C 170.8414 88.538 171.21729 88.572009 171.59375 88.667969 C 172.05178 88.843831 172.44367 88.777427 172.9043 88.896484 C 173.13583 88.964334 173.35814 89.047528 173.60156 89.048828 C 173.77042 89.049338 174.04374 89.078321 174.20898 89.113281 C 174.3742 89.148241 174.59135 89.177734 174.69141 89.177734 C 174.95248 89.274573 175.23313 89.388868 175.51172 89.423828 C 175.98522 89.417997 176.33457 89.464101 176.61523 89.568359 C 176.82816 89.613651 177.04344 89.664476 177.25 89.722656 C 177.49358 89.78351 177.73677 89.862503 177.98438 89.914062 C 178.05405 89.914823 178.15303 89.934484 178.20312 89.958984 C 178.27064 89.992024 178.45676 89.985794 178.91992 89.933594 C 179.4254 89.876554 179.59559 89.872636 179.80078 89.910156 C 180.16591 89.948341 180.53212 89.975099 180.89453 90.037109 C 181.2266 90.096839 181.37605 90.109005 181.43945 90.078125 C 181.84642 90.032705 182.25342 89.997232 182.66406 90.097656 C 183.15774 90.202156 183.18397 90.202482 183.39062 90.138672 C 184.11197 90.131904 184.82457 90.056411 185.54102 90.019531 C 185.64959 89.978051 185.84706 89.957209 186.10352 89.957031 C 186.42583 89.92347 186.68632 89.896767 186.96289 89.705078 C 187.14861 89.622518 187.16699 89.621454 187.39062 89.683594 C 187.51909 89.719434 187.72319 89.753366 187.8457 89.759766 C 188.0435 89.770106 188.0745 89.761835 188.125 89.671875 C 188.45055 89.576426 188.84554 89.429111 189.23633 89.400391 C 189.70328 89.301331 190.10084 89.130167 190.58398 88.992188 C 190.8763 88.787152 191.0301 88.513442 191.38672 88.476562 C 191.6939 88.43153 191.84353 88.321338 191.80273 88.167969 C 191.77317 88.056949 191.91905 88.004299 192.0625 88.074219 C 192.24715 88.164245 192.82705 88.054125 192.75195 87.943359 C 192.79828 87.828949 193.13183 87.756135 192.90039 87.578125 C 192.84866 87.533985 192.79094 87.496094 192.77344 87.496094 C 192.68104 87.496094 192.70437 87.362714 192.8125 87.271484 C 192.96654 87.141389 193.03852 87.141734 193.07422 87.271484 C 193.15043 87.261584 193.32338 87.416784 193.39258 87.230469 C 193.68463 87.123416 194.014 87.038347 194.17188 86.738281 C 194.4762 86.593661 194.81163 86.390274 195.18555 86.365234 C 195.34767 86.349274 195.47782 86.314051 195.51172 86.275391 C 195.52352 86.097927 195.40056 86.167816 195.5332 85.96875 C 195.66659 85.79546 195.70553 85.772809 195.79883 85.818359 C 195.95645 85.895254 196.19635 85.862253 196.3125 85.748047 C 196.41172 85.650337 196.4439 85.644126 196.64648 85.666016 C 196.99974 85.704131 197.12092 85.644846 197.16992 85.414062 L 197.42578 85.208984 C 197.57732 85.200045 197.72725 85.228294 197.93164 85.302734 C 198.11896 85.371564 198.26098 85.399603 198.33398 85.382812 C 198.34068 85.287729 198.43868 85.170664 198.36328 84.96875 C 198.35437 84.813775 198.36649 84.791541 198.46289 84.769531 C 198.9597 84.817283 199.41693 84.660885 199.91992 84.703125 C 200.22801 84.624804 200.37802 84.714669 200.37891 84.367188 C 200.36516 84.096858 200.39363 84.052734 200.58789 84.052734 C 200.80477 84.110705 200.79667 84.330685 201.10156 84.164062 C 201.28072 84.039222 201.4718 83.995525 201.58984 83.789062 L 201.74805 83.857422 C 201.95122 83.945684 202.39291 83.913429 202.50977 83.802734 C 202.55318 83.761639 202.6715 83.705554 202.77344 83.677734 C 203.06114 83.712064 203.34759 83.677425 203.61133 83.765625 C 203.76798 83.845845 203.81377 83.85205 203.94531 83.8125 C 204.21478 83.690382 204.25229 83.494648 204.625 83.615234 C 204.84595 83.540976 205.01922 83.53133 205.26172 83.4375 C 205.54504 83.517858 205.42662 83.618146 205.73047 83.572266 C 205.99014 83.707294 206.09517 83.901248 206.43164 83.783203 C 206.91092 83.67538 207.38068 83.670381 207.86133 83.613281 C 208.29383 83.594831 208.7208 83.83482 209.08984 83.638672 C 209.20561 83.546039 209.25 83.478352 209.25 83.388672 C 209.25 83.331722 209.25098 83.30183 209.26758 83.289062 z "
     id="path4573"
     style="fill:#000010;fill-opacity:1" /></svg>